solid Untitled-5a23a588
facet normal 0.0 0.0 -1.0
  outer loop
    vertex -17.07106781186548 12.071067811865476 -3.1307917175958904e-31
    vertex -16.68890983682152 6.83285870731324 -2.114974861910923e-15
    vertex -16.815771052222953 5.869252108682496 -2.114974861910923e-15
  endloop
endfacet
facet normal 0.0 0.0 -1.0
  outer loop
    vertex -16.68890983682152 6.83285870731324 -2.114974861910923e-15
    vertex -17.07106781186548 12.071067811865476 -3.1307917175958904e-31
    vertex -15.0 13.66025403784439 -3.1307917175958904e-31
  endloop
endfacet
facet normal 0.0 0.0 -1.0
  outer loop
    vertex -16.68890983682152 6.83285870731324 -2.114974861910923e-15
    vertex -15.0 13.66025403784439 -3.1307917175958904e-31
    vertex -16.31697157279876 7.730797108682495 -2.114974861910923e-15
  endloop
endfacet
facet normal 0.0 0.0 -1.0
  outer loop
    vertex -16.31697157279876 7.730797108682495 -2.114974861910923e-15
    vertex -15.0 13.66025403784439 -3.1307917175958904e-31
    vertex -15.725303238190776 8.50187429465032 -2.114974861910923e-15
  endloop
endfacet
facet normal 0.0 0.0 -1.0
  outer loop
    vertex -15.725303238190776 8.50187429465032 -2.114974861910923e-15
    vertex -15.0 13.66025403784439 -3.1307917175958904e-31
    vertex -14.954226052222953 9.093542629258302 -2.114974861910923e-15
  endloop
endfacet
facet normal 0.0 0.0 -1.0
  outer loop
    vertex -14.954226052222953 9.093542629258302 -2.114974861910923e-15
    vertex -15.0 13.66025403784439 -3.1307917175958904e-31
    vertex -12.588190451025207 14.659258262890674 -3.1307917175958904e-31
  endloop
endfacet
facet normal 0.0 0.0 -1.0
  outer loop
    vertex -14.954226052222953 9.093542629258302 -2.114974861910923e-15
    vertex -12.588190451025207 14.659258262890674 -3.1307917175958904e-31
    vertex -14.056287650853697 9.465480893281063 -2.114974861910923e-15
  endloop
endfacet
facet normal 0.0 0.0 -1.0
  outer loop
    vertex -14.056287650853697 9.465480893281063 -2.114974861910923e-15
    vertex -12.588190451025207 14.659258262890674 -3.1307917175958904e-31
    vertex -13.092681052222952 9.592342108682496 -2.114974861910923e-15
  endloop
endfacet
facet normal 0.0 0.0 -1.0
  outer loop
    vertex -13.092681052222952 9.592342108682496 -2.114974861910923e-15
    vertex -12.588190451025207 14.659258262890674 -3.1307917175958904e-31
    vertex -12.12907445359221 9.465480893281065 -2.114974861910923e-15
  endloop
endfacet
facet normal 0.0 0.0 -1.0
  outer loop
    vertex -12.12907445359221 9.465480893281065 -2.114974861910923e-15
    vertex -12.588190451025207 14.659258262890674 -3.1307917175958904e-31
    vertex -10.000000000000002 14.999999999999998 -3.1307917175958904e-31
  endloop
endfacet
facet normal 0.0 0.0 -1.0
  outer loop
    vertex -12.12907445359221 9.465480893281065 -2.114974861910923e-15
    vertex -10.000000000000002 14.999999999999998 -3.1307917175958904e-31
    vertex -11.231136052222952 9.093542629258302 -2.114974861910923e-15
  endloop
endfacet
facet normal 0.0 0.0 -1.0
  outer loop
    vertex -11.231136052222952 9.093542629258302 -2.114974861910923e-15
    vertex -10.000000000000002 14.999999999999998 -3.1307917175958904e-31
    vertex -10.460058866255132 8.501874294650321 -2.114974861910923e-15
  endloop
endfacet
facet normal 0.0 0.0 -1.0
  outer loop
    vertex -10.460058866255132 8.501874294650321 -2.114974861910923e-15
    vertex -10.000000000000002 14.999999999999998 -3.1307917175958904e-31
    vertex -9.86839053164715 7.730797108682498 -2.114974861910923e-15
  endloop
endfacet
facet normal 0.0 0.0 -1.0
  outer loop
    vertex -9.86839053164715 7.730797108682498 -2.114974861910923e-15
    vertex -10.000000000000002 14.999999999999998 -3.1307917175958904e-31
    vertex -7.411809548974792 14.659258262890674 -3.1307917175958904e-31
  endloop
endfacet
facet normal 0.0 0.0 -1.0
  outer loop
    vertex -9.86839053164715 7.730797108682498 -2.114974861910923e-15
    vertex -7.411809548974792 14.659258262890674 -3.1307917175958904e-31
    vertex -9.496452267624386 6.8328587073132425 -2.114974861910923e-15
  endloop
endfacet
facet normal 0.0 0.0 -1.0
  outer loop
    vertex -9.496452267624386 6.8328587073132425 -2.114974861910923e-15
    vertex -7.411809548974792 14.659258262890674 -3.1307917175958904e-31
    vertex -9.369591052222955 5.869252108682497 -2.114974861910923e-15
  endloop
endfacet
facet normal 0.0 0.0 -1.0
  outer loop
    vertex -9.369591052222955 5.869252108682497 -2.114974861910923e-15
    vertex -7.411809548974792 14.659258262890674 -3.1307917175958904e-31
    vertex -7.411809548974798 -4.659258262890683 -3.1307917175958904e-31
  endloop
endfacet
facet normal 0.0 0.0 -1.0
  outer loop
    vertex -7.411809548974798 -4.659258262890683 -3.1307917175958904e-31
    vertex -7.411809548974792 14.659258262890674 -3.1307917175958904e-31
    vertex -5.000000000000005 -3.660254037844389 -3.1307917175958904e-31
  endloop
endfacet
facet normal 0.0 0.0 -1.0
  outer loop
    vertex -5.000000000000005 -3.660254037844389 -3.1307917175958904e-31
    vertex -7.411809548974792 14.659258262890674 -3.1307917175958904e-31
    vertex -4.999999999999997 13.660254037844386 -3.1307917175958904e-31
  endloop
endfacet
facet normal 0.0 0.0 -1.0
  outer loop
    vertex -5.000000000000005 -3.660254037844389 -3.1307917175958904e-31
    vertex -4.999999999999997 13.660254037844386 -3.1307917175958904e-31
    vertex -2.928932188134527 -2.071067811865476 -3.1307917175958904e-31
  endloop
endfacet
facet normal 0.0 0.0 -1.0
  outer loop
    vertex -2.928932188134527 -2.071067811865476 -3.1307917175958904e-31
    vertex -4.999999999999997 13.660254037844386 -3.1307917175958904e-31
    vertex -2.928932188134526 12.071067811865476 -3.1307917175958904e-31
  endloop
endfacet
facet normal 0.0 0.0 -1.0
  outer loop
    vertex -2.928932188134527 -2.071067811865476 -3.1307917175958904e-31
    vertex -2.928932188134526 12.071067811865476 -3.1307917175958904e-31
    vertex -1.3397459621556165 -4.229949723821846e-15 -3.1307917175958904e-31
  endloop
endfacet
facet normal 0.0 0.0 -1.0
  outer loop
    vertex -1.3397459621556165 -4.229949723821846e-15 -3.1307917175958904e-31
    vertex -2.928932188134526 12.071067811865476 -3.1307917175958904e-31
    vertex -1.3397459621556123 9.999999999999996 -3.1307917175958904e-31
  endloop
endfacet
facet normal 0.0 0.0 -1.0
  outer loop
    vertex -1.3397459621556165 -4.229949723821846e-15 -3.1307917175958904e-31
    vertex -1.3397459621556123 9.999999999999996 -3.1307917175958904e-31
    vertex 0.0 0.0 -3.1307917175958904e-31
  endloop
endfacet
facet normal 0.0 0.0 -1.0
  outer loop
    vertex 0.0 0.0 -3.1307917175958904e-31
    vertex -1.3397459621556123 9.999999999999996 -3.1307917175958904e-31
    vertex 0.0 9.999999999999996 -3.1307917175958904e-31
  endloop
endfacet
facet normal 0.0 0.0 -1.0
  outer loop
    vertex -19.659258262890685 7.588190451025207 -3.1307917175958904e-31
    vertex -19.65925826289069 2.4118095489747966 -3.1307917175958904e-31
    vertex -20.000000000000004 5.000000000000002 -3.1307917175958904e-31
  endloop
endfacet
facet normal 0.0 0.0 -1.0
  outer loop
    vertex -19.65925826289069 2.4118095489747966 -3.1307917175958904e-31
    vertex -19.659258262890685 7.588190451025207 -3.1307917175958904e-31
    vertex -18.660254037844393 2.114974861910923e-15 -3.1307917175958904e-31
  endloop
endfacet
facet normal 0.0 0.0 -1.0
  outer loop
    vertex -18.660254037844393 2.114974861910923e-15 -3.1307917175958904e-31
    vertex -19.659258262890685 7.588190451025207 -3.1307917175958904e-31
    vertex -18.66025403784439 10.000000000000002 -3.1307917175958904e-31
  endloop
endfacet
facet normal 0.0 0.0 -1.0
  outer loop
    vertex -18.660254037844393 2.114974861910923e-15 -3.1307917175958904e-31
    vertex -18.66025403784439 10.000000000000002 -3.1307917175958904e-31
    vertex -17.071067811865483 -2.07106781186547 -3.1307917175958904e-31
  endloop
endfacet
facet normal 0.0 0.0 -1.0
  outer loop
    vertex -17.071067811865483 -2.07106781186547 -3.1307917175958904e-31
    vertex -18.66025403784439 10.000000000000002 -3.1307917175958904e-31
    vertex -17.07106781186548 12.071067811865476 -3.1307917175958904e-31
  endloop
endfacet
facet normal 0.0 0.0 -1.0
  outer loop
    vertex -17.071067811865483 -2.07106781186547 -3.1307917175958904e-31
    vertex -17.07106781186548 12.071067811865476 -3.1307917175958904e-31
    vertex -16.815771052222953 5.869252108682496 -2.114974861910923e-15
  endloop
endfacet
facet normal 0.0 0.0 -1.0
  outer loop
    vertex -17.071067811865483 -2.07106781186547 -3.1307917175958904e-31
    vertex -16.815771052222953 5.869252108682496 -2.114974861910923e-15
    vertex -16.68890983682152 4.905645510051752 -2.114974861910923e-15
  endloop
endfacet
facet normal 0.0 0.0 -1.0
  outer loop
    vertex -17.071067811865483 -2.07106781186547 -3.1307917175958904e-31
    vertex -16.68890983682152 4.905645510051752 -2.114974861910923e-15
    vertex -15.000000000000007 -3.6602540378443806 -3.1307917175958904e-31
  endloop
endfacet
facet normal 0.0 0.0 -1.0
  outer loop
    vertex -15.000000000000007 -3.6602540378443806 -3.1307917175958904e-31
    vertex -16.68890983682152 4.905645510051752 -2.114974861910923e-15
    vertex -16.31697157279876 4.007707108682497 -2.114974861910923e-15
  endloop
endfacet
facet normal 0.0 0.0 -1.0
  outer loop
    vertex -15.000000000000007 -3.6602540378443806 -3.1307917175958904e-31
    vertex -16.31697157279876 4.007707108682497 -2.114974861910923e-15
    vertex -15.725303238190776 3.2366299227146733 -2.114974861910923e-15
  endloop
endfacet
facet normal 0.0 0.0 -1.0
  outer loop
    vertex -15.000000000000007 -3.6602540378443806 -3.1307917175958904e-31
    vertex -15.725303238190776 3.2366299227146733 -2.114974861910923e-15
    vertex -14.954226052222953 2.6449615881066912 -2.114974861910923e-15
  endloop
endfacet
facet normal 0.0 0.0 -1.0
  outer loop
    vertex -15.000000000000007 -3.6602540378443806 -3.1307917175958904e-31
    vertex -14.954226052222953 2.6449615881066912 -2.114974861910923e-15
    vertex -12.588190451025216 -4.65925826289068 -3.1307917175958904e-31
  endloop
endfacet
facet normal 0.0 0.0 -1.0
  outer loop
    vertex -12.588190451025216 -4.65925826289068 -3.1307917175958904e-31
    vertex -14.954226052222953 2.6449615881066912 -2.114974861910923e-15
    vertex -14.056287650853697 2.2730233240839297 -2.114974861910923e-15
  endloop
endfacet
facet normal 0.0 0.0 -1.0
  outer loop
    vertex -12.588190451025216 -4.65925826289068 -3.1307917175958904e-31
    vertex -14.056287650853697 2.2730233240839297 -2.114974861910923e-15
    vertex -13.092681052222952 2.146162108682497 -2.114974861910923e-15
  endloop
endfacet
facet normal 0.0 0.0 -1.0
  outer loop
    vertex -12.588190451025216 -4.65925826289068 -3.1307917175958904e-31
    vertex -13.092681052222952 2.146162108682497 -2.114974861910923e-15
    vertex -12.129074453592205 2.27302332408393 -2.114974861910923e-15
  endloop
endfacet
facet normal 0.0 0.0 -1.0
  outer loop
    vertex -12.588190451025216 -4.65925826289068 -3.1307917175958904e-31
    vertex -12.129074453592205 2.27302332408393 -2.114974861910923e-15
    vertex -10.000000000000004 -4.999999999999999 -3.1307917175958904e-31
  endloop
endfacet
facet normal 0.0 0.0 -1.0
  outer loop
    vertex -10.000000000000004 -4.999999999999999 -3.1307917175958904e-31
    vertex -12.129074453592205 2.27302332408393 -2.114974861910923e-15
    vertex -11.231136052222952 2.644961588106692 -2.114974861910923e-15
  endloop
endfacet
facet normal 0.0 0.0 -1.0
  outer loop
    vertex -10.000000000000004 -4.999999999999999 -3.1307917175958904e-31
    vertex -11.231136052222952 2.644961588106692 -2.114974861910923e-15
    vertex -10.46005886625513 3.2366299227146738 -2.114974861910923e-15
  endloop
endfacet
facet normal 0.0 0.0 -1.0
  outer loop
    vertex -10.000000000000004 -4.999999999999999 -3.1307917175958904e-31
    vertex -10.46005886625513 3.2366299227146738 -2.114974861910923e-15
    vertex -9.868390531647146 4.007707108682499 -2.114974861910923e-15
  endloop
endfacet
facet normal 0.0 0.0 -1.0
  outer loop
    vertex -10.000000000000004 -4.999999999999999 -3.1307917175958904e-31
    vertex -9.868390531647146 4.007707108682499 -2.114974861910923e-15
    vertex -7.411809548974798 -4.659258262890683 -3.1307917175958904e-31
  endloop
endfacet
facet normal 0.0 0.0 -1.0
  outer loop
    vertex -7.411809548974798 -4.659258262890683 -3.1307917175958904e-31
    vertex -9.868390531647146 4.007707108682499 -2.114974861910923e-15
    vertex -9.496452267624386 4.905645510051754 -2.114974861910923e-15
  endloop
endfacet
facet normal 0.0 0.0 -1.0
  outer loop
    vertex -7.411809548974798 -4.659258262890683 -3.1307917175958904e-31
    vertex -9.496452267624386 4.905645510051754 -2.114974861910923e-15
    vertex -9.369591052222955 5.869252108682497 -2.114974861910923e-15
  endloop
endfacet
facet normal -0.0 -0.0 1.0
  outer loop
    vertex -19.65925826289069 2.4118095489747966 1.9999999999999998
    vertex -19.659258262890685 7.588190451025207 1.9999999999999998
    vertex -20.000000000000004 5.000000000000002 1.9999999999999998
  endloop
endfacet
facet normal -0.0 -0.0 1.0
  outer loop
    vertex -19.659258262890685 7.588190451025207 1.9999999999999998
    vertex -19.65925826289069 2.4118095489747966 1.9999999999999998
    vertex -18.660254037844393 2.114974861910923e-15 1.9999999999999998
  endloop
endfacet
facet normal -0.0 -0.0 1.0
  outer loop
    vertex -19.659258262890685 7.588190451025207 1.9999999999999998
    vertex -18.660254037844393 2.114974861910923e-15 1.9999999999999998
    vertex -18.66025403784439 10.000000000000002 1.9999999999999998
  endloop
endfacet
facet normal -0.0 -0.0 1.0
  outer loop
    vertex -18.66025403784439 10.000000000000002 1.9999999999999998
    vertex -18.660254037844393 2.114974861910923e-15 1.9999999999999998
    vertex -17.071067811865483 -2.07106781186547 1.9999999999999998
  endloop
endfacet
facet normal -0.0 -0.0 1.0
  outer loop
    vertex -18.66025403784439 10.000000000000002 1.9999999999999998
    vertex -17.071067811865483 -2.07106781186547 1.9999999999999998
    vertex -17.07106781186548 12.071067811865476 1.9999999999999998
  endloop
endfacet
facet normal -0.0 -0.0 1.0
  outer loop
    vertex -17.07106781186548 12.071067811865476 1.9999999999999998
    vertex -17.071067811865483 -2.07106781186547 1.9999999999999998
    vertex -16.815771052222953 5.869252108682496 1.9999999999999991
  endloop
endfacet
facet normal -0.0 -0.0 1.0
  outer loop
    vertex -16.815771052222953 5.869252108682496 1.9999999999999991
    vertex -17.071067811865483 -2.07106781186547 1.9999999999999998
    vertex -16.68890983682152 4.905645510051752 1.9999999999999991
  endloop
endfacet
facet normal -0.0 -0.0 1.0
  outer loop
    vertex -16.68890983682152 4.905645510051752 1.9999999999999991
    vertex -17.071067811865483 -2.07106781186547 1.9999999999999998
    vertex -15.000000000000007 -3.6602540378443806 1.9999999999999998
  endloop
endfacet
facet normal -0.0 -0.0 1.0
  outer loop
    vertex -16.68890983682152 4.905645510051752 1.9999999999999991
    vertex -15.000000000000007 -3.6602540378443806 1.9999999999999998
    vertex -16.31697157279876 4.007707108682497 1.9999999999999991
  endloop
endfacet
facet normal -0.0 -0.0 1.0
  outer loop
    vertex -16.31697157279876 4.007707108682497 1.9999999999999991
    vertex -15.000000000000007 -3.6602540378443806 1.9999999999999998
    vertex -15.725303238190776 3.2366299227146733 1.9999999999999991
  endloop
endfacet
facet normal -0.0 -0.0 1.0
  outer loop
    vertex -15.725303238190776 3.2366299227146733 1.9999999999999991
    vertex -15.000000000000007 -3.6602540378443806 1.9999999999999998
    vertex -14.954226052222953 2.6449615881066912 1.9999999999999991
  endloop
endfacet
facet normal -0.0 -0.0 1.0
  outer loop
    vertex -14.954226052222953 2.6449615881066912 1.9999999999999991
    vertex -15.000000000000007 -3.6602540378443806 1.9999999999999998
    vertex -12.588190451025216 -4.65925826289068 1.9999999999999998
  endloop
endfacet
facet normal -0.0 -0.0 1.0
  outer loop
    vertex -14.954226052222953 2.6449615881066912 1.9999999999999991
    vertex -12.588190451025216 -4.65925826289068 1.9999999999999998
    vertex -14.056287650853697 2.2730233240839297 1.9999999999999991
  endloop
endfacet
facet normal -0.0 -0.0 1.0
  outer loop
    vertex -14.056287650853697 2.2730233240839297 1.9999999999999991
    vertex -12.588190451025216 -4.65925826289068 1.9999999999999998
    vertex -13.092681052222952 2.146162108682497 1.9999999999999991
  endloop
endfacet
facet normal -0.0 -0.0 1.0
  outer loop
    vertex -13.092681052222952 2.146162108682497 1.9999999999999991
    vertex -12.588190451025216 -4.65925826289068 1.9999999999999998
    vertex -12.129074453592205 2.27302332408393 1.9999999999999991
  endloop
endfacet
facet normal -0.0 -0.0 1.0
  outer loop
    vertex -12.129074453592205 2.27302332408393 1.9999999999999991
    vertex -12.588190451025216 -4.65925826289068 1.9999999999999998
    vertex -10.000000000000004 -4.999999999999999 1.9999999999999998
  endloop
endfacet
facet normal -0.0 -0.0 1.0
  outer loop
    vertex -12.129074453592205 2.27302332408393 1.9999999999999991
    vertex -10.000000000000004 -4.999999999999999 1.9999999999999998
    vertex -11.231136052222952 2.644961588106692 1.9999999999999991
  endloop
endfacet
facet normal -0.0 -0.0 1.0
  outer loop
    vertex -11.231136052222952 2.644961588106692 1.9999999999999991
    vertex -10.000000000000004 -4.999999999999999 1.9999999999999998
    vertex -10.46005886625513 3.2366299227146738 1.9999999999999991
  endloop
endfacet
facet normal -0.0 -0.0 1.0
  outer loop
    vertex -10.46005886625513 3.2366299227146738 1.9999999999999991
    vertex -10.000000000000004 -4.999999999999999 1.9999999999999998
    vertex -9.868390531647146 4.007707108682499 1.9999999999999991
  endloop
endfacet
facet normal -0.0 -0.0 1.0
  outer loop
    vertex -9.868390531647146 4.007707108682499 1.9999999999999991
    vertex -10.000000000000004 -4.999999999999999 1.9999999999999998
    vertex -7.411809548974798 -4.659258262890683 1.9999999999999998
  endloop
endfacet
facet normal -0.0 -0.0 1.0
  outer loop
    vertex -9.868390531647146 4.007707108682499 1.9999999999999991
    vertex -7.411809548974798 -4.659258262890683 1.9999999999999998
    vertex -9.496452267624386 4.905645510051754 1.9999999999999991
  endloop
endfacet
facet normal -0.0 -0.0 1.0
  outer loop
    vertex -9.496452267624386 4.905645510051754 1.9999999999999991
    vertex -7.411809548974798 -4.659258262890683 1.9999999999999998
    vertex -9.369591052222955 5.869252108682497 1.9999999999999991
  endloop
endfacet
facet normal -0.0 -0.0 1.0
  outer loop
    vertex -17.07106781186548 12.071067811865476 1.9999999999999998
    vertex -16.68890983682152 6.83285870731324 1.9999999999999991
    vertex -15.0 13.66025403784439 1.9999999999999998
  endloop
endfacet
facet normal -0.0 -0.0 1.0
  outer loop
    vertex -16.68890983682152 6.83285870731324 1.9999999999999991
    vertex -17.07106781186548 12.071067811865476 1.9999999999999998
    vertex -16.815771052222953 5.869252108682496 1.9999999999999991
  endloop
endfacet
facet normal -0.0 -0.0 1.0
  outer loop
    vertex -15.0 13.66025403784439 1.9999999999999998
    vertex -16.68890983682152 6.83285870731324 1.9999999999999991
    vertex -16.31697157279876 7.730797108682495 1.9999999999999991
  endloop
endfacet
facet normal -0.0 -0.0 1.0
  outer loop
    vertex -15.0 13.66025403784439 1.9999999999999998
    vertex -16.31697157279876 7.730797108682495 1.9999999999999991
    vertex -15.725303238190776 8.50187429465032 1.9999999999999991
  endloop
endfacet
facet normal -0.0 -0.0 1.0
  outer loop
    vertex -15.0 13.66025403784439 1.9999999999999998
    vertex -15.725303238190776 8.50187429465032 1.9999999999999991
    vertex -14.954226052222953 9.093542629258302 1.9999999999999991
  endloop
endfacet
facet normal -0.0 -0.0 1.0
  outer loop
    vertex -15.0 13.66025403784439 1.9999999999999998
    vertex -14.954226052222953 9.093542629258302 1.9999999999999991
    vertex -12.588190451025207 14.659258262890674 1.9999999999999998
  endloop
endfacet
facet normal -0.0 -0.0 1.0
  outer loop
    vertex -12.588190451025207 14.659258262890674 1.9999999999999998
    vertex -14.954226052222953 9.093542629258302 1.9999999999999991
    vertex -14.056287650853697 9.465480893281063 1.9999999999999991
  endloop
endfacet
facet normal -0.0 -0.0 1.0
  outer loop
    vertex -12.588190451025207 14.659258262890674 1.9999999999999998
    vertex -14.056287650853697 9.465480893281063 1.9999999999999991
    vertex -13.092681052222952 9.592342108682496 1.9999999999999991
  endloop
endfacet
facet normal -0.0 -0.0 1.0
  outer loop
    vertex -12.588190451025207 14.659258262890674 1.9999999999999998
    vertex -13.092681052222952 9.592342108682496 1.9999999999999991
    vertex -12.12907445359221 9.465480893281065 1.9999999999999991
  endloop
endfacet
facet normal -0.0 -0.0 1.0
  outer loop
    vertex -12.588190451025207 14.659258262890674 1.9999999999999998
    vertex -12.12907445359221 9.465480893281065 1.9999999999999991
    vertex -10.000000000000002 14.999999999999998 1.9999999999999998
  endloop
endfacet
facet normal -0.0 -0.0 1.0
  outer loop
    vertex -10.000000000000002 14.999999999999998 1.9999999999999998
    vertex -12.12907445359221 9.465480893281065 1.9999999999999991
    vertex -11.231136052222952 9.093542629258302 1.9999999999999991
  endloop
endfacet
facet normal -0.0 -0.0 1.0
  outer loop
    vertex -10.000000000000002 14.999999999999998 1.9999999999999998
    vertex -11.231136052222952 9.093542629258302 1.9999999999999991
    vertex -10.460058866255132 8.501874294650321 1.9999999999999991
  endloop
endfacet
facet normal -0.0 -0.0 1.0
  outer loop
    vertex -10.000000000000002 14.999999999999998 1.9999999999999998
    vertex -10.460058866255132 8.501874294650321 1.9999999999999991
    vertex -9.86839053164715 7.730797108682498 1.9999999999999991
  endloop
endfacet
facet normal -0.0 -0.0 1.0
  outer loop
    vertex -10.000000000000002 14.999999999999998 1.9999999999999998
    vertex -9.86839053164715 7.730797108682498 1.9999999999999991
    vertex -7.411809548974792 14.659258262890674 1.9999999999999998
  endloop
endfacet
facet normal -0.0 -0.0 1.0
  outer loop
    vertex -7.411809548974792 14.659258262890674 1.9999999999999998
    vertex -9.86839053164715 7.730797108682498 1.9999999999999991
    vertex -9.496452267624386 6.8328587073132425 1.9999999999999991
  endloop
endfacet
facet normal -0.0 -0.0 1.0
  outer loop
    vertex -7.411809548974792 14.659258262890674 1.9999999999999998
    vertex -9.496452267624386 6.8328587073132425 1.9999999999999991
    vertex -9.369591052222955 5.869252108682497 1.9999999999999991
  endloop
endfacet
facet normal -0.0 -0.0 1.0
  outer loop
    vertex -7.411809548974792 14.659258262890674 1.9999999999999998
    vertex -9.369591052222955 5.869252108682497 1.9999999999999991
    vertex -7.411809548974798 -4.659258262890683 1.9999999999999998
  endloop
endfacet
facet normal -0.0 -0.0 1.0
  outer loop
    vertex -7.411809548974792 14.659258262890674 1.9999999999999998
    vertex -7.411809548974798 -4.659258262890683 1.9999999999999998
    vertex -5.000000000000005 -3.660254037844389 1.9999999999999998
  endloop
endfacet
facet normal -0.0 -0.0 1.0
  outer loop
    vertex -7.411809548974792 14.659258262890674 1.9999999999999998
    vertex -5.000000000000005 -3.660254037844389 1.9999999999999998
    vertex -4.999999999999997 13.660254037844386 1.9999999999999998
  endloop
endfacet
facet normal -0.0 -0.0 1.0
  outer loop
    vertex -4.999999999999997 13.660254037844386 1.9999999999999998
    vertex -5.000000000000005 -3.660254037844389 1.9999999999999998
    vertex -2.928932188134527 -2.071067811865476 1.9999999999999998
  endloop
endfacet
facet normal -0.0 -0.0 1.0
  outer loop
    vertex -4.999999999999997 13.660254037844386 1.9999999999999998
    vertex -2.928932188134527 -2.071067811865476 1.9999999999999998
    vertex -2.928932188134526 12.071067811865476 1.9999999999999998
  endloop
endfacet
facet normal -0.0 -0.0 1.0
  outer loop
    vertex -2.928932188134526 12.071067811865476 1.9999999999999998
    vertex -2.928932188134527 -2.071067811865476 1.9999999999999998
    vertex -1.3397459621556165 -4.229949723821846e-15 1.9999999999999998
  endloop
endfacet
facet normal -0.0 -0.0 1.0
  outer loop
    vertex -2.928932188134526 12.071067811865476 1.9999999999999998
    vertex -1.3397459621556165 -4.229949723821846e-15 1.9999999999999998
    vertex -1.3397459621556123 9.999999999999996 1.9999999999999998
  endloop
endfacet
facet normal -0.0 -0.0 1.0
  outer loop
    vertex -1.3397459621556123 9.999999999999996 1.9999999999999998
    vertex -1.3397459621556165 -4.229949723821846e-15 1.9999999999999998
    vertex 0.0 0.0 1.9999999999999998
  endloop
endfacet
facet normal -0.0 -0.0 1.0
  outer loop
    vertex -1.3397459621556123 9.999999999999996 1.9999999999999998
    vertex 0.0 0.0 1.9999999999999998
    vertex 0.0 9.999999999999996 1.9999999999999998
  endloop
endfacet
facet normal 0.7933533402912355 0.6087614290087204 -0.0
  outer loop
    vertex -2.928932188134526 12.071067811865476 -3.1307917175958904e-31
    vertex -1.3397459621556123 9.999999999999996 1.9999999999999998
    vertex -1.3397459621556123 9.999999999999996 -3.1307917175958904e-31
  endloop
endfacet
facet normal 0.7933533402912355 0.6087614290087204 -0.0
  outer loop
    vertex -1.3397459621556123 9.999999999999996 1.9999999999999998
    vertex -2.928932188134526 12.071067811865476 -3.1307917175958904e-31
    vertex -2.928932188134526 12.071067811865476 1.9999999999999998
  endloop
endfacet
facet normal -0.0 1.0 -0.0
  outer loop
    vertex -1.3397459621556123 9.999999999999996 1.9999999999999998
    vertex 0.0 9.999999999999996 -3.1307917175958904e-31
    vertex -1.3397459621556123 9.999999999999996 -3.1307917175958904e-31
  endloop
endfacet
facet normal -0.0 1.0 -0.0
  outer loop
    vertex 0.0 9.999999999999996 -3.1307917175958904e-31
    vertex -1.3397459621556123 9.999999999999996 1.9999999999999998
    vertex 0.0 9.999999999999996 1.9999999999999998
  endloop
endfacet
facet normal 1.0 -0.0 -0.0
  outer loop
    vertex 0.0 9.999999999999996 -3.1307917175958904e-31
    vertex 0.0 0.0 1.9999999999999998
    vertex 0.0 0.0 -3.1307917175958904e-31
  endloop
endfacet
facet normal 1.0 -0.0 -0.0
  outer loop
    vertex 0.0 0.0 1.9999999999999998
    vertex 0.0 9.999999999999996 -3.1307917175958904e-31
    vertex 0.0 9.999999999999996 1.9999999999999998
  endloop
endfacet
facet normal 3.1572774565530068e-15 -1.0 0.0
  outer loop
    vertex 0.0 0.0 1.9999999999999998
    vertex -1.3397459621556165 -4.229949723821846e-15 -3.1307917175958904e-31
    vertex 0.0 0.0 -3.1307917175958904e-31
  endloop
endfacet
facet normal 3.1572774565530068e-15 -1.0 0.0
  outer loop
    vertex -1.3397459621556165 -4.229949723821846e-15 -3.1307917175958904e-31
    vertex 0.0 0.0 1.9999999999999998
    vertex -1.3397459621556165 -4.229949723821846e-15 1.9999999999999998
  endloop
endfacet
facet normal 0.7933533402912347 -0.6087614290087213 -0.0
  outer loop
    vertex -1.3397459621556165 -4.229949723821846e-15 -3.1307917175958904e-31
    vertex -2.928932188134527 -2.071067811865476 1.9999999999999998
    vertex -2.928932188134527 -2.071067811865476 -3.1307917175958904e-31
  endloop
endfacet
facet normal 0.7933533402912347 -0.6087614290087213 -0.0
  outer loop
    vertex -2.928932188134527 -2.071067811865476 1.9999999999999998
    vertex -1.3397459621556165 -4.229949723821846e-15 -3.1307917175958904e-31
    vertex -1.3397459621556165 -4.229949723821846e-15 1.9999999999999998
  endloop
endfacet
facet normal 0.6087614290087204 -0.7933533402912353 0.0
  outer loop
    vertex -2.928932188134527 -2.071067811865476 1.9999999999999998
    vertex -5.000000000000005 -3.660254037844389 -3.1307917175958904e-31
    vertex -2.928932188134527 -2.071067811865476 -3.1307917175958904e-31
  endloop
endfacet
facet normal 0.6087614290087204 -0.7933533402912353 0.0
  outer loop
    vertex -5.000000000000005 -3.660254037844389 -3.1307917175958904e-31
    vertex -2.928932188134527 -2.071067811865476 1.9999999999999998
    vertex -5.000000000000005 -3.660254037844389 1.9999999999999998
  endloop
endfacet
facet normal 0.3826834323650891 -0.9238795325112871 0.0
  outer loop
    vertex -5.000000000000005 -3.660254037844389 1.9999999999999998
    vertex -7.411809548974798 -4.659258262890683 -3.1307917175958904e-31
    vertex -5.000000000000005 -3.660254037844389 -3.1307917175958904e-31
  endloop
endfacet
facet normal 0.3826834323650891 -0.9238795325112871 0.0
  outer loop
    vertex -7.411809548974798 -4.659258262890683 -3.1307917175958904e-31
    vertex -5.000000000000005 -3.660254037844389 1.9999999999999998
    vertex -7.411809548974798 -4.659258262890683 1.9999999999999998
  endloop
endfacet
facet normal 0.13052619222005132 -0.9914448613738105 0.0
  outer loop
    vertex -7.411809548974798 -4.659258262890683 1.9999999999999998
    vertex -10.000000000000004 -4.999999999999999 -3.1307917175958904e-31
    vertex -7.411809548974798 -4.659258262890683 -3.1307917175958904e-31
  endloop
endfacet
facet normal 0.13052619222005132 -0.9914448613738105 0.0
  outer loop
    vertex -10.000000000000004 -4.999999999999999 -3.1307917175958904e-31
    vertex -7.411809548974798 -4.659258262890683 1.9999999999999998
    vertex -10.000000000000004 -4.999999999999999 1.9999999999999998
  endloop
endfacet
facet normal -0.13052619222005196 -0.9914448613738105 0.0
  outer loop
    vertex -10.000000000000004 -4.999999999999999 1.9999999999999998
    vertex -12.588190451025216 -4.65925826289068 -3.1307917175958904e-31
    vertex -10.000000000000004 -4.999999999999999 -3.1307917175958904e-31
  endloop
endfacet
facet normal -0.13052619222005196 -0.9914448613738105 0.0
  outer loop
    vertex -12.588190451025216 -4.65925826289068 -3.1307917175958904e-31
    vertex -10.000000000000004 -4.999999999999999 1.9999999999999998
    vertex -12.588190451025216 -4.65925826289068 1.9999999999999998
  endloop
endfacet
facet normal -0.3826834323650912 -0.9238795325112862 0.0
  outer loop
    vertex -12.588190451025216 -4.65925826289068 1.9999999999999998
    vertex -15.000000000000007 -3.6602540378443806 -3.1307917175958904e-31
    vertex -12.588190451025216 -4.65925826289068 -3.1307917175958904e-31
  endloop
endfacet
facet normal -0.3826834323650912 -0.9238795325112862 0.0
  outer loop
    vertex -15.000000000000007 -3.6602540378443806 -3.1307917175958904e-31
    vertex -12.588190451025216 -4.65925826289068 1.9999999999999998
    vertex -15.000000000000007 -3.6602540378443806 1.9999999999999998
  endloop
endfacet
facet normal -0.6087614290087201 -0.7933533402912355 0.0
  outer loop
    vertex -15.000000000000007 -3.6602540378443806 1.9999999999999998
    vertex -17.071067811865483 -2.07106781186547 -3.1307917175958904e-31
    vertex -15.000000000000007 -3.6602540378443806 -3.1307917175958904e-31
  endloop
endfacet
facet normal -0.6087614290087201 -0.7933533402912355 0.0
  outer loop
    vertex -17.071067811865483 -2.07106781186547 -3.1307917175958904e-31
    vertex -15.000000000000007 -3.6602540378443806 1.9999999999999998
    vertex -17.071067811865483 -2.07106781186547 1.9999999999999998
  endloop
endfacet
facet normal -0.7933533402912349 -0.608761429008721 0.0
  outer loop
    vertex -18.660254037844393 2.114974861910923e-15 1.9999999999999998
    vertex -17.071067811865483 -2.07106781186547 -3.1307917175958904e-31
    vertex -17.071067811865483 -2.07106781186547 1.9999999999999998
  endloop
endfacet
facet normal -0.7933533402912349 -0.608761429008721 0.0
  outer loop
    vertex -17.071067811865483 -2.07106781186547 -3.1307917175958904e-31
    vertex -18.660254037844393 2.114974861910923e-15 1.9999999999999998
    vertex -18.660254037844393 2.114974861910923e-15 -3.1307917175958904e-31
  endloop
endfacet
facet normal -0.9238795325112871 -0.38268343236508906 0.0
  outer loop
    vertex -19.65925826289069 2.4118095489747966 1.9999999999999998
    vertex -18.660254037844393 2.114974861910923e-15 -3.1307917175958904e-31
    vertex -18.660254037844393 2.114974861910923e-15 1.9999999999999998
  endloop
endfacet
facet normal -0.9238795325112871 -0.38268343236508906 0.0
  outer loop
    vertex -18.660254037844393 2.114974861910923e-15 -3.1307917175958904e-31
    vertex -19.65925826289069 2.4118095489747966 1.9999999999999998
    vertex -19.65925826289069 2.4118095489747966 -3.1307917175958904e-31
  endloop
endfacet
facet normal -0.9914448613738105 -0.13052619222005082 0.0
  outer loop
    vertex -20.000000000000004 5.000000000000002 1.9999999999999998
    vertex -19.65925826289069 2.4118095489747966 -3.1307917175958904e-31
    vertex -19.65925826289069 2.4118095489747966 1.9999999999999998
  endloop
endfacet
facet normal -0.9914448613738105 -0.13052619222005082 0.0
  outer loop
    vertex -19.65925826289069 2.4118095489747966 -3.1307917175958904e-31
    vertex -20.000000000000004 5.000000000000002 1.9999999999999998
    vertex -20.000000000000004 5.000000000000002 -3.1307917175958904e-31
  endloop
endfacet
facet normal -0.9914448613738105 0.13052619222005182 0.0
  outer loop
    vertex -19.659258262890685 7.588190451025207 1.9999999999999998
    vertex -20.000000000000004 5.000000000000002 -3.1307917175958904e-31
    vertex -20.000000000000004 5.000000000000002 1.9999999999999998
  endloop
endfacet
facet normal -0.9914448613738105 0.13052619222005182 0.0
  outer loop
    vertex -20.000000000000004 5.000000000000002 -3.1307917175958904e-31
    vertex -19.659258262890685 7.588190451025207 1.9999999999999998
    vertex -19.659258262890685 7.588190451025207 -3.1307917175958904e-31
  endloop
endfacet
facet normal -0.9238795325112867 0.38268343236509 0.0
  outer loop
    vertex -18.66025403784439 10.000000000000002 1.9999999999999998
    vertex -19.659258262890685 7.588190451025207 -3.1307917175958904e-31
    vertex -19.659258262890685 7.588190451025207 1.9999999999999998
  endloop
endfacet
facet normal -0.9238795325112867 0.38268343236509 0.0
  outer loop
    vertex -19.659258262890685 7.588190451025207 -3.1307917175958904e-31
    vertex -18.66025403784439 10.000000000000002 1.9999999999999998
    vertex -18.66025403784439 10.000000000000002 -3.1307917175958904e-31
  endloop
endfacet
facet normal -0.7933533402912354 0.6087614290087207 0.0
  outer loop
    vertex -17.07106781186548 12.071067811865476 1.9999999999999998
    vertex -18.66025403784439 10.000000000000002 -3.1307917175958904e-31
    vertex -18.66025403784439 10.000000000000002 1.9999999999999998
  endloop
endfacet
facet normal -0.7933533402912354 0.6087614290087207 0.0
  outer loop
    vertex -18.66025403784439 10.000000000000002 -3.1307917175958904e-31
    vertex -17.07106781186548 12.071067811865476 1.9999999999999998
    vertex -17.07106781186548 12.071067811865476 -3.1307917175958904e-31
  endloop
endfacet
facet normal -0.6087614290087215 0.7933533402912345 -0.0
  outer loop
    vertex -17.07106781186548 12.071067811865476 1.9999999999999998
    vertex -15.0 13.66025403784439 -3.1307917175958904e-31
    vertex -17.07106781186548 12.071067811865476 -3.1307917175958904e-31
  endloop
endfacet
facet normal -0.6087614290087215 0.7933533402912345 -0.0
  outer loop
    vertex -15.0 13.66025403784439 -3.1307917175958904e-31
    vertex -17.07106781186548 12.071067811865476 1.9999999999999998
    vertex -15.0 13.66025403784439 1.9999999999999998
  endloop
endfacet
facet normal -0.3826834323650857 0.9238795325112886 -0.0
  outer loop
    vertex -15.0 13.66025403784439 1.9999999999999998
    vertex -12.588190451025207 14.659258262890674 -3.1307917175958904e-31
    vertex -15.0 13.66025403784439 -3.1307917175958904e-31
  endloop
endfacet
facet normal -0.3826834323650857 0.9238795325112886 -0.0
  outer loop
    vertex -12.588190451025207 14.659258262890674 -3.1307917175958904e-31
    vertex -15.0 13.66025403784439 1.9999999999999998
    vertex -12.588190451025207 14.659258262890674 1.9999999999999998
  endloop
endfacet
facet normal -0.13052619222005396 0.9914448613738103 -0.0
  outer loop
    vertex -12.588190451025207 14.659258262890674 1.9999999999999998
    vertex -10.000000000000002 14.999999999999998 -3.1307917175958904e-31
    vertex -12.588190451025207 14.659258262890674 -3.1307917175958904e-31
  endloop
endfacet
facet normal -0.13052619222005396 0.9914448613738103 -0.0
  outer loop
    vertex -10.000000000000002 14.999999999999998 -3.1307917175958904e-31
    vertex -12.588190451025207 14.659258262890674 1.9999999999999998
    vertex -10.000000000000002 14.999999999999998 1.9999999999999998
  endloop
endfacet
facet normal 0.1305261922200538 0.9914448613738103 -0.0
  outer loop
    vertex -10.000000000000002 14.999999999999998 1.9999999999999998
    vertex -7.411809548974792 14.659258262890674 -3.1307917175958904e-31
    vertex -10.000000000000002 14.999999999999998 -3.1307917175958904e-31
  endloop
endfacet
facet normal 0.1305261922200538 0.9914448613738103 -0.0
  outer loop
    vertex -7.411809548974792 14.659258262890674 -3.1307917175958904e-31
    vertex -10.000000000000002 14.999999999999998 1.9999999999999998
    vertex -7.411809548974792 14.659258262890674 1.9999999999999998
  endloop
endfacet
facet normal 0.3826834323650872 0.9238795325112878 -0.0
  outer loop
    vertex -7.411809548974792 14.659258262890674 1.9999999999999998
    vertex -4.999999999999997 13.660254037844386 -3.1307917175958904e-31
    vertex -7.411809548974792 14.659258262890674 -3.1307917175958904e-31
  endloop
endfacet
facet normal 0.3826834323650872 0.9238795325112878 -0.0
  outer loop
    vertex -4.999999999999997 13.660254037844386 -3.1307917175958904e-31
    vertex -7.411809548974792 14.659258262890674 1.9999999999999998
    vertex -4.999999999999997 13.660254037844386 1.9999999999999998
  endloop
endfacet
facet normal 0.6087614290087211 0.793353340291235 -0.0
  outer loop
    vertex -4.999999999999997 13.660254037844386 1.9999999999999998
    vertex -2.928932188134526 12.071067811865476 -3.1307917175958904e-31
    vertex -4.999999999999997 13.660254037844386 -3.1307917175958904e-31
  endloop
endfacet
facet normal 0.6087614290087211 0.793353340291235 -0.0
  outer loop
    vertex -2.928932188134526 12.071067811865476 -3.1307917175958904e-31
    vertex -4.999999999999997 13.660254037844386 1.9999999999999998
    vertex -2.928932188134526 12.071067811865476 1.9999999999999998
  endloop
endfacet
facet normal -0.13052619222005182 0.9914448613738104 -0.0
  outer loop
    vertex -13.092681052222952 2.146162108682497 1.9999999999999991
    vertex -12.129074453592205 2.27302332408393 -2.114974861910923e-15
    vertex -13.092681052222952 2.146162108682497 -2.114974861910923e-15
  endloop
endfacet
facet normal -0.13052619222005182 0.9914448613738104 -0.0
  outer loop
    vertex -12.129074453592205 2.27302332408393 -2.114974861910923e-15
    vertex -13.092681052222952 2.146162108682497 1.9999999999999991
    vertex -12.129074453592205 2.27302332408393 1.9999999999999991
  endloop
endfacet
facet normal -0.38268343236509067 0.9238795325112864 -0.0
  outer loop
    vertex -12.129074453592205 2.27302332408393 1.9999999999999991
    vertex -11.231136052222952 2.644961588106692 -2.114974861910923e-15
    vertex -12.129074453592205 2.27302332408393 -2.114974861910923e-15
  endloop
endfacet
facet normal -0.38268343236509067 0.9238795325112864 -0.0
  outer loop
    vertex -11.231136052222952 2.644961588106692 -2.114974861910923e-15
    vertex -12.129074453592205 2.27302332408393 1.9999999999999991
    vertex -11.231136052222952 2.644961588106692 1.9999999999999991
  endloop
endfacet
facet normal -0.6087614290087209 0.7933533402912349 -0.0
  outer loop
    vertex -11.231136052222952 2.644961588106692 1.9999999999999991
    vertex -10.46005886625513 3.2366299227146738 -2.114974861910923e-15
    vertex -11.231136052222952 2.644961588106692 -2.114974861910923e-15
  endloop
endfacet
facet normal -0.6087614290087209 0.7933533402912349 -0.0
  outer loop
    vertex -10.46005886625513 3.2366299227146738 -2.114974861910923e-15
    vertex -11.231136052222952 2.644961588106692 1.9999999999999991
    vertex -10.46005886625513 3.2366299227146738 1.9999999999999991
  endloop
endfacet
facet normal -0.7933533402912353 0.6087614290087205 -0.0
  outer loop
    vertex -9.868390531647146 4.007707108682499 1.9999999999999991
    vertex -10.46005886625513 3.2366299227146738 -2.114974861910923e-15
    vertex -10.46005886625513 3.2366299227146738 1.9999999999999991
  endloop
endfacet
facet normal -0.7933533402912353 0.6087614290087205 -0.0
  outer loop
    vertex -10.46005886625513 3.2366299227146738 -2.114974861910923e-15
    vertex -9.868390531647146 4.007707108682499 1.9999999999999991
    vertex -9.868390531647146 4.007707108682499 -2.114974861910923e-15
  endloop
endfacet
facet normal -0.9238795325112871 0.3826834323650889 -0.0
  outer loop
    vertex -9.496452267624386 4.905645510051754 1.9999999999999991
    vertex -9.868390531647146 4.007707108682499 -2.114974861910923e-15
    vertex -9.868390531647146 4.007707108682499 1.9999999999999991
  endloop
endfacet
facet normal -0.9238795325112871 0.3826834323650889 -0.0
  outer loop
    vertex -9.868390531647146 4.007707108682499 -2.114974861910923e-15
    vertex -9.496452267624386 4.905645510051754 1.9999999999999991
    vertex -9.496452267624386 4.905645510051754 -2.114974861910923e-15
  endloop
endfacet
facet normal -0.9914448613738105 0.13052619222005096 -0.0
  outer loop
    vertex -9.369591052222955 5.869252108682497 1.9999999999999991
    vertex -9.496452267624386 4.905645510051754 -2.114974861910923e-15
    vertex -9.496452267624386 4.905645510051754 1.9999999999999991
  endloop
endfacet
facet normal -0.9914448613738105 0.13052619222005096 -0.0
  outer loop
    vertex -9.496452267624386 4.905645510051754 -2.114974861910923e-15
    vertex -9.369591052222955 5.869252108682497 1.9999999999999991
    vertex -9.369591052222955 5.869252108682497 -2.114974861910923e-15
  endloop
endfacet
facet normal -0.9914448613738106 -0.1305261922200506 -0.0
  outer loop
    vertex -9.496452267624386 6.8328587073132425 1.9999999999999991
    vertex -9.369591052222955 5.869252108682497 -2.114974861910923e-15
    vertex -9.369591052222955 5.869252108682497 1.9999999999999991
  endloop
endfacet
facet normal -0.9914448613738106 -0.1305261922200506 -0.0
  outer loop
    vertex -9.369591052222955 5.869252108682497 -2.114974861910923e-15
    vertex -9.496452267624386 6.8328587073132425 1.9999999999999991
    vertex -9.496452267624386 6.8328587073132425 -2.114974861910923e-15
  endloop
endfacet
facet normal -0.9238795325112861 -0.3826834323650914 -0.0
  outer loop
    vertex -9.86839053164715 7.730797108682498 1.9999999999999991
    vertex -9.496452267624386 6.8328587073132425 -2.114974861910923e-15
    vertex -9.496452267624386 6.8328587073132425 1.9999999999999991
  endloop
endfacet
facet normal -0.9238795325112861 -0.3826834323650914 -0.0
  outer loop
    vertex -9.496452267624386 6.8328587073132425 -2.114974861910923e-15
    vertex -9.86839053164715 7.730797108682498 1.9999999999999991
    vertex -9.86839053164715 7.730797108682498 -2.114974861910923e-15
  endloop
endfacet
facet normal -0.7933533402912353 -0.6087614290087208 -0.0
  outer loop
    vertex -10.460058866255132 8.501874294650321 1.9999999999999991
    vertex -9.86839053164715 7.730797108682498 -2.114974861910923e-15
    vertex -9.86839053164715 7.730797108682498 1.9999999999999991
  endloop
endfacet
facet normal -0.7933533402912353 -0.6087614290087208 -0.0
  outer loop
    vertex -9.86839053164715 7.730797108682498 -2.114974861910923e-15
    vertex -10.460058866255132 8.501874294650321 1.9999999999999991
    vertex -10.460058866255132 8.501874294650321 -2.114974861910923e-15
  endloop
endfacet
facet normal -0.6087614290087205 -0.7933533402912354 -0.0
  outer loop
    vertex -10.460058866255132 8.501874294650321 1.9999999999999991
    vertex -11.231136052222952 9.093542629258302 -2.114974861910923e-15
    vertex -10.460058866255132 8.501874294650321 -2.114974861910923e-15
  endloop
endfacet
facet normal -0.6087614290087205 -0.7933533402912354 -0.0
  outer loop
    vertex -11.231136052222952 9.093542629258302 -2.114974861910923e-15
    vertex -10.460058866255132 8.501874294650321 1.9999999999999991
    vertex -11.231136052222952 9.093542629258302 1.9999999999999991
  endloop
endfacet
facet normal -0.3826834323650897 -0.923879532511287 -0.0
  outer loop
    vertex -11.231136052222952 9.093542629258302 1.9999999999999991
    vertex -12.12907445359221 9.465480893281065 -2.114974861910923e-15
    vertex -11.231136052222952 9.093542629258302 -2.114974861910923e-15
  endloop
endfacet
facet normal -0.3826834323650897 -0.923879532511287 -0.0
  outer loop
    vertex -12.12907445359221 9.465480893281065 -2.114974861910923e-15
    vertex -11.231136052222952 9.093542629258302 1.9999999999999991
    vertex -12.12907445359221 9.465480893281065 1.9999999999999991
  endloop
endfacet
facet normal -0.13052619222005096 -0.9914448613738105 -0.0
  outer loop
    vertex -12.12907445359221 9.465480893281065 1.9999999999999991
    vertex -13.092681052222952 9.592342108682496 -2.114974861910923e-15
    vertex -12.12907445359221 9.465480893281065 -2.114974861910923e-15
  endloop
endfacet
facet normal -0.13052619222005096 -0.9914448613738105 -0.0
  outer loop
    vertex -13.092681052222952 9.592342108682496 -2.114974861910923e-15
    vertex -12.12907445359221 9.465480893281065 1.9999999999999991
    vertex -13.092681052222952 9.592342108682496 1.9999999999999991
  endloop
endfacet
facet normal 0.13052619222005224 -0.9914448613738105 -0.0
  outer loop
    vertex -13.092681052222952 9.592342108682496 1.9999999999999991
    vertex -14.056287650853697 9.465480893281063 -2.114974861910923e-15
    vertex -13.092681052222952 9.592342108682496 -2.114974861910923e-15
  endloop
endfacet
facet normal 0.13052619222005224 -0.9914448613738105 -0.0
  outer loop
    vertex -14.056287650853697 9.465480893281063 -2.114974861910923e-15
    vertex -13.092681052222952 9.592342108682496 1.9999999999999991
    vertex -14.056287650853697 9.465480893281063 1.9999999999999991
  endloop
endfacet
facet normal 0.3826834323650897 -0.923879532511287 -0.0
  outer loop
    vertex -14.056287650853697 9.465480893281063 1.9999999999999991
    vertex -14.954226052222953 9.093542629258302 -2.114974861910923e-15
    vertex -14.056287650853697 9.465480893281063 -2.114974861910923e-15
  endloop
endfacet
facet normal 0.3826834323650897 -0.923879532511287 -0.0
  outer loop
    vertex -14.954226052222953 9.093542629258302 -2.114974861910923e-15
    vertex -14.056287650853697 9.465480893281063 1.9999999999999991
    vertex -14.954226052222953 9.093542629258302 1.9999999999999991
  endloop
endfacet
facet normal 0.6087614290087214 -0.7933533402912347 -0.0
  outer loop
    vertex -14.954226052222953 9.093542629258302 1.9999999999999991
    vertex -15.725303238190776 8.50187429465032 -2.114974861910923e-15
    vertex -14.954226052222953 9.093542629258302 -2.114974861910923e-15
  endloop
endfacet
facet normal 0.6087614290087214 -0.7933533402912347 -0.0
  outer loop
    vertex -15.725303238190776 8.50187429465032 -2.114974861910923e-15
    vertex -14.954226052222953 9.093542629258302 1.9999999999999991
    vertex -15.725303238190776 8.50187429465032 1.9999999999999991
  endloop
endfacet
facet normal 0.7933533402912345 -0.6087614290087217 -0.0
  outer loop
    vertex -15.725303238190776 8.50187429465032 -2.114974861910923e-15
    vertex -16.31697157279876 7.730797108682495 1.9999999999999991
    vertex -16.31697157279876 7.730797108682495 -2.114974861910923e-15
  endloop
endfacet
facet normal 0.7933533402912345 -0.6087614290087217 -0.0
  outer loop
    vertex -16.31697157279876 7.730797108682495 1.9999999999999991
    vertex -15.725303238190776 8.50187429465032 -2.114974861910923e-15
    vertex -15.725303238190776 8.50187429465032 1.9999999999999991
  endloop
endfacet
facet normal 0.9238795325112871 -0.3826834323650889 -0.0
  outer loop
    vertex -16.31697157279876 7.730797108682495 -2.114974861910923e-15
    vertex -16.68890983682152 6.83285870731324 1.9999999999999991
    vertex -16.68890983682152 6.83285870731324 -2.114974861910923e-15
  endloop
endfacet
facet normal 0.9238795325112871 -0.3826834323650889 -0.0
  outer loop
    vertex -16.68890983682152 6.83285870731324 1.9999999999999991
    vertex -16.31697157279876 7.730797108682495 -2.114974861910923e-15
    vertex -16.31697157279876 7.730797108682495 1.9999999999999991
  endloop
endfacet
facet normal 0.9914448613738105 -0.13052619222005088 -0.0
  outer loop
    vertex -16.68890983682152 6.83285870731324 -2.114974861910923e-15
    vertex -16.815771052222953 5.869252108682496 1.9999999999999991
    vertex -16.815771052222953 5.869252108682496 -2.114974861910923e-15
  endloop
endfacet
facet normal 0.9914448613738105 -0.13052619222005088 -0.0
  outer loop
    vertex -16.815771052222953 5.869252108682496 1.9999999999999991
    vertex -16.68890983682152 6.83285870731324 -2.114974861910923e-15
    vertex -16.68890983682152 6.83285870731324 1.9999999999999991
  endloop
endfacet
facet normal 0.9914448613738107 0.1305261922200507 0.0
  outer loop
    vertex -16.815771052222953 5.869252108682496 -2.114974861910923e-15
    vertex -16.68890983682152 4.905645510051752 1.9999999999999991
    vertex -16.68890983682152 4.905645510051752 -2.114974861910923e-15
  endloop
endfacet
facet normal 0.9914448613738107 0.1305261922200507 0.0
  outer loop
    vertex -16.68890983682152 4.905645510051752 1.9999999999999991
    vertex -16.815771052222953 5.869252108682496 -2.114974861910923e-15
    vertex -16.815771052222953 5.869252108682496 1.9999999999999991
  endloop
endfacet
facet normal 0.9238795325112871 0.3826834323650889 0.0
  outer loop
    vertex -16.68890983682152 4.905645510051752 -2.114974861910923e-15
    vertex -16.31697157279876 4.007707108682497 1.9999999999999991
    vertex -16.31697157279876 4.007707108682497 -2.114974861910923e-15
  endloop
endfacet
facet normal 0.9238795325112871 0.3826834323650889 0.0
  outer loop
    vertex -16.31697157279876 4.007707108682497 1.9999999999999991
    vertex -16.68890983682152 4.905645510051752 -2.114974861910923e-15
    vertex -16.68890983682152 4.905645510051752 1.9999999999999991
  endloop
endfacet
facet normal 0.7933533402912345 0.6087614290087217 0.0
  outer loop
    vertex -16.31697157279876 4.007707108682497 -2.114974861910923e-15
    vertex -15.725303238190776 3.2366299227146733 1.9999999999999991
    vertex -15.725303238190776 3.2366299227146733 -2.114974861910923e-15
  endloop
endfacet
facet normal 0.7933533402912345 0.6087614290087217 0.0
  outer loop
    vertex -15.725303238190776 3.2366299227146733 1.9999999999999991
    vertex -16.31697157279876 4.007707108682497 -2.114974861910923e-15
    vertex -16.31697157279876 4.007707108682497 1.9999999999999991
  endloop
endfacet
facet normal 0.6087614290087209 0.7933533402912349 0.0
  outer loop
    vertex -15.725303238190776 3.2366299227146733 1.9999999999999991
    vertex -14.954226052222953 2.6449615881066912 -2.114974861910923e-15
    vertex -15.725303238190776 3.2366299227146733 -2.114974861910923e-15
  endloop
endfacet
facet normal 0.6087614290087209 0.7933533402912349 0.0
  outer loop
    vertex -14.954226052222953 2.6449615881066912 -2.114974861910923e-15
    vertex -15.725303238190776 3.2366299227146733 1.9999999999999991
    vertex -14.954226052222953 2.6449615881066912 1.9999999999999991
  endloop
endfacet
facet normal 0.3826834323650897 0.923879532511287 0.0
  outer loop
    vertex -14.954226052222953 2.6449615881066912 1.9999999999999991
    vertex -14.056287650853697 2.2730233240839297 -2.114974861910923e-15
    vertex -14.954226052222953 2.6449615881066912 -2.114974861910923e-15
  endloop
endfacet
facet normal 0.3826834323650897 0.923879532511287 0.0
  outer loop
    vertex -14.056287650853697 2.2730233240839297 -2.114974861910923e-15
    vertex -14.954226052222953 2.6449615881066912 1.9999999999999991
    vertex -14.056287650853697 2.2730233240839297 1.9999999999999991
  endloop
endfacet
facet normal 0.1305261922200515 0.9914448613738105 0.0
  outer loop
    vertex -14.056287650853697 2.2730233240839297 1.9999999999999991
    vertex -13.092681052222952 2.146162108682497 -2.114974861910923e-15
    vertex -14.056287650853697 2.2730233240839297 -2.114974861910923e-15
  endloop
endfacet
facet normal 0.1305261922200515 0.9914448613738105 0.0
  outer loop
    vertex -13.092681052222952 2.146162108682497 -2.114974861910923e-15
    vertex -14.056287650853697 2.2730233240839297 1.9999999999999991
    vertex -13.092681052222952 2.146162108682497 1.9999999999999991
  endloop
endfacet
endsolid Untitled-5a23a588
