solid Untitled-5a239e96
facet normal -1.0 -4.142819740242831e-16 8.633625472344562e-15
  outer loop
    vertex 0.0 0.7456859999999998 1.9999999999999996
    vertex 0.0 0.0 0.0
    vertex 0.0 0.0 1.9999999999999996
  endloop
endfacet
facet normal -1.0 -4.142819740242831e-16 8.633625472344562e-15
  outer loop
    vertex 0.0 0.0 0.0
    vertex 0.0 0.7456859999999998 1.9999999999999996
    vertex 0.0 0.8699239541531151 1.2380148988759503
  endloop
endfacet
facet normal -1.0 -4.142819740242831e-16 8.633625472344562e-15
  outer loop
    vertex 0.0 0.0 0.0
    vertex 0.0 0.8699239541531151 1.2380148988759503
    vertex 0.0 1.9999999999999998 -8.81239525796218e-16
  endloop
endfacet
facet normal -1.0 -4.142819740242831e-16 8.633625472344562e-15
  outer loop
    vertex 0.0 1.9999999999999998 -8.81239525796218e-16
    vertex 0.0 0.8699239541531151 1.2380148988759503
    vertex 0.0 1.6651944638760632 1.2380148988759545
  endloop
endfacet
facet normal -1.0 -4.142819740242831e-16 8.633625472344562e-15
  outer loop
    vertex 0.0 1.9999999999999998 -8.81239525796218e-16
    vertex 0.0 1.6651944638760632 1.2380148988759545
    vertex -4.406197628981089e-17 1.764123495605687 1.9999999999999858
  endloop
endfacet
facet normal -1.0 -4.142819740242831e-16 8.633625472344562e-15
  outer loop
    vertex 0.0 1.9999999999999998 -8.81239525796218e-16
    vertex -4.406197628981089e-17 1.764123495605687 1.9999999999999858
    vertex 0.0 2.040337105079911 1.129123226692759
  endloop
endfacet
facet normal -1.0 -4.142819740242831e-16 8.633625472344562e-15
  outer loop
    vertex 0.0 2.040337105079911 1.129123226692759
    vertex -4.406197628981089e-17 1.764123495605687 1.9999999999999858
    vertex 0.0 2.7767722450988277 1.9999999999999984
  endloop
endfacet
facet normal -1.0 -4.142819740242831e-16 8.633625472344562e-15
  outer loop
    vertex 0.0 2.040337105079911 1.129123226692759
    vertex 0.0 2.7767722450988277 1.9999999999999984
    vertex -6.772325755743935e-14 2.275258263868058 1.3801758418725223
  endloop
endfacet
facet normal -1.0 -4.142819740242831e-16 8.633625472344562e-15
  outer loop
    vertex -6.772325755743935e-14 2.275258263868058 1.3801758418725223
    vertex 0.0 2.7767722450988277 1.9999999999999984
    vertex 0.0 2.7005704467866343 1.3801758418725212
  endloop
endfacet
facet normal -1.0 -4.142819740242831e-16 8.633625472344562e-15
  outer loop
    vertex 0.0 2.7005704467866343 1.3801758418725212
    vertex 0.0 2.7767722450988277 1.9999999999999984
    vertex -6.767919558114953e-14 3.0326775039018132 0.9559460536384009
  endloop
endfacet
facet normal -1.0 -4.142819740242831e-16 8.633625472344562e-15
  outer loop
    vertex -6.767919558114953e-14 3.0326775039018132 0.9559460536384009
    vertex 0.0 2.7767722450988277 1.9999999999999984
    vertex 3.379553581428496e-14 3.043335540219624 1.5418662147935267
  endloop
endfacet
facet normal -1.0 -4.142819740242831e-16 8.633625472344562e-15
  outer loop
    vertex -6.767919558114953e-14 3.0326775039018132 0.9559460536384009
    vertex 3.379553581428496e-14 3.043335540219624 1.5418662147935267
    vertex -1.2407852523210746e-13 4.479772318352688 0.9559460536383944
  endloop
endfacet
facet normal -1.0 -4.142819740242831e-16 8.633625472344562e-15
  outer loop
    vertex -1.2407852523210746e-13 4.479772318352688 0.9559460536383944
    vertex 3.379553581428496e-14 3.043335540219624 1.5418662147935267
    vertex 3.379553581428496e-14 3.5878205995168866 1.5418662147935254
  endloop
endfacet
facet normal -1.0 -4.142819740242831e-16 8.633625472344562e-15
  outer loop
    vertex -1.2407852523210746e-13 4.479772318352688 0.9559460536383944
    vertex 3.379553581428496e-14 3.5878205995168866 1.5418662147935254
    vertex 3.379553581428496e-14 4.094897922500171 2.0000000000000084
  endloop
endfacet
facet normal -1.0 -4.142819740242831e-16 8.633625472344562e-15
  outer loop
    vertex -1.2407852523210746e-13 4.479772318352688 0.9559460536383944
    vertex 3.379553581428496e-14 4.094897922500171 2.0000000000000084
    vertex 2.2559731860383176e-14 4.999999999999999 2.005277894265354
  endloop
endfacet
facet normal -1.0 -4.142819740242831e-16 8.633625472344562e-15
  outer loop
    vertex -1.2407852523210746e-13 4.479772318352688 0.9559460536383944
    vertex 2.2559731860383176e-14 4.999999999999999 2.005277894265354
    vertex 3.379553581428496e-14 4.985434043213764 0.006249584139437147
  endloop
endfacet
facet normal 1.0 4.142819740242831e-16 -8.633625472344562e-15
  outer loop
    vertex 0.9999999999999999 2.0 -9.514864998140778e-15
    vertex 0.9999999999999999 4.1428197402428303e-16 1.9999999999999911
    vertex 0.9999999999999999 4.1428197402428303e-16 -8.63362547234456e-15
  endloop
endfacet
facet normal 1.0 4.142819740242831e-16 -8.633625472344562e-15
  outer loop
    vertex 0.9999999999999999 4.1428197402428303e-16 1.9999999999999911
    vertex 0.9999999999999999 2.0 -9.514864998140778e-15
    vertex 0.9999999999999999 0.8699239541531154 1.2380148988759416
  endloop
endfacet
facet normal 1.0 4.142819740242831e-16 -8.633625472344562e-15
  outer loop
    vertex 0.9999999999999999 4.1428197402428303e-16 1.9999999999999911
    vertex 0.9999999999999999 0.8699239541531154 1.2380148988759416
    vertex 0.9999999999999999 0.7456860000000003 1.9999999999999911
  endloop
endfacet
facet normal 1.0 4.142819740242831e-16 -8.633625472344562e-15
  outer loop
    vertex 0.9999999999999999 0.8699239541531154 1.2380148988759416
    vertex 0.9999999999999999 2.0 -9.514864998140778e-15
    vertex 0.9999999999999999 1.6651944638760636 1.2380148988759458
  endloop
endfacet
facet normal 1.0 4.142819740242831e-16 -8.633625472344562e-15
  outer loop
    vertex 0.9999999999999999 1.6651944638760636 1.2380148988759458
    vertex 0.9999999999999999 2.0 -9.514864998140778e-15
    vertex 0.9999999999999999 1.7641234956056875 1.9999999999999774
  endloop
endfacet
facet normal 1.0 4.142819740242831e-16 -8.633625472344562e-15
  outer loop
    vertex 0.9999999999999999 1.7641234956056875 1.9999999999999774
    vertex 0.9999999999999999 2.0 -9.514864998140778e-15
    vertex 0.9999999999999999 2.0403371050799115 1.1291232266927504
  endloop
endfacet
facet normal 1.0 4.142819740242831e-16 -8.633625472344562e-15
  outer loop
    vertex 0.9999999999999999 1.7641234956056875 1.9999999999999774
    vertex 0.9999999999999999 2.0403371050799115 1.1291232266927504
    vertex 0.9999999999999999 2.7767722450988277 1.99999999999999
  endloop
endfacet
facet normal 1.0 4.142819740242831e-16 -8.633625472344562e-15
  outer loop
    vertex 0.9999999999999999 2.7767722450988277 1.99999999999999
    vertex 0.9999999999999999 2.0403371050799115 1.1291232266927504
    vertex 0.9999999999999323 2.2752582638680585 1.3801758418725139
  endloop
endfacet
facet normal 1.0 4.142819740242831e-16 -8.633625472344562e-15
  outer loop
    vertex 0.9999999999999999 2.7767722450988277 1.99999999999999
    vertex 0.9999999999999323 2.2752582638680585 1.3801758418725139
    vertex 0.9999999999999999 2.7005704467866347 1.3801758418725125
  endloop
endfacet
facet normal 1.0 4.142819740242831e-16 -8.633625472344562e-15
  outer loop
    vertex 0.9999999999999999 2.7767722450988277 1.99999999999999
    vertex 0.9999999999999999 2.7005704467866347 1.3801758418725125
    vertex 0.9999999999999323 3.0326775039018132 0.9559460536383922
  endloop
endfacet
facet normal 1.0 4.142819740242831e-16 -8.633625472344562e-15
  outer loop
    vertex 0.9999999999999999 2.7767722450988277 1.99999999999999
    vertex 0.9999999999999323 3.0326775039018132 0.9559460536383922
    vertex 1.0000000000000338 3.0433355402196245 1.5418662147935183
  endloop
endfacet
facet normal 1.0 4.142819740242831e-16 -8.633625472344562e-15
  outer loop
    vertex 1.0000000000000338 3.0433355402196245 1.5418662147935183
    vertex 0.9999999999999323 3.0326775039018132 0.9559460536383922
    vertex 0.9999999999998759 4.479772318352688 0.9559460536383857
  endloop
endfacet
facet normal 1.0 4.142819740242831e-16 -8.633625472344562e-15
  outer loop
    vertex 1.0000000000000338 3.0433355402196245 1.5418662147935183
    vertex 0.9999999999998759 4.479772318352688 0.9559460536383857
    vertex 1.0000000000000338 3.587820599516887 1.5418662147935167
  endloop
endfacet
facet normal 1.0 4.142819740242831e-16 -8.633625472344562e-15
  outer loop
    vertex 1.0000000000000338 3.587820599516887 1.5418662147935167
    vertex 0.9999999999998759 4.479772318352688 0.9559460536383857
    vertex 1.0000000000000338 4.094897922500171 1.9999999999999998
  endloop
endfacet
facet normal 1.0 4.142819740242831e-16 -8.633625472344562e-15
  outer loop
    vertex 1.0000000000000338 4.094897922500171 1.9999999999999998
    vertex 0.9999999999998759 4.479772318352688 0.9559460536383857
    vertex 1.0000000000000224 5.0 2.0052778942653458
  endloop
endfacet
facet normal 1.0 4.142819740242831e-16 -8.633625472344562e-15
  outer loop
    vertex 1.0000000000000224 5.0 2.0052778942653458
    vertex 0.9999999999998759 4.479772318352688 0.9559460536383857
    vertex 1.0000000000000338 4.985434043213765 0.006249584139428513
  endloop
endfacet
facet normal -8.63362547234456e-15 -4.506389232945371e-15 -1.0
  outer loop
    vertex 0.9999999999998759 4.479772318352688 0.9559460536383857
    vertex -6.767919558114953e-14 3.0326775039018132 0.9559460536384009
    vertex -1.2407852523210746e-13 4.479772318352688 0.9559460536383944
  endloop
endfacet
facet normal -8.63362547234456e-15 -4.506389232945371e-15 -1.0
  outer loop
    vertex -6.767919558114953e-14 3.0326775039018132 0.9559460536384009
    vertex 0.9999999999998759 4.479772318352688 0.9559460536383857
    vertex 0.9999999999999323 3.0326775039018132 0.9559460536383922
  endloop
endfacet
facet normal -3.691937105599854e-15 -0.8826780862958966 -0.46997808031121396
  outer loop
    vertex 0.9999999999998759 4.479772318352688 0.9559460536383857
    vertex 3.379553581428496e-14 4.985434043213764 0.006249584139437147
    vertex 1.0000000000000338 4.985434043213765 0.006249584139428513
  endloop
endfacet
facet normal -3.691937105599854e-15 -0.8826780862958966 -0.46997808031121396
  outer loop
    vertex 3.379553581428496e-14 4.985434043213764 0.006249584139437147
    vertex 0.9999999999998759 4.479772318352688 0.9559460536383857
    vertex -1.2407852523210746e-13 4.479772318352688 0.9559460536383944
  endloop
endfacet
facet normal -4.77178378516001e-16 0.9999734543810349 -0.007286325086100964
  outer loop
    vertex 3.379553581428496e-14 4.985434043213764 0.006249584139437147
    vertex 1.0000000000000224 5.0 2.0052778942653458
    vertex 1.0000000000000338 4.985434043213765 0.006249584139428513
  endloop
endfacet
facet normal -4.77178378516001e-16 0.9999734543810349 -0.007286325086100964
  outer loop
    vertex 1.0000000000000224 5.0 2.0052778942653458
    vertex 3.379553581428496e-14 4.985434043213764 0.006249584139437147
    vertex 2.2559731860383176e-14 4.999999999999999 2.005277894265354
  endloop
endfacet
facet normal 8.635894437284033e-15 -0.005831170499830925 0.9999829985807769
  outer loop
    vertex 3.379553581428496e-14 4.094897922500171 2.0000000000000084
    vertex 1.0000000000000224 5.0 2.0052778942653458
    vertex 2.2559731860383176e-14 4.999999999999999 2.005277894265354
  endloop
endfacet
facet normal 8.635894437284033e-15 -0.005831170499830925 0.9999829985807769
  outer loop
    vertex 1.0000000000000224 5.0 2.0052778942653458
    vertex 3.379553581428496e-14 4.094897922500171 2.0000000000000084
    vertex 1.0000000000000338 4.094897922500171 1.9999999999999998
  endloop
endfacet
facet normal 6.6839593353875815e-15 -0.6703897740216141 0.7420091312694536
  outer loop
    vertex 1.0000000000000338 3.587820599516887 1.5418662147935167
    vertex 3.379553581428496e-14 4.094897922500171 2.0000000000000084
    vertex 3.379553581428496e-14 3.5878205995168866 1.5418662147935254
  endloop
endfacet
facet normal 6.6839593353875815e-15 -0.6703897740216141 0.7420091312694536
  outer loop
    vertex 3.379553581428496e-14 4.094897922500171 2.0000000000000084
    vertex 1.0000000000000338 3.587820599516887 1.5418662147935167
    vertex 1.0000000000000338 4.094897922500171 1.9999999999999998
  endloop
endfacet
facet normal 8.63362547234456e-15 2.589571958308165e-15 1.0
  outer loop
    vertex 1.0000000000000338 3.0433355402196245 1.5418662147935183
    vertex 3.379553581428496e-14 3.5878205995168866 1.5418662147935254
    vertex 3.379553581428496e-14 3.043335540219624 1.5418662147935267
  endloop
endfacet
facet normal 8.63362547234456e-15 2.589571958308165e-15 1.0
  outer loop
    vertex 3.379553581428496e-14 3.5878205995168866 1.5418662147935254
    vertex 1.0000000000000338 3.0433355402196245 1.5418662147935183
    vertex 1.0000000000000338 3.587820599516887 1.5418662147935167
  endloop
endfacet
facet normal 3.9838700997113e-15 0.8643378985774387 0.5029115201332511
  outer loop
    vertex 3.379553581428496e-14 3.043335540219624 1.5418662147935267
    vertex 0.9999999999999999 2.7767722450988277 1.99999999999999
    vertex 1.0000000000000338 3.0433355402196245 1.5418662147935183
  endloop
endfacet
facet normal 3.9838700997113e-15 0.8643378985774387 0.5029115201332511
  outer loop
    vertex 0.9999999999999999 2.7767722450988277 1.99999999999999
    vertex 3.379553581428496e-14 3.043335540219624 1.5418662147935267
    vertex 0.0 2.7767722450988277 1.9999999999999984
  endloop
endfacet
facet normal 8.633625472344566e-15 -1.2531343348636108e-14 1.0
  outer loop
    vertex 0.9999999999999999 1.7641234956056875 1.9999999999999774
    vertex 0.0 2.7767722450988277 1.9999999999999984
    vertex -4.406197628981089e-17 1.764123495605687 1.9999999999999858
  endloop
endfacet
facet normal 8.633625472344566e-15 -1.2531343348636108e-14 1.0
  outer loop
    vertex 0.0 2.7767722450988277 1.9999999999999984
    vertex 0.9999999999999999 1.7641234956056875 1.9999999999999774
    vertex 0.9999999999999999 2.7767722450988277 1.99999999999999
  endloop
endfacet
facet normal 1.5224140150229064e-15 -0.9916770712364843 0.12875009275270008
  outer loop
    vertex 0.9999999999999999 1.7641234956056875 1.9999999999999774
    vertex 0.0 1.6651944638760632 1.2380148988759545
    vertex 0.9999999999999999 1.6651944638760636 1.2380148988759458
  endloop
endfacet
facet normal 1.5224140150229064e-15 -0.9916770712364843 0.12875009275270008
  outer loop
    vertex 0.0 1.6651944638760632 1.2380148988759545
    vertex 0.9999999999999999 1.7641234956056875 1.9999999999999774
    vertex -4.406197628981089e-17 1.764123495605687 1.9999999999999858
  endloop
endfacet
facet normal 8.633625472344563e-15 -5.3188816536092255e-15 1.0
  outer loop
    vertex 0.9999999999999999 0.8699239541531154 1.2380148988759416
    vertex 0.0 1.6651944638760632 1.2380148988759545
    vertex 0.0 0.8699239541531151 1.2380148988759503
  endloop
endfacet
facet normal 8.633625472344563e-15 -5.3188816536092255e-15 1.0
  outer loop
    vertex 0.0 1.6651944638760632 1.2380148988759545
    vertex 0.9999999999999999 0.8699239541531154 1.2380148988759416
    vertex 0.9999999999999999 1.6651944638760636 1.2380148988759458
  endloop
endfacet
facet normal 9.804421297339575e-16 0.9869674167432697 0.16092022336274903
  outer loop
    vertex 0.0 0.8699239541531151 1.2380148988759503
    vertex 0.9999999999999999 0.7456860000000003 1.9999999999999911
    vertex 0.9999999999999999 0.8699239541531154 1.2380148988759416
  endloop
endfacet
facet normal 9.804421297339575e-16 0.9869674167432697 0.16092022336274903
  outer loop
    vertex 0.9999999999999999 0.7456860000000003 1.9999999999999911
    vertex 0.0 0.8699239541531151 1.2380148988759503
    vertex 0.0 0.7456859999999998 1.9999999999999996
  endloop
endfacet
facet normal 8.633625472344563e-15 0.0 1.0
  outer loop
    vertex 0.9999999999999999 4.1428197402428303e-16 1.9999999999999911
    vertex 0.0 0.7456859999999998 1.9999999999999996
    vertex 0.0 0.0 1.9999999999999996
  endloop
endfacet
facet normal 8.633625472344563e-15 0.0 1.0
  outer loop
    vertex 0.0 0.7456859999999998 1.9999999999999996
    vertex 0.9999999999999999 4.1428197402428303e-16 1.9999999999999911
    vertex 0.9999999999999999 0.7456860000000003 1.9999999999999911
  endloop
endfacet
facet normal 4.142819740242831e-16 -1.0 0.0
  outer loop
    vertex 0.9999999999999999 4.1428197402428303e-16 1.9999999999999911
    vertex 0.0 0.0 0.0
    vertex 0.9999999999999999 4.1428197402428303e-16 -8.63362547234456e-15
  endloop
endfacet
facet normal 4.142819740242831e-16 -1.0 0.0
  outer loop
    vertex 0.0 0.0 0.0
    vertex 0.9999999999999999 4.1428197402428303e-16 1.9999999999999911
    vertex 0.0 0.0 1.9999999999999996
  endloop
endfacet
facet normal -8.633625472344562e-15 -4.406197628981091e-16 -1.0
  outer loop
    vertex 0.9999999999999999 2.0 -9.514864998140778e-15
    vertex 0.0 0.0 0.0
    vertex 0.0 1.9999999999999998 -8.81239525796218e-16
  endloop
endfacet
facet normal -8.633625472344562e-15 -4.406197628981091e-16 -1.0
  outer loop
    vertex 0.0 0.0 0.0
    vertex 0.9999999999999999 2.0 -9.514864998140778e-15
    vertex 0.9999999999999999 4.1428197402428303e-16 -8.63362547234456e-15
  endloop
endfacet
facet normal -7.222512271984618e-16 0.999362498332259 -0.03570149754710519
  outer loop
    vertex 0.0 1.9999999999999998 -8.81239525796218e-16
    vertex 0.9999999999999999 2.0403371050799115 1.1291232266927504
    vertex 0.9999999999999999 2.0 -9.514864998140778e-15
  endloop
endfacet
facet normal -7.222512271984618e-16 0.999362498332259 -0.03570149754710519
  outer loop
    vertex 0.9999999999999999 2.0403371050799115 1.1291232266927504
    vertex 0.0 1.9999999999999998 -8.81239525796218e-16
    vertex 0.0 2.040337105079911 1.129123226692759
  endloop
endfacet
facet normal -6.201498599804641e-15 0.7301763853945414 -0.683258696404343
  outer loop
    vertex 0.0 2.040337105079911 1.129123226692759
    vertex 0.9999999999999323 2.2752582638680585 1.3801758418725139
    vertex 0.9999999999999999 2.0403371050799115 1.1291232266927504
  endloop
endfacet
facet normal -6.201498599804641e-15 0.7301763853945414 -0.683258696404343
  outer loop
    vertex 0.9999999999999323 2.2752582638680585 1.3801758418725139
    vertex 0.0 2.040337105079911 1.129123226692759
    vertex -6.772325755743935e-14 2.275258263868058 1.3801758418725223
  endloop
endfacet
facet normal -8.633625472344562e-15 -2.900775913936877e-15 -1.0
  outer loop
    vertex 0.0 2.7005704467866343 1.3801758418725212
    vertex 0.9999999999999323 2.2752582638680585 1.3801758418725139
    vertex -6.772325755743935e-14 2.275258263868058 1.3801758418725223
  endloop
endfacet
facet normal -8.633625472344562e-15 -2.900775913936877e-15 -1.0
  outer loop
    vertex 0.9999999999999323 2.2752582638680585 1.3801758418725139
    vertex 0.0 2.7005704467866343 1.3801758418725212
    vertex 0.9999999999999999 2.7005704467866347 1.3801758418725125
  endloop
endfacet
facet normal -4.995768365146566e-15 -0.787413883983381 -0.6164246712374568
  outer loop
    vertex 0.9999999999999999 2.7005704467866347 1.3801758418725125
    vertex -6.767919558114953e-14 3.0326775039018132 0.9559460536384009
    vertex 0.9999999999999323 3.0326775039018132 0.9559460536383922
  endloop
endfacet
facet normal -4.995768365146566e-15 -0.787413883983381 -0.6164246712374568
  outer loop
    vertex -6.767919558114953e-14 3.0326775039018132 0.9559460536384009
    vertex 0.9999999999999999 2.7005704467866347 1.3801758418725125
    vertex 0.0 2.7005704467866343 1.3801758418725212
  endloop
endfacet
endsolid Untitled-5a239e96
