solid ee
facet normal -4.417621069237666e-29 -3.3151724730722738e-15 -1.0
  outer loop
    vertex -1.7638883151829294e-15 1.2632385829276283 1.8188632277942336
    vertex 0.19999999999993054 0.8379264000090467 1.8188632277942354
    vertex -6.944306662361703e-14 0.8379264000090506 1.8188632277942351
  endloop
endfacet
facet normal -4.417621069237666e-29 -3.3151724730722738e-15 -1.0
  outer loop
    vertex 0.19999999999993054 0.8379264000090467 1.8188632277942354
    vertex -1.7638883151829294e-15 1.2632385829276283 1.8188632277942336
    vertex 0.19999999999999826 1.2632385829276245 1.8188632277942336
  endloop
endfacet
facet normal 5.138493019154138e-15 0.7301763853945409 -0.6832586964043436
  outer loop
    vertex -6.944306662361703e-14 0.8379264000090506 1.8188632277942351
    vertex 0.19999999999999826 0.6030052412209 1.5678106126144715
    vertex -1.675697913527196e-15 0.6030052412209012 1.5678106126144713
  endloop
endfacet
facet normal 5.138493019154138e-15 0.7301763853945409 -0.6832586964043436
  outer loop
    vertex 0.19999999999999826 0.6030052412209 1.5678106126144715
    vertex -6.944306662361703e-14 0.8379264000090506 1.8188632277942351
    vertex 0.19999999999993054 0.8379264000090467 1.8188632277942354
  endloop
endfacet
facet normal -2.790047132265712e-16 0.9943247170666041 -0.10638776729689306
  outer loop
    vertex 9.515984321381321e-15 0.4821947081736171 0.43868738592171225
    vertex 0.19999999999999826 0.6030052412209 1.5678106126144715
    vertex 0.20000000000000956 0.48219470817361604 0.4386873859217113
  endloop
endfacet
facet normal -2.790047132265712e-16 0.9943247170666041 -0.10638776729689306
  outer loop
    vertex 0.19999999999999826 0.6030052412209 1.5678106126144715
    vertex 9.515984321381321e-15 0.4821947081736171 0.43868738592171225
    vertex -1.675697913527196e-15 0.6030052412209012 1.5678106126144713
  endloop
endfacet
facet normal -7.049916206369749e-15 -7.345473940383168e-16 -1.0
  outer loop
    vertex 9.515984321381321e-15 0.4821947081736171 0.43868738592171225
    vertex 0.19999999999999826 -1.4373318638590122 0.43868738592171225
    vertex -1.7638948094501011e-15 -1.437331863859008 0.43868738592171386
  endloop
endfacet
facet normal -7.049916206369749e-15 -7.345473940383168e-16 -1.0
  outer loop
    vertex 0.19999999999999826 -1.4373318638590122 0.43868738592171225
    vertex 9.515984321381321e-15 0.4821947081736171 0.43868738592171225
    vertex 0.20000000000000956 0.48219470817361604 0.4386873859217113
  endloop
endfacet
facet normal -1.4099832412739532e-14 -1.0 -5.688965676130382e-15
  outer loop
    vertex 0.19999999999997567 -1.4373318638590236 2.4214495561207143
    vertex -1.7638948094501011e-15 -1.437331863859008 0.43868738592171386
    vertex 0.19999999999999826 -1.4373318638590122 0.43868738592171225
  endloop
endfacet
facet normal -1.4099832412739532e-14 -1.0 -5.688965676130382e-15
  outer loop
    vertex -1.7638948094501011e-15 -1.437331863859008 0.43868738592171386
    vertex 0.19999999999997567 -1.4373318638590236 2.4214495561207143
    vertex -2.4323073936785584e-14 -1.4373318638590191 2.4214495561207157
  endloop
endfacet
facet normal 3.524958103184733e-15 -9.867536812332255e-15 1.0
  outer loop
    vertex 0.19999999999997567 -1.4373318638590236 2.4214495561207143
    vertex -1.3043474404472125e-14 -0.6514307849479352 2.4214495561207228
    vertex -2.4323073936785584e-14 -1.4373318638590191 2.4214495561207157
  endloop
endfacet
facet normal 3.524958103184733e-15 -9.867536812332255e-15 1.0
  outer loop
    vertex -1.3043474404472125e-14 -0.6514307849479352 2.4214495561207228
    vertex 0.19999999999997567 -1.4373318638590236 2.4214495561207143
    vertex 0.199999999999987 -0.6514307849479394 2.4214495561207228
  endloop
endfacet
facet normal 1.409983241273949e-14 1.0 8.118048428324396e-14
  outer loop
    vertex -1.3043474404472125e-14 -0.6514307849479352 2.4214495561207228
    vertex 0.19999999999998702 -0.6514307849479338 2.351975556120702
    vertex -1.2955776874299076e-14 -0.6514307849479296 2.351975556120702
  endloop
endfacet
facet normal 1.409983241273949e-14 1.0 8.118048428324396e-14
  outer loop
    vertex 0.19999999999998702 -0.6514307849479338 2.351975556120702
    vertex -1.3043474404472125e-14 -0.6514307849479352 2.4214495561207228
    vertex 0.199999999999987 -0.6514307849479394 2.4214495561207228
  endloop
endfacet
facet normal 8.330585428090283e-15 0.5908887823243761 0.8067530272166422
  outer loop
    vertex 0.19999999999998702 -0.6514307849479338 2.351975556120702
    vertex -1.6754531149308022e-15 -0.5674079097059213 2.290434820896648
    vertex -1.2955776874299076e-14 -0.6514307849479296 2.351975556120702
  endloop
endfacet
facet normal 8.330585428090283e-15 0.5908887823243761 0.8067530272166422
  outer loop
    vertex -1.6754531149308022e-15 -0.5674079097059213 2.290434820896648
    vertex 0.19999999999998702 -0.6514307849479338 2.351975556120702
    vertex 0.19999999999999826 -0.5674079097059255 2.290434820896648
  endloop
endfacet
facet normal 1.4099832412739494e-14 1.0 4.5947808152264833e-14
  outer loop
    vertex -1.6754531149308022e-15 -0.5674079097059213 2.290434820896648
    vertex 0.20000000000000956 -0.5674079097058973 1.6767022847976625
    vertex 9.604179992075068e-15 -0.567407909705893 1.6767022847976625
  endloop
endfacet
facet normal 1.4099832412739494e-14 1.0 4.5947808152264833e-14
  outer loop
    vertex 0.20000000000000956 -0.5674079097058973 1.6767022847976625
    vertex -1.6754531149308022e-15 -0.5674079097059213 2.290434820896648
    vertex 0.19999999999999826 -0.5674079097059255 2.290434820896648
  endloop
endfacet
facet normal 3.5249581031847837e-15 -6.20536192921076e-15 1.0
  outer loop
    vertex 0.20000000000000956 -0.5674079097058973 1.6767022847976625
    vertex 9.604408569638973e-15 0.22786260001705563 1.6767022847976678
    vertex 9.604179992075068e-15 -0.567407909705893 1.6767022847976625
  endloop
endfacet
facet normal 3.5249581031847837e-15 -6.20536192921076e-15 1.0
  outer loop
    vertex 9.604408569638973e-15 0.22786260001705563 1.6767022847976678
    vertex 0.20000000000000956 -0.5674079097058973 1.6767022847976625
    vertex 0.20000000000000956 0.2278626000170514 1.6767022847976667
  endloop
endfacet
facet normal -1.3554557506295144e-14 -0.9916770712364844 0.12875009275270008
  outer loop
    vertex 0.19999999999999823 0.3267916317466752 2.4386873859216984
    vertex 9.604408569638973e-15 0.22786260001705563 1.6767022847976678
    vertex 0.20000000000000956 0.2278626000170514 1.6767022847976667
  endloop
endfacet
facet normal -1.3554557506295144e-14 -0.9916770712364844 0.12875009275270008
  outer loop
    vertex 9.604408569638973e-15 0.22786260001705563 1.6767022847976678
    vertex 0.19999999999999823 0.3267916317466752 2.4386873859216984
    vertex -1.7637747247175931e-15 0.3267916317466794 2.4386873859216984
  endloop
endfacet
facet normal 3.5249581031846827e-15 -1.3227529090227019e-14 1.0
  outer loop
    vertex 0.19999999999999823 0.3267916317466752 2.4386873859216984
    vertex 9.515725951144818e-15 1.3394403812398221 2.438687385921712
    vertex -1.7637747247175931e-15 0.3267916317466794 2.4386873859216984
  endloop
endfacet
facet normal 3.5249581031846827e-15 -1.3227529090227019e-14 1.0
  outer loop
    vertex 9.515725951144818e-15 1.3394403812398221 2.438687385921712
    vertex 0.19999999999999823 0.3267916317466752 2.4386873859216984
    vertex 0.20000000000000956 1.3394403812398181 2.438687385921711
  endloop
endfacet
facet normal 1.5765233609143786e-14 0.8643378985774398 0.5029115201332492
  outer loop
    vertex 3.2075895583127276e-14 1.6060036763606174 1.9805536007152407
    vertex 0.20000000000000956 1.3394403812398181 2.438687385921711
    vertex 0.20000000000003207 1.6060036763606134 1.9805536007152396
  endloop
endfacet
facet normal 1.5765233609143786e-14 0.8643378985774398 0.5029115201332492
  outer loop
    vertex 0.20000000000000956 1.3394403812398181 2.438687385921711
    vertex 3.2075895583127276e-14 1.6060036763606174 1.9805536007152407
    vertex 9.515725951144818e-15 1.3394403812398221 2.438687385921712
  endloop
endfacet
facet normal 7.049916206369763e-15 2.5895719583081715e-15 1.0
  outer loop
    vertex 0.20000000000003207 1.6060036763606134 1.9805536007152396
    vertex 3.2163958404691267e-14 2.1504887356578766 1.9805536007152391
    vertex 3.2075895583127276e-14 1.6060036763606174 1.9805536007152407
  endloop
endfacet
facet normal 7.049916206369763e-15 2.5895719583081715e-15 1.0
  outer loop
    vertex 3.2163958404691267e-14 2.1504887356578766 1.9805536007152391
    vertex 0.20000000000003207 1.6060036763606134 1.9805536007152396
    vertex 0.2000000000000321 2.1504887356578757 1.980553600715238
  endloop
endfacet
facet normal 5.310469580835772e-15 -0.6703897740216151 0.7420091312694528
  outer loop
    vertex 3.2163958404691267e-14 2.1504887356578766 1.9805536007152391
    vertex 0.2000000000000321 2.6575660586411582 2.438687385921721
    vertex 3.207571059327115e-14 2.657566058641159 2.438687385921722
  endloop
endfacet
facet normal 5.310469580835772e-15 -0.6703897740216151 0.7420091312694528
  outer loop
    vertex 0.2000000000000321 2.6575660586411582 2.438687385921721
    vertex 3.2163958404691267e-14 2.1504887356578766 1.9805536007152391
    vertex 0.2000000000000321 2.1504887356578757 1.980553600715238
  endloop
endfacet
facet normal 7.050470498908413e-15 -0.005926544080123367 0.9999824378834193
  outer loop
    vertex 3.207571059327115e-14 2.657566058641159 2.438687385921722
    vertex 0.20000000000002083 3.548102179354776 2.443965280187067
    vertex 2.0884078779973863e-14 3.5481021793547765 2.443965280187068
  endloop
endfacet
facet normal 7.050470498908413e-15 -0.005926544080123367 0.9999824378834193
  outer loop
    vertex 0.20000000000002083 3.548102179354776 2.443965280187067
    vertex 3.207571059327115e-14 2.657566058641159 2.438687385921722
    vertex 0.2000000000000321 2.6575660586411582 2.438687385921721
  endloop
endfacet
facet normal -6.168676680573526e-15 -4.749977840131498e-15 -1.0
  outer loop
    vertex 0.1999999999998742 3.0424404544936743 1.3946334395601068
    vertex -6.944298516973717e-14 1.5953456400428025 1.3946334395601148
    vertex -1.258420840689168e-13 3.042440454493675 1.3946334395601077
  endloop
endfacet
facet normal -6.168676680573526e-15 -4.749977840131498e-15 -1.0
  outer loop
    vertex -6.944298516973717e-14 1.5953456400428025 1.3946334395601148
    vertex 0.1999999999998742 3.0424404544936743 1.3946334395601068
    vertex 0.1999999999999306 1.5953456400428014 1.3946334395601132
  endloop
endfacet
facet normal -7.643098735297029e-15 -0.7874138839833833 -0.616424671237454
  outer loop
    vertex 0.19999999999999826 1.2632385829276245 1.8188632277942336
    vertex -6.944298516973717e-14 1.5953456400428025 1.3946334395601148
    vertex 0.1999999999999306 1.5953456400428014 1.3946334395601132
  endloop
endfacet
facet normal -7.643098735297029e-15 -0.7874138839833833 -0.616424671237454
  outer loop
    vertex -6.944298516973717e-14 1.5953456400428025 1.3946334395601148
    vertex 0.19999999999999826 1.2632385829276245 1.8188632277942336
    vertex -1.7638883151829294e-15 1.2632385829276283 1.8188632277942336
  endloop
endfacet
facet normal 1.0 -8.078459246192036e-16 -4.611705755806274e-15
  outer loop
    vertex 0.19999999999999826 -1.4373318638590122 0.43868738592171225
    vertex 0.199999999999987 -0.6514307849479394 2.4214495561207228
    vertex 0.19999999999997567 -1.4373318638590236 2.4214495561207143
  endloop
endfacet
facet normal 1.0 -8.078459246192036e-16 -4.611705755806274e-15
  outer loop
    vertex 0.199999999999987 -0.6514307849479394 2.4214495561207228
    vertex 0.19999999999999826 -1.4373318638590122 0.43868738592171225
    vertex 0.19999999999998702 -0.6514307849479338 2.351975556120702
  endloop
endfacet
facet normal 1.0 -8.078459246192036e-16 -4.611705755806274e-15
  outer loop
    vertex 0.19999999999998702 -0.6514307849479338 2.351975556120702
    vertex 0.19999999999999826 -1.4373318638590122 0.43868738592171225
    vertex 0.20000000000000956 -0.5674079097058973 1.6767022847976625
  endloop
endfacet
facet normal 1.0 -8.078459246192036e-16 -4.611705755806274e-15
  outer loop
    vertex 0.20000000000000956 -0.5674079097058973 1.6767022847976625
    vertex 0.19999999999999826 -1.4373318638590122 0.43868738592171225
    vertex 0.20000000000000956 0.48219470817361604 0.4386873859217113
  endloop
endfacet
facet normal 1.0 -8.078459246192036e-16 -4.611705755806274e-15
  outer loop
    vertex 0.19999999999998702 -0.6514307849479338 2.351975556120702
    vertex 0.20000000000000956 -0.5674079097058973 1.6767022847976625
    vertex 0.19999999999999826 -0.5674079097059255 2.290434820896648
  endloop
endfacet
facet normal 1.0 -8.078459246192036e-16 -4.611705755806274e-15
  outer loop
    vertex 0.20000000000000956 -0.5674079097058973 1.6767022847976625
    vertex 0.20000000000000956 0.48219470817361604 0.4386873859217113
    vertex 0.20000000000000956 0.2278626000170514 1.6767022847976667
  endloop
endfacet
facet normal 1.0 -8.078459246192036e-16 -4.611705755806274e-15
  outer loop
    vertex 0.20000000000000956 0.2278626000170514 1.6767022847976667
    vertex 0.20000000000000956 0.48219470817361604 0.4386873859217113
    vertex 0.19999999999999823 0.3267916317466752 2.4386873859216984
  endloop
endfacet
facet normal 1.0 -8.078459246192036e-16 -4.611705755806274e-15
  outer loop
    vertex 0.19999999999999823 0.3267916317466752 2.4386873859216984
    vertex 0.20000000000000956 0.48219470817361604 0.4386873859217113
    vertex 0.19999999999999826 0.6030052412209 1.5678106126144715
  endloop
endfacet
facet normal 1.0 -8.078459246192036e-16 -4.611705755806274e-15
  outer loop
    vertex 0.19999999999999823 0.3267916317466752 2.4386873859216984
    vertex 0.19999999999999826 0.6030052412209 1.5678106126144715
    vertex 0.20000000000000956 1.3394403812398181 2.438687385921711
  endloop
endfacet
facet normal 1.0 -8.078459246192036e-16 -4.611705755806274e-15
  outer loop
    vertex 0.20000000000000956 1.3394403812398181 2.438687385921711
    vertex 0.19999999999999826 0.6030052412209 1.5678106126144715
    vertex 0.19999999999993054 0.8379264000090467 1.8188632277942354
  endloop
endfacet
facet normal 1.0 -8.078459246192036e-16 -4.611705755806274e-15
  outer loop
    vertex 0.20000000000000956 1.3394403812398181 2.438687385921711
    vertex 0.19999999999993054 0.8379264000090467 1.8188632277942354
    vertex 0.19999999999999826 1.2632385829276245 1.8188632277942336
  endloop
endfacet
facet normal 1.0 -8.078459246192036e-16 -4.611705755806274e-15
  outer loop
    vertex 0.20000000000000956 1.3394403812398181 2.438687385921711
    vertex 0.19999999999999826 1.2632385829276245 1.8188632277942336
    vertex 0.1999999999999306 1.5953456400428014 1.3946334395601132
  endloop
endfacet
facet normal 1.0 -8.078459246192036e-16 -4.611705755806274e-15
  outer loop
    vertex 0.20000000000000956 1.3394403812398181 2.438687385921711
    vertex 0.1999999999999306 1.5953456400428014 1.3946334395601132
    vertex 0.20000000000003207 1.6060036763606134 1.9805536007152396
  endloop
endfacet
facet normal 1.0 -8.078459246192036e-16 -4.611705755806274e-15
  outer loop
    vertex 0.20000000000003207 1.6060036763606134 1.9805536007152396
    vertex 0.1999999999999306 1.5953456400428014 1.3946334395601132
    vertex 0.1999999999998742 3.0424404544936743 1.3946334395601068
  endloop
endfacet
facet normal 1.0 -8.078459246192036e-16 -4.611705755806274e-15
  outer loop
    vertex 0.20000000000003207 1.6060036763606134 1.9805536007152396
    vertex 0.1999999999998742 3.0424404544936743 1.3946334395601068
    vertex 0.2000000000000321 2.1504887356578757 1.980553600715238
  endloop
endfacet
facet normal 1.0 -8.078459246192036e-16 -4.611705755806274e-15
  outer loop
    vertex 0.2000000000000321 2.1504887356578757 1.980553600715238
    vertex 0.1999999999998742 3.0424404544936743 1.3946334395601068
    vertex 0.2000000000000321 2.6575660586411582 2.438687385921721
  endloop
endfacet
facet normal 1.0 -8.078459246192036e-16 -4.611705755806274e-15
  outer loop
    vertex 0.2000000000000321 2.6575660586411582 2.438687385921721
    vertex 0.1999999999998742 3.0424404544936743 1.3946334395601068
    vertex 0.20000000000002083 3.548102179354776 2.443965280187067
  endloop
endfacet
facet normal 1.0 -8.078459246192036e-16 -4.611705755806274e-15
  outer loop
    vertex 0.20000000000002083 3.548102179354776 2.443965280187067
    vertex 0.1999999999998742 3.0424404544936743 1.3946334395601068
    vertex 0.2000000000000321 3.5481021793547525 0.44493697006114935
  endloop
endfacet
facet normal -8.615829127241004e-29 1.0 -1.1285348859797868e-14
  outer loop
    vertex 3.207574180222328e-14 3.5481021793547542 0.444936970061151
    vertex 0.20000000000002083 3.548102179354776 2.443965280187067
    vertex 0.2000000000000321 3.5481021793547525 0.44493697006114935
  endloop
endfacet
facet normal -8.615829127241004e-29 1.0 -1.1285348859797868e-14
  outer loop
    vertex 0.20000000000002083 3.548102179354776 2.443965280187067
    vertex 3.207574180222328e-14 3.5481021793547542 0.444936970061151
    vertex 2.0884078779973863e-14 3.5481021793547765 2.443965280187068
  endloop
endfacet
facet normal -3.397814195200515e-15 -0.8826780862958956 -0.4699780803112156
  outer loop
    vertex 0.1999999999998742 3.0424404544936743 1.3946334395601068
    vertex 3.207574180222328e-14 3.5481021793547542 0.444936970061151
    vertex 0.2000000000000321 3.5481021793547525 0.44493697006114935
  endloop
endfacet
facet normal -3.397814195200515e-15 -0.8826780862958956 -0.4699780803112156
  outer loop
    vertex 3.207574180222328e-14 3.5481021793547542 0.444936970061151
    vertex 0.1999999999998742 3.0424404544936743 1.3946334395601068
    vertex -1.258420840689168e-13 3.042440454493675 1.3946334395601077
  endloop
endfacet
facet normal -1.0 8.053599585412775e-16 4.625327366546107e-15
  outer loop
    vertex -1.3043474404472125e-14 -0.6514307849479352 2.4214495561207228
    vertex -1.7638948094501011e-15 -1.437331863859008 0.43868738592171386
    vertex -2.4323073936785584e-14 -1.4373318638590191 2.4214495561207157
  endloop
endfacet
facet normal -1.0 8.053599585412775e-16 4.625327366546107e-15
  outer loop
    vertex -1.7638948094501011e-15 -1.437331863859008 0.43868738592171386
    vertex -1.3043474404472125e-14 -0.6514307849479352 2.4214495561207228
    vertex -1.2955776874299076e-14 -0.6514307849479296 2.351975556120702
  endloop
endfacet
facet normal -1.0 8.053599585412775e-16 4.625327366546107e-15
  outer loop
    vertex -1.7638948094501011e-15 -1.437331863859008 0.43868738592171386
    vertex -1.2955776874299076e-14 -0.6514307849479296 2.351975556120702
    vertex 9.604179992075068e-15 -0.567407909705893 1.6767022847976625
  endloop
endfacet
facet normal -1.0 8.053599585412775e-16 4.625327366546107e-15
  outer loop
    vertex -1.7638948094501011e-15 -1.437331863859008 0.43868738592171386
    vertex 9.604179992075068e-15 -0.567407909705893 1.6767022847976625
    vertex 9.515984321381321e-15 0.4821947081736171 0.43868738592171225
  endloop
endfacet
facet normal -1.0 8.053599585412775e-16 4.625327366546107e-15
  outer loop
    vertex 9.604179992075068e-15 -0.567407909705893 1.6767022847976625
    vertex -1.2955776874299076e-14 -0.6514307849479296 2.351975556120702
    vertex -1.6754531149308022e-15 -0.5674079097059213 2.290434820896648
  endloop
endfacet
facet normal -1.0 8.053599585412775e-16 4.625327366546107e-15
  outer loop
    vertex 9.515984321381321e-15 0.4821947081736171 0.43868738592171225
    vertex 9.604179992075068e-15 -0.567407909705893 1.6767022847976625
    vertex 9.604408569638973e-15 0.22786260001705563 1.6767022847976678
  endloop
endfacet
facet normal -1.0 8.053599585412775e-16 4.625327366546107e-15
  outer loop
    vertex 9.515984321381321e-15 0.4821947081736171 0.43868738592171225
    vertex 9.604408569638973e-15 0.22786260001705563 1.6767022847976678
    vertex -1.7637747247175931e-15 0.3267916317466794 2.4386873859216984
  endloop
endfacet
facet normal -1.0 8.053599585412775e-16 4.625327366546107e-15
  outer loop
    vertex 9.515984321381321e-15 0.4821947081736171 0.43868738592171225
    vertex -1.7637747247175931e-15 0.3267916317466794 2.4386873859216984
    vertex -1.675697913527196e-15 0.6030052412209012 1.5678106126144713
  endloop
endfacet
facet normal -1.0 8.053599585412775e-16 4.625327366546107e-15
  outer loop
    vertex -1.675697913527196e-15 0.6030052412209012 1.5678106126144713
    vertex -1.7637747247175931e-15 0.3267916317466794 2.4386873859216984
    vertex 9.515725951144818e-15 1.3394403812398221 2.438687385921712
  endloop
endfacet
facet normal -1.0 8.053599585412775e-16 4.625327366546107e-15
  outer loop
    vertex -1.675697913527196e-15 0.6030052412209012 1.5678106126144713
    vertex 9.515725951144818e-15 1.3394403812398221 2.438687385921712
    vertex -6.944306662361703e-14 0.8379264000090506 1.8188632277942351
  endloop
endfacet
facet normal -1.0 8.053599585412775e-16 4.625327366546107e-15
  outer loop
    vertex -6.944306662361703e-14 0.8379264000090506 1.8188632277942351
    vertex 9.515725951144818e-15 1.3394403812398221 2.438687385921712
    vertex -1.7638883151829294e-15 1.2632385829276283 1.8188632277942336
  endloop
endfacet
facet normal -1.0 8.053599585412775e-16 4.625327366546107e-15
  outer loop
    vertex -1.7638883151829294e-15 1.2632385829276283 1.8188632277942336
    vertex 9.515725951144818e-15 1.3394403812398221 2.438687385921712
    vertex -6.944298516973717e-14 1.5953456400428025 1.3946334395601148
  endloop
endfacet
facet normal -1.0 8.053599585412775e-16 4.625327366546107e-15
  outer loop
    vertex -6.944298516973717e-14 1.5953456400428025 1.3946334395601148
    vertex 9.515725951144818e-15 1.3394403812398221 2.438687385921712
    vertex 3.2075895583127276e-14 1.6060036763606174 1.9805536007152407
  endloop
endfacet
facet normal -1.0 8.053599585412775e-16 4.625327366546107e-15
  outer loop
    vertex -6.944298516973717e-14 1.5953456400428025 1.3946334395601148
    vertex 3.2075895583127276e-14 1.6060036763606174 1.9805536007152407
    vertex -1.258420840689168e-13 3.042440454493675 1.3946334395601077
  endloop
endfacet
facet normal -1.0 8.053599585412775e-16 4.625327366546107e-15
  outer loop
    vertex -1.258420840689168e-13 3.042440454493675 1.3946334395601077
    vertex 3.2075895583127276e-14 1.6060036763606174 1.9805536007152407
    vertex 3.2163958404691267e-14 2.1504887356578766 1.9805536007152391
  endloop
endfacet
facet normal -1.0 8.053599585412775e-16 4.625327366546107e-15
  outer loop
    vertex -1.258420840689168e-13 3.042440454493675 1.3946334395601077
    vertex 3.2163958404691267e-14 2.1504887356578766 1.9805536007152391
    vertex 3.207571059327115e-14 2.657566058641159 2.438687385921722
  endloop
endfacet
facet normal -1.0 8.053599585412775e-16 4.625327366546107e-15
  outer loop
    vertex -1.258420840689168e-13 3.042440454493675 1.3946334395601077
    vertex 3.207571059327115e-14 2.657566058641159 2.438687385921722
    vertex 2.0884078779973863e-14 3.5481021793547765 2.443965280187068
  endloop
endfacet
facet normal -1.0 8.053599585412775e-16 4.625327366546107e-15
  outer loop
    vertex -1.258420840689168e-13 3.042440454493675 1.3946334395601077
    vertex 2.0884078779973863e-14 3.5481021793547765 2.443965280187068
    vertex 3.207574180222328e-14 3.5481021793547542 0.444936970061151
  endloop
endfacet
endsolid ee
