solid Untitled-5a214677
facet normal -1.698806724255598e-14 -0.7874138839833849 -0.6164246712374519
  outer loop
    vertex 35.0 2.700570446786444 1.3801758418718086
    vertex -1.127986593019159e-14 3.032677503901808 0.9559460536384116
    vertex 34.99999999999996 3.0326775039016187 0.9559460536376883
  endloop
endfacet
facet normal -1.6639579538947946e-14 -0.7874138839833709 -0.6164246712374698
  outer loop
    vertex -2.8199664825478975e-15 2.700570446786622 1.3801758418725265
    vertex -1.127986593019159e-14 3.032677503901808 0.9559460536384116
    vertex 35.0 2.700570446786444 1.3801758418718086
  endloop
endfacet
facet normal 2.0530363123835325e-14 4.208054432250931e-15 1.0
  outer loop
    vertex 35.00000000000005 3.043335540219433 1.5418662147928148
    vertex 1.4099832412739488e-14 3.587820599516887 1.5418662147935311
    vertex 1.4099832412739488e-14 3.0433355402196165 1.5418662147935334
  endloop
endfacet
facet normal 2.0520291814969076e-14 3.560661442673792e-15 1.0
  outer loop
    vertex 35.00000000000005 3.587820599516695 1.5418662147928128
    vertex 1.4099832412739488e-14 3.587820599516887 1.5418662147935311
    vertex 35.00000000000005 3.043335540219433 1.5418662147928148
  endloop
endfacet
facet normal 2.0449792652905332e-14 -6.64860206701199e-15 1.0
  outer loop
    vertex 35.00000000000003 0.8699239541529267 1.238014898875236
    vertex 2.5379698342931078e-14 1.66519446387605 1.238014898875957
    vertex 1.6919798895287383e-14 0.8699239541531127 1.2380148988759516
  endloop
endfacet
facet normal 2.0439721344039106e-14 -7.091842204812166e-15 1.0
  outer loop
    vertex 35.00000000000003 1.6651944638758724 1.2380148988752415
    vertex 2.5379698342931078e-14 1.66519446387605 1.238014898875957
    vertex 35.00000000000003 0.8699239541529267 1.238014898875236
  endloop
endfacet
facet normal 5.317651081377066e-15 1.0 5.0542588967491256e-14
  outer loop
    vertex 35.0 0.8699239541528956 1.8517474349742216
    vertex 35.00000000000003 0.8699239541529267 1.238014898875236
    vertex 1.6919798895287383e-14 0.8699239541531127 1.2380148988759516
  endloop
endfacet
facet normal 5.237080610447223e-15 1.0 5.5137369782717546e-14
  outer loop
    vertex 1.973976537783528e-14 0.8699239541530789 1.8517474349749357
    vertex 35.0 0.8699239541528956 1.8517474349742216
    vertex 1.6919798895287383e-14 0.8699239541531127 1.2380148988759516
  endloop
endfacet
facet normal 1.963734954580205e-14 0.5908887823244154 0.8067530272166132
  outer loop
    vertex 34.99999999999998 0.7859010789108901 1.913288170198276
    vertex 1.973976537783528e-14 0.8699239541530789 1.8517474349749357
    vertex 2.8199664825478975e-15 0.7859010789110734 1.9132881701989937
  endloop
endfacet
facet normal 1.955583478315684e-14 0.5908887823243935 0.8067530272166294
  outer loop
    vertex 35.0 0.8699239541528956 1.8517474349742216
    vertex 1.973976537783528e-14 0.8699239541530789 1.8517474349749357
    vertex 34.99999999999998 0.7859010789108901 1.913288170198276
  endloop
endfacet
facet normal 5.237080610447763e-15 1.0 8.118048428324349e-14
  outer loop
    vertex 34.99999999999998 0.7859010789108846 1.9827621701982974
    vertex 34.99999999999998 0.7859010789108901 1.913288170198276
    vertex 2.8199664825478975e-15 0.7859010789110734 1.9132881701989937
  endloop
endfacet
facet normal 5.075939668589545e-15 1.0 1.6236096856648874e-13
  outer loop
    vertex 5.639932965095795e-15 0.7859010789110622 1.9827621701990144
    vertex 34.99999999999998 0.7859010789108846 1.9827621701982974
    vertex 2.8199664825478975e-15 0.7859010789110734 1.9132881701989937
  endloop
endfacet
facet normal 2.05353987782684e-14 -8.521963610651027e-15 1.0
  outer loop
    vertex 34.99999999999998 -2.0021762026090072e-13 1.982762170198289
    vertex 5.639932965095795e-15 0.7859010789110622 1.9827621701990144
    vertex -1.127986593019159e-14 -1.2689849171465539e-14 1.9827621701990077
  endloop
endfacet
facet normal 2.0485042233937187e-14 -1.0764585613453342e-14 1.0
  outer loop
    vertex 34.99999999999998 0.7859010789108846 1.9827621701982974
    vertex 5.639932965095795e-15 0.7859010789110622 1.9827621701990144
    vertex 34.99999999999998 -2.0021762026090072e-13 1.982762170198289
  endloop
endfacet
facet normal 1.155238016412607e-14 -0.6703897740216193 0.742009131269449
  outer loop
    vertex 35.00000000000005 3.587820599516695 1.5418662147928128
    vertex 5.639932965095795e-14 4.094897922500167 2.0000000000000164
    vertex 1.4099832412739488e-14 3.587820599516887 1.5418662147935311
  endloop
endfacet
facet normal 1.1669486142280668e-14 -0.6703897740216149 0.742009131269453
  outer loop
    vertex 35.00000000000005 4.094897922499978 1.9999999999992952
    vertex 5.639932965095795e-14 4.094897922500167 2.0000000000000164
    vertex 35.00000000000005 3.587820599516695 1.5418662147928128
  endloop
endfacet
facet normal 1.0 -4.252592134738122e-14 -4.059024214162916e-14
  outer loop
    vertex 4.7939430203314254e-14 1.7641234956056768 1.9999999999999978
    vertex 5.639932965095795e-15 0.7859010789110622 1.9827621701990144
    vertex 2.8199664825478975e-15 0.7859010789110734 1.9132881701989937
  endloop
endfacet
facet normal 1.0 -6.288434009929698e-14 1.8907924629245276e-13
  outer loop
    vertex 4.7939430203314254e-14 1.7641234956056768 1.9999999999999978
    vertex 2.8199664825478975e-15 0.7859010789110734 1.9132881701989937
    vertex 1.973976537783528e-14 0.8699239541530789 1.8517474349749357
  endloop
endfacet
facet normal 1.0 -3.0774425067575614e-14 -4.594780815228159e-15
  outer loop
    vertex 4.7939430203314254e-14 1.7641234956056768 1.9999999999999978
    vertex 1.973976537783528e-14 0.8699239541530789 1.8517474349749357
    vertex 1.6919798895287383e-14 0.8699239541531127 1.2380148988759516
  endloop
endfacet
facet normal 1.0 -1.0637763307218402e-14 -2.8225418324983775e-14
  outer loop
    vertex 4.7939430203314254e-14 1.7641234956056768 1.9999999999999978
    vertex 1.6919798895287383e-14 0.8699239541531127 1.2380148988759516
    vertex 2.5379698342931078e-14 1.66519446387605 1.238014898875957
  endloop
endfacet
facet normal 2.0718223357779685e-14 -1.1487064736249946e-14 1.0
  outer loop
    vertex 12.471119000000062 1.764123495605609 1.9999999999997393
    vertex 5.639932965095795e-14 2.7767722450988157 2.0000000000000093
    vertex 4.7939430203314254e-14 1.7641234956056768 1.9999999999999978
  endloop
endfacet
facet normal 2.06562544846633e-14 -1.2250232805451706e-14 1.0
  outer loop
    vertex 35.00000000000003 2.776772245098635 1.9999999999992863
    vertex 5.639932965095795e-14 2.7767722450988157 2.0000000000000093
    vertex 12.471119000000062 1.764123495605609 1.9999999999997393
  endloop
endfacet
facet normal 2.0710394624574364e-14 -1.3454714389012034e-14 1.0
  outer loop
    vertex 35.00000000000003 2.776772245098635 1.9999999999992863
    vertex 12.471119000000062 1.764123495605609 1.9999999999997393
    vertex 26.44473300000005 1.7641234956055358 1.99999999999945
  endloop
endfacet
facet normal 2.0585244238708747e-14 -1.2397393213461981e-14 1.0
  outer loop
    vertex 35.00000000000003 2.776772245098635 1.9999999999992863
    vertex 26.44473300000005 1.7641234956055358 1.99999999999945
    vertex 31.393486000000042 1.7641234956055076 1.999999999999348
  endloop
endfacet
facet normal 2.0818332494436e-14 -1.3227529090227458e-14 1.0
  outer loop
    vertex 35.00000000000003 2.776772245098635 1.9999999999992863
    vertex 31.393486000000042 1.7641234956055076 1.999999999999348
    vertex 35.0 1.7641234956054934 1.999999999999273
  endloop
endfacet
facet normal 1.4851069583714697e-14 0.8643378985774375 0.502911520133253
  outer loop
    vertex 35.00000000000003 2.776772245098635 1.9999999999992863
    vertex 35.00000000000005 3.043335540219433 1.5418662147928148
    vertex 1.4099832412739488e-14 3.0433355402196165 1.5418662147935334
  endloop
endfacet
facet normal 1.4846625018686717e-14 0.8643378985774375 0.5029115201332535
  outer loop
    vertex 5.639932965095795e-14 2.7767722450988157 2.0000000000000093
    vertex 35.00000000000003 2.776772245098635 1.9999999999992863
    vertex 1.4099832412739488e-14 3.0433355402196165 1.5418662147935334
  endloop
endfacet
facet normal -2.4015155954097474e-15 -0.9916770712364849 0.1287500927526964
  outer loop
    vertex 35.0 1.7641234956054934 1.999999999999273
    vertex 2.5379698342931078e-14 1.66519446387605 1.238014898875957
    vertex 35.00000000000003 1.6651944638758724 1.2380148988752415
  endloop
endfacet
facet normal -2.284833670438426e-15 -0.9916770712364857 0.1287500927526891
  outer loop
    vertex 35.0 1.7641234956054934 1.999999999999273
    vertex 26.44473300000005 1.7641234956055358 1.99999999999945
    vertex 2.5379698342931078e-14 1.66519446387605 1.238014898875957
  endloop
endfacet
facet normal -2.284833670438426e-15 -0.9916770712364857 0.1287500927526891
  outer loop
    vertex 26.44473300000005 1.7641234956055358 1.99999999999945
    vertex 35.0 1.7641234956054934 1.999999999999273
    vertex 31.393486000000042 1.7641234956055076 1.999999999999348
  endloop
endfacet
facet normal -2.5372478234456478e-15 -0.9916770712364844 0.12875009275269916
  outer loop
    vertex 12.471119000000062 1.764123495605609 1.9999999999997393
    vertex 2.5379698342931078e-14 1.66519446387605 1.238014898875957
    vertex 26.44473300000005 1.7641234956055358 1.99999999999945
  endloop
endfacet
facet normal -2.713577345581593e-15 -0.9916770712364842 0.12875009275270208
  outer loop
    vertex 4.7939430203314254e-14 1.7641234956056768 1.9999999999999978
    vertex 2.5379698342931078e-14 1.66519446387605 1.238014898875957
    vertex 12.471119000000062 1.764123495605609 1.9999999999997393
  endloop
endfacet
facet normal 2.049346601054796e-14 -0.005926544080120238 0.9999824378834193
  outer loop
    vertex 35.00000000000003 4.985434043213592 2.005277894264641
    vertex 3.3839597790574766e-14 4.985434043213779 2.0052778942653595
    vertex 5.639932965095795e-14 4.094897922500167 2.0000000000000164
  endloop
endfacet
facet normal 2.0573519741787756e-14 -0.005926544080123385 0.9999824378834193
  outer loop
    vertex 35.00000000000005 4.094897922499978 1.9999999999992952
    vertex 35.00000000000003 4.985434043213592 2.005277894264641
    vertex 5.639932965095795e-14 4.094897922500167 2.0000000000000164
  endloop
endfacet
facet normal -1.0 -4.920301638661437e-28 9.233001058665514e-14
  outer loop
    vertex 5.639932965095795e-14 4.094897922500167 2.0000000000000164
    vertex 1.4099832412739488e-14 3.0433355402196165 1.5418662147935334
    vertex 5.639932965095795e-14 2.7767722450988157 2.0000000000000093
  endloop
endfacet
facet normal -1.0 3.623358522996659e-28 9.233001058665322e-14
  outer loop
    vertex 5.639932965095795e-14 4.094897922500167 2.0000000000000164
    vertex 1.4099832412739488e-14 3.587820599516887 1.5418662147935311
    vertex 1.4099832412739488e-14 3.0433355402196165 1.5418662147935334
  endloop
endfacet
facet normal 1.0 -5.23676597922506e-14 5.709697531667656e-14
  outer loop
    vertex 34.99999999999998 4.985434043213592 0.20837192229534127
    vertex 34.999999999999936 4.985434043213582 1.0227687704516757
    vertex 34.999999999999915 4.479772318352494 0.9559460536376814
  endloop
endfacet
facet normal 1.0 -5.23676597922506e-14 5.709697531667656e-14
  outer loop
    vertex 34.999999999999936 4.985434043213582 1.0227687704516757
    vertex 34.99999999999998 4.985434043213592 0.20837192229534127
    vertex 34.99999999999998 4.985434043213592 0.26224358413872717
  endloop
endfacet
facet normal 1.0 -1.1761242555295695e-28 1.1377931352260441e-14
  outer loop
    vertex 34.99999999999998 0.7859010789108846 1.9827621701982974
    vertex 34.99999999999998 -2.0021762026090072e-13 1.982762170198289
    vertex 35.0 -1.903477375719831e-13 -7.12768559452126e-13
  endloop
endfacet
facet normal 1.0 2.8705561635867034e-14 2.5209617130680592e-27
  outer loop
    vertex 34.99999999999998 0.7859010789108901 1.913288170198276
    vertex 34.99999999999998 0.7859010789108846 1.9827621701982974
    vertex 35.0 -1.903477375719831e-13 -7.12768559452126e-13
  endloop
endfacet
facet normal 1.0 -1.0281543604053985e-13 5.402348458706382e-14
  outer loop
    vertex 35.00000000000003 0.8699239541529267 1.238014898875236
    vertex 34.99999999999998 0.7859010789108901 1.913288170198276
    vertex 35.0 -1.903477375719831e-13 -7.12768559452126e-13
  endloop
endfacet
facet normal 1.0 -1.1752758304613734e-14 -9.964117471468152e-15
  outer loop
    vertex 35.00000000000003 1.9195265720324368 -7.138040158949366e-13
    vertex 35.00000000000003 0.8699239541529267 1.238014898875236
    vertex 35.0 -1.903477375719831e-13 -7.12768559452126e-13
  endloop
endfacet
facet normal 1.0 -2.4157233712156087e-13 3.6758246521799435e-14
  outer loop
    vertex 35.00000000000003 0.8699239541529267 1.238014898875236
    vertex 35.0 0.8699239541528956 1.8517474349742216
    vertex 34.99999999999998 0.7859010789108901 1.913288170198276
  endloop
endfacet
facet normal 1.0 -0.0 -0.0
  outer loop
    vertex 35.00000000000003 1.9195265720324368 -7.138040158949366e-13
    vertex 35.00000000000003 1.6651944638758724 1.2380148988752415
    vertex 35.00000000000003 0.8699239541529267 1.238014898875236
  endloop
endfacet
facet normal 1.0 8.830754968886938e-14 1.8141498376879437e-14
  outer loop
    vertex 35.00000000000003 1.9195265720324368 -7.138040158949366e-13
    vertex 35.0 1.7641234956054934 1.999999999999273
    vertex 35.00000000000003 1.6651944638758724 1.2380148988752415
  endloop
endfacet
facet normal 1.0 4.7104300911699553e-14 1.4939942567500977e-14
  outer loop
    vertex 35.0 2.040337105079718 1.129123226692046
    vertex 35.0 1.7641234956054934 1.999999999999273
    vertex 35.00000000000003 1.9195265720324368 -7.138040158949366e-13
  endloop
endfacet
facet normal 1.0 -1.1589432300465593e-14 -3.107654515368881e-14
  outer loop
    vertex 35.0 2.040337105079718 1.129123226692046
    vertex 35.00000000000003 2.776772245098635 1.9999999999992863
    vertex 35.0 1.7641234956054934 1.999999999999273
  endloop
endfacet
facet normal 1.0 -1.1589432300465593e-14 -3.107654515368881e-14
  outer loop
    vertex 35.00000000000003 2.776772245098635 1.9999999999992863
    vertex 35.0 2.040337105079718 1.129123226692046
    vertex 34.99999999999996 2.275258263867867 1.3801758418718095
  endloop
endfacet
facet normal 1.0 -1.0608551913831305e-13 -2.335472784877186e-14
  outer loop
    vertex 35.00000000000003 2.776772245098635 1.9999999999992863
    vertex 34.99999999999996 2.275258263867867 1.3801758418718095
    vertex 35.0 2.700570446786444 1.3801758418718086
  endloop
endfacet
facet normal 1.0 7.723572791549723e-14 -4.5892424244046465e-14
  outer loop
    vertex 34.99999999999996 3.0326775039016187 0.9559460536376883
    vertex 35.00000000000003 2.776772245098635 1.9999999999992863
    vertex 35.0 2.700570446786444 1.3801758418718086
  endloop
endfacet
facet normal 1.0 -3.387378835174181e-13 -1.4785059897238959e-13
  outer loop
    vertex 35.00000000000005 3.043335540219433 1.5418662147928148
    vertex 35.00000000000003 2.776772245098635 1.9999999999992863
    vertex 34.99999999999996 3.0326775039016187 0.9559460536376883
  endloop
endfacet
facet normal 1.0 3.117934171983514e-14 -1.54579487108601e-13
  outer loop
    vertex 34.999999999999915 4.479772318352494 0.9559460536376814
    vertex 35.00000000000005 3.043335540219433 1.5418662147928148
    vertex 34.99999999999996 3.0326775039016187 0.9559460536376883
  endloop
endfacet
facet normal 1.0 -8.860924905943891e-28 -2.3101849046368933e-13
  outer loop
    vertex 34.999999999999915 4.479772318352494 0.9559460536376814
    vertex 35.00000000000005 3.587820599516695 1.5418662147928128
    vertex 35.00000000000005 3.043335540219433 1.5418662147928148
  endloop
endfacet
facet normal 1.0 8.786840513345003e-14 -9.72555988853754e-14
  outer loop
    vertex 34.999999999999915 4.479772318352494 0.9559460536376814
    vertex 35.00000000000005 4.094897922499978 1.9999999999992952
    vertex 35.00000000000005 3.587820599516695 1.5418662147928128
  endloop
endfacet
facet normal 1.0 2.6044224488097444e-14 -1.200461302155597e-13
  outer loop
    vertex 35.00000000000003 4.985434043213592 2.005277894264641
    vertex 35.00000000000005 4.094897922499978 1.9999999999992952
    vertex 34.999999999999915 4.479772318352494 0.9559460536376814
  endloop
endfacet
facet normal 1.0 -3.247699596179043e-14 -9.184538367575571e-14
  outer loop
    vertex 35.00000000000003 4.985434043213592 2.005277894264641
    vertex 34.999999999999915 4.479772318352494 0.9559460536376814
    vertex 34.999999999999936 4.985434043213582 1.0227687704516757
  endloop
endfacet
facet normal 5.317651081373722e-15 1.0 -1.1161424346329365e-13
  outer loop
    vertex 34.99999999999998 4.985434043213592 0.20837192229534127
    vertex 35.00000000000005 4.98543404321357 0.006249584138724301
    vertex 1.127986593019159e-14 4.985434043213757 0.006249584139447611
  endloop
endfacet
facet normal 4.8618589513801404e-15 1.0 -3.268815990754472e-14
  outer loop
    vertex 34.99999999999998 4.985434043213592 0.20837192229534127
    vertex 1.127986593019159e-14 4.985434043213757 0.006249584139447611
    vertex 0.0 4.985434043213762 0.1787870711392585
  endloop
endfacet
facet normal 4.845525493127386e-15 1.0 -1.3365059857780804e-14
  outer loop
    vertex 1.4099832412739488e-14 4.985434043213774 1.022768770452399
    vertex 34.99999999999998 4.985434043213592 0.20837192229534127
    vertex 0.0 4.985434043213762 0.1787870711392585
  endloop
endfacet
facet normal 5.156510139516367e-15 1.0 8.658641166436545e-27
  outer loop
    vertex 1.4099832412739488e-14 4.985434043213774 1.022768770452399
    vertex 34.99999999999998 4.985434043213592 0.26224358413872717
    vertex 34.99999999999998 4.985434043213592 0.20837192229534127
  endloop
endfacet
facet normal 4.775932246057358e-15 1.0 -1.7514510381455494e-14
  outer loop
    vertex 1.4099832412739488e-14 4.985434043213774 1.022768770452399
    vertex 2.3618144791527134 4.985434043213762 1.0227687704523503
    vertex 34.99999999999998 4.985434043213592 0.26224358413872717
  endloop
endfacet
facet normal 5.529653441298001e-15 1.0 1.4831679651369608e-14
  outer loop
    vertex 2.3618144791527134 4.985434043213762 1.0227687704523503
    vertex 34.999999999999936 4.985434043213582 1.0227687704516757
    vertex 34.99999999999998 4.985434043213592 0.26224358413872717
  endloop
endfacet
facet normal 1.0 2.7090278027372e-15 2.4684981296709107e-14
  outer loop
    vertex 1.127986593019159e-14 4.985434043213757 0.006249584139447611
    vertex -8.459899447643692e-15 2.0403371050799097 1.129123226692757
    vertex 1.973976537783528e-14 1.919526572032623 7.049916206369744e-15
  endloop
endfacet
facet normal 1.0 1.089772487102445e-14 4.616247061445608e-14
  outer loop
    vertex 1.127986593019159e-14 4.985434043213757 0.006249584139447611
    vertex -1.127986593019159e-14 3.032677503901808 0.9559460536384116
    vertex -8.459899447643692e-15 2.0403371050799097 1.129123226692757
  endloop
endfacet
facet normal 1.0 -5.982517501182862e-15 -5.0564748986188356e-14
  outer loop
    vertex -1.127986593019159e-14 3.032677503901808 0.9559460536384116
    vertex 5.639932965095795e-15 2.275258263868053 1.380175841872528
    vertex -8.459899447643692e-15 2.0403371050799097 1.129123226692757
  endloop
endfacet
facet normal 1.0 1.989103483843405e-14 -4.370146689116055e-15
  outer loop
    vertex -1.127986593019159e-14 3.032677503901808 0.9559460536384116
    vertex -2.8199664825478975e-15 2.700570446786622 1.3801758418725265
    vertex 5.639932965095795e-15 2.275258263868053 1.380175841872528
  endloop
endfacet
facet normal 1.0 -1.5589670859918052e-14 -8.300651955884017e-15
  outer loop
    vertex 1.127986593019159e-14 4.985434043213757 0.006249584139447611
    vertex 1.127986593019159e-14 4.479772318352681 0.9559460536383984
    vertex -1.127986593019159e-14 3.032677503901808 0.9559460536384116
  endloop
endfacet
facet normal -5.438506787771045e-15 -1.0 -4.97784496661402e-15
  outer loop
    vertex 34.99999999999998 -2.0021762026090072e-13 1.982762170198289
    vertex 0.0 0.0 0.0
    vertex 35.0 -1.903477375719831e-13 -7.12768559452126e-13
  endloop
endfacet
facet normal -5.3579363168411386e-15 -1.0 -6.4000863856465205e-15
  outer loop
    vertex -1.127986593019159e-14 -1.2689849171465539e-14 1.9827621701990077
    vertex 0.0 0.0 0.0
    vertex 34.99999999999998 -2.0021762026090072e-13 1.982762170198289
  endloop
endfacet
facet normal -2.036481598434644e-14 3.672736970191985e-15 -1.0
  outer loop
    vertex 35.0 -1.903477375719831e-13 -7.12768559452126e-13
    vertex 0.0 0.0 0.0
    vertex 1.973976537783528e-14 1.919526572032623 7.049916206369744e-15
  endloop
endfacet
facet normal -2.0595826631465894e-14 -5.394332424965738e-16 -1.0
  outer loop
    vertex 35.00000000000003 1.9195265720324368 -7.138040158949366e-13
    vertex 35.0 -1.903477375719831e-13 -7.12768559452126e-13
    vertex 1.973976537783528e-14 1.919526572032623 7.049916206369744e-15
  endloop
endfacet
facet normal 3.09657839805811e-15 0.9943247170666043 -0.10638776729689062
  outer loop
    vertex 35.0 2.040337105079718 1.129123226692046
    vertex 35.00000000000003 1.9195265720324368 -7.138040158949366e-13
    vertex 1.973976537783528e-14 1.919526572032623 7.049916206369744e-15
  endloop
endfacet
facet normal 3.2854639565349052e-15 0.9943247170666036 -0.10638776729689643
  outer loop
    vertex -8.459899447643692e-15 2.0403371050799097 1.129123226692757
    vertex 35.0 2.040337105079718 1.129123226692046
    vertex 1.973976537783528e-14 1.919526572032623 7.049916206369744e-15
  endloop
endfacet
facet normal -9.882073746614239e-15 0.7301763853945386 -0.6832586964043461
  outer loop
    vertex 34.99999999999996 2.275258263867867 1.3801758418718095
    vertex 35.0 2.040337105079718 1.129123226692046
    vertex -8.459899447643692e-15 2.0403371050799097 1.129123226692757
  endloop
endfacet
facet normal -1.0144645453679028e-14 0.7301763853945569 -0.6832586964043265
  outer loop
    vertex 5.639932965095795e-15 2.275258263868053 1.380175841872528
    vertex 34.99999999999996 2.275258263867867 1.3801758418718095
    vertex -8.459899447643692e-15 2.0403371050799097 1.129123226692757
  endloop
endfacet
facet normal -2.0510220506102856e-14 -3.729569032206667e-15 -1.0
  outer loop
    vertex 35.0 2.700570446786444 1.3801758418718086
    vertex 5.639932965095795e-15 2.275258263868053 1.380175841872528
    vertex -2.8199664825478975e-15 2.700570446786622 1.3801758418725265
  endloop
endfacet
facet normal -2.0530363123835356e-14 -2.071982795668179e-15 -1.0
  outer loop
    vertex 35.0 2.700570446786444 1.3801758418718086
    vertex 34.99999999999996 2.275258263867867 1.3801758418718095
    vertex 5.639932965095795e-15 2.275258263868053 1.380175841872528
  endloop
endfacet
facet normal -2.0666325793529663e-14 -9.134572769482944e-15 -1.0
  outer loop
    vertex 34.99999999999996 3.0326775039016187 0.9559460536376883
    vertex -1.127986593019159e-14 3.032677503901808 0.9559460536384116
    vertex 1.127986593019159e-14 4.479772318352681 0.9559460536383984
  endloop
endfacet
facet normal -2.04850422339373e-14 -4.749977840131794e-15 -1.0
  outer loop
    vertex 34.99999999999996 3.0326775039016187 0.9559460536376883
    vertex 1.127986593019159e-14 4.479772318352681 0.9559460536383984
    vertex 34.999999999999915 4.479772318352494 0.9559460536376814
  endloop
endfacet
facet normal -1.4407128079741504e-14 -0.8826780862958968 -0.46997808031121346
  outer loop
    vertex 34.999999999999915 4.479772318352494 0.9559460536376814
    vertex 1.127986593019159e-14 4.985434043213757 0.006249584139447611
    vertex 35.00000000000005 4.98543404321357 0.006249584138724301
  endloop
endfacet
facet normal -1.4319248823419616e-14 -0.8826780862958955 -0.469978080311216
  outer loop
    vertex 1.127986593019159e-14 4.479772318352681 0.9559460536383984
    vertex 1.127986593019159e-14 4.985434043213757 0.006249584139447611
    vertex 34.999999999999915 4.479772318352494 0.9559460536376814
  endloop
endfacet
facet normal 5.5296534412974565e-15 1.0 -1.148067295946999e-14
  outer loop
    vertex 35.00000000000003 4.985434043213592 2.005277894264641
    vertex 34.999999999999936 4.985434043213582 1.0227687704516757
    vertex 2.3618144791527134 4.985434043213762 1.0227687704523503
  endloop
endfacet
facet normal 4.775932246057911e-15 1.0 1.3557356311722693e-14
  outer loop
    vertex 35.00000000000003 4.985434043213592 2.005277894264641
    vertex 2.3618144791527134 4.985434043213762 1.0227687704523503
    vertex 1.4099832412739488e-14 4.985434043213774 1.022768770452399
  endloop
endfacet
facet normal 5.317651081375918e-15 1.0 -5.7403364797348595e-15
  outer loop
    vertex 3.3839597790574766e-14 4.985434043213779 2.0052778942653595
    vertex 35.00000000000003 4.985434043213592 2.005277894264641
    vertex 1.4099832412739488e-14 4.985434043213774 1.022768770452399
  endloop
endfacet
facet normal 1.0 1.2278497079105395e-13 6.537631981508563e-14
  outer loop
    vertex 0.0 4.985434043213762 0.1787870711392585
    vertex 1.127986593019159e-14 4.479772318352681 0.9559460536383984
    vertex 1.127986593019159e-14 4.985434043213757 0.006249584139447611
  endloop
endfacet
facet normal 1.0 3.611912050027239e-13 3.3484273038984523e-13
  outer loop
    vertex 34.99999999999998 4.985434043213592 0.20837192229534127
    vertex 34.999999999999915 4.479772318352494 0.9559460536376814
    vertex 35.00000000000005 4.98543404321357 0.006249584138724301
  endloop
endfacet
endsolid Untitled-5a214677
