solid Key_Blank_L
facet normal 0.6501234473631746 -0.7598286011914934 1.5265566588595902e-16
  outer loop
    vertex 58.78684347644884 9.544933969753524 1.7381903369819136
    vertex 54.886073828342326 6.207363092558397 2.7547095232948555
    vertex 54.886073828342326 6.207363092558398 1.7381903369819094
  endloop
endfacet
facet normal 0.6501234473631746 -0.7598286011914934 1.5265566588595902e-16
  outer loop
    vertex 54.886073828342326 6.207363092558397 2.7547095232948555
    vertex 58.78684347644884 9.544933969753524 1.7381903369819136
    vertex 58.78684347644884 9.544933969753526 2.754709523294859
  endloop
endfacet
facet normal 1.0 -2.67170438489716e-15 -1.033395942167335e-14
  outer loop
    vertex 58.78684347644886 10.634337592356953 0.7609591074342892
    vertex 58.78684347644885 9.743801471643357 1.5662655900144353
    vertex 58.78684347644884 9.743801471643337 0.7556812131689422
  endloop
endfacet
facet normal 1.0 -2.67170438489716e-15 -1.033395942167335e-14
  outer loop
    vertex 58.78684347644885 9.743801471643357 1.5662655900144353
    vertex 58.78684347644886 10.634337592356953 0.7609591074342892
    vertex 58.78684347644884 10.24946319650444 1.8050130537959026
  endloop
endfacet
facet normal 1.0 -2.67170438489716e-15 -1.033395942167335e-14
  outer loop
    vertex 58.78684347644884 10.24946319650444 1.8050130537959026
    vertex 58.78684347644886 10.634337592356953 0.7609591074342892
    vertex 58.78684347644884 11.696558010955311 1.8050130537958953
  endloop
endfacet
facet normal 1.0 -2.67170438489716e-15 -1.033395942167335e-14
  outer loop
    vertex 58.78684347644884 11.696558010955311 1.8050130537958953
    vertex 58.78684347644886 10.634337592356953 0.7609591074342892
    vertex 58.78684347644886 11.141414915340233 1.2190928926407707
  endloop
endfacet
facet normal 1.0 -2.67170438489716e-15 -1.033395942167335e-14
  outer loop
    vertex 58.78684347644884 11.696558010955311 1.8050130537958953
    vertex 58.78684347644886 11.141414915340233 1.2190928926407707
    vertex 58.78684347644886 11.6858999746375 1.2190928926407687
  endloop
endfacet
facet normal 1.0 -2.67170438489716e-15 -1.033395942167335e-14
  outer loop
    vertex 58.78684347644884 11.696558010955311 1.8050130537958953
    vertex 58.78684347644886 11.6858999746375 1.2190928926407687
    vertex 58.78684347644884 11.952463269758297 0.7609591074342972
  endloop
endfacet
facet normal 1.0 -2.67170438489716e-15 -1.033395942167335e-14
  outer loop
    vertex 58.78684347644884 11.696558010955311 1.8050130537958953
    vertex 58.78684347644884 11.952463269758297 0.7609591074342972
    vertex 58.78684347644884 12.028665068070488 1.3807832655617749
  endloop
endfacet
facet normal 1.0 -2.67170438489716e-15 -1.033395942167335e-14
  outer loop
    vertex 58.78684347644884 12.028665068070488 1.3807832655617749
    vertex 58.78684347644884 11.952463269758297 0.7609591074342972
    vertex 58.78684347644884 12.965112019251439 0.7609591074343104
  endloop
endfacet
facet normal 1.0 -2.67170438489716e-15 -1.033395942167335e-14
  outer loop
    vertex 58.78684347644884 12.028665068070488 1.3807832655617749
    vertex 58.78684347644884 12.965112019251439 0.7609591074343104
    vertex 58.78684347644884 12.453977250989068 1.3807832655617749
  endloop
endfacet
facet normal 1.0 -2.67170438489716e-15 -1.033395942167335e-14
  outer loop
    vertex 58.78684347644884 12.453977250989068 1.3807832655617749
    vertex 58.78684347644884 12.965112019251439 0.7609591074343104
    vertex 58.78684347644885 12.688898409777211 1.6318358807415385
  endloop
endfacet
facet normal 1.0 -2.67170438489716e-15 -1.033395942167335e-14
  outer loop
    vertex 58.78684347644885 12.688898409777211 1.6318358807415385
    vertex 58.78684347644884 12.965112019251439 0.7609591074343104
    vertex 58.78684347644889 12.809708942824496 2.760959107434297
  endloop
endfacet
facet normal 1.0 -2.67170438489716e-15 -1.033395942167335e-14
  outer loop
    vertex 58.78684347644889 12.809708942824496 2.760959107434297
    vertex 58.78684347644884 12.965112019251439 0.7609591074343104
    vertex 58.78684347644886 13.064041050981062 1.5229442085583422
  endloop
endfacet
facet normal 1.0 -2.67170438489716e-15 -1.033395942167335e-14
  outer loop
    vertex 58.78684347644889 12.809708942824496 2.760959107434297
    vertex 58.78684347644886 13.064041050981062 1.5229442085583422
    vertex 58.78684347644889 14.729235514857127 2.7609591074342967
  endloop
endfacet
facet normal 1.0 -2.67170438489716e-15 -1.033395942167335e-14
  outer loop
    vertex 58.78684347644889 14.729235514857127 2.7609591074342967
    vertex 58.78684347644886 13.064041050981062 1.5229442085583422
    vertex 58.78684347644886 13.859311560704011 1.5229442085583484
  endloop
endfacet
facet normal 1.0 -2.67170438489716e-15 -1.033395942167335e-14
  outer loop
    vertex 58.78684347644889 14.729235514857127 2.7609591074342967
    vertex 58.78684347644886 13.859311560704011 1.5229442085583484
    vertex 58.78684347644884 13.85931156070404 0.9092116724593623
  endloop
endfacet
facet normal 1.0 -2.67170438489716e-15 -1.033395942167335e-14
  outer loop
    vertex 58.78684347644889 14.729235514857127 2.7609591074342967
    vertex 58.78684347644884 13.85931156070404 0.9092116724593623
    vertex 58.78684347644883 13.943334435946047 0.8476709372353078
  endloop
endfacet
facet normal 1.0 -2.67170438489716e-15 -1.033395942167335e-14
  outer loop
    vertex 58.78684347644889 14.729235514857127 2.7609591074342967
    vertex 58.78684347644883 13.943334435946047 0.8476709372353078
    vertex 58.78684347644883 13.943334435946054 0.7781969372352865
  endloop
endfacet
facet normal 1.0 -2.67170438489716e-15 -1.033395942167335e-14
  outer loop
    vertex 58.78684347644889 14.729235514857127 2.7609591074342967
    vertex 58.78684347644883 13.943334435946054 0.7781969372352865
    vertex 58.78684347644883 14.729235514857137 0.7781969372352949
  endloop
endfacet
facet normal 1.0 -2.67170438489716e-15 -1.033395942167335e-14
  outer loop
    vertex 58.78684347644885 9.743801471643357 1.5662655900144353
    vertex 58.78684347644884 9.544933969753526 2.754709523294859
    vertex 58.78684347644884 9.544933969753524 1.7381903369819136
  endloop
endfacet
facet normal 1.0 -2.67170438489716e-15 -1.033395942167335e-14
  outer loop
    vertex 58.78684347644884 9.544933969753526 2.754709523294859
    vertex 58.78684347644885 9.743801471643357 1.5662655900144353
    vertex 58.78684347644884 9.631539237989488 2.718556523294856
  endloop
endfacet
facet normal 1.0 -2.67170438489716e-15 -1.033395942167335e-14
  outer loop
    vertex 58.78684347644884 9.631539237989488 2.718556523294856
    vertex 58.78684347644885 9.743801471643357 1.5662655900144353
    vertex 58.78684347644884 10.24946319650444 1.8050130537959026
  endloop
endfacet
facet normal 1.0 -2.67170438489716e-15 -1.033395942167335e-14
  outer loop
    vertex 58.78684347644884 9.631539237989493 2.754709523294856
    vertex 58.78684347644884 9.544933969753526 2.754709523294859
    vertex 58.78684347644884 9.631539237989488 2.718556523294856
  endloop
endfacet
facet normal 0.9238795244795893 0.3826834257674544 0.0001410328103951149
  outer loop
    vertex 3.232585825208927 9.884664863293839 0.7605620279142983
    vertex 2.947539085841957 10.572091424984691 2.7607662969135593
    vertex 3.2323220791255878 9.88456445327039 2.76076933449856
  endloop
endfacet
facet normal 0.9238795244795893 0.3826834257674544 0.0001410328103951149
  outer loop
    vertex 2.947539085841957 10.572091424984691 2.7607662969135593
    vertex 3.232585825208927 9.884664863293839 0.7605620279142983
    vertex 2.947802831925296 10.572191835008153 0.7605589903293075
  endloop
endfacet
facet normal 0.7933533333942601 0.6087614229902186 0.00013517078068051022
  outer loop
    vertex 3.685610145800182 9.294272066797818 0.7605921258123837
    vertex 3.2323220791255878 9.88456445327039 2.76076933449856
    vertex 3.685346399716843 9.294171656774353 2.7607994323966465
  endloop
endfacet
facet normal 0.7933533333942601 0.6087614229902186 0.00013517078068051022
  outer loop
    vertex 3.2323220791255878 9.88456445327039 2.76076933449856
    vertex 3.685610145800182 9.294272066797818 0.7605921258123837
    vertex 3.232585825208927 9.884664863293839 0.7605620279142983
  endloop
endfacet
facet normal 0.6087614237164857 0.7933533352620178 0.00012009708564327676
  outer loop
    vertex 3.685346399716843 9.294171656774353 2.7607994323966465
    vertex 4.276002934908854 8.841247738931044 0.7606472329015406
    vertex 3.685610145800182 9.294272066797818 0.7605921258123837
  endloop
endfacet
facet normal 0.6087614237164857 0.7933533352620178 0.00012009708564327676
  outer loop
    vertex 4.276002934908854 8.841247738931044 0.7606472329015406
    vertex 3.685346399716843 9.294171656774353 2.7607994323966465
    vertex 4.275739188825515 8.841147328907583 2.7608545394857993
  endloop
endfacet
facet normal 0.3826834290382508 0.923879528814087 9.683897268949332e-05
  outer loop
    vertex 4.275739188825515 8.841147328907583 2.7608545394857993
    vertex 4.963529899627404 8.55646473897954 0.7607235937247093
    vertex 4.276002934908854 8.841247738931044 0.7606472329015406
  endloop
endfacet
facet normal 0.3826834290382508 0.923879528814087 9.683897268949332e-05
  outer loop
    vertex 4.963529899627404 8.55646473897954 0.7607235937247093
    vertex 4.275739188825515 8.841147328907583 2.7608545394857993
    vertex 4.9632661535440645 8.55636432895607 2.760930900308968
  endloop
endfacet
facet normal 0.1305261910853299 0.9914448592605855 6.698144378045057e-05
  outer loop
    vertex 4.9632661535440645 8.55636432895607 2.760930900308968
    vertex 5.701337213502291 8.45933055776384 0.760816004417968
    vertex 4.963529899627404 8.55646473897954 0.7607235937247093
  endloop
endfacet
facet normal 0.1305261910853299 0.9914448592605855 6.698144378045057e-05
  outer loop
    vertex 5.701337213502291 8.45933055776384 0.760816004417968
    vertex 4.9632661535440645 8.55636432895607 2.760930900308968
    vertex 5.7010734674189525 8.45923014774037 2.761023311002231
  endloop
endfacet
facet normal -0.13052619108533156 0.9914448609885733 3.255924016969114e-05
  outer loop
    vertex 5.7010734674189525 8.45923014774037 2.761023311002231
    vertex 6.439144527377177 8.556464729211982 0.7609181673453159
    vertex 5.701337213502291 8.45933055776384 0.760816004417968
  endloop
endfacet
facet normal -0.13052619108533156 0.9914448609885733 3.255924016969114e-05
  outer loop
    vertex 6.439144527377177 8.556464729211982 0.7609181673453159
    vertex 5.7010734674189525 8.45923014774037 2.761023311002231
    vertex 6.438880781293837 8.556364319188509 2.761125473929575
  endloop
endfacet
facet normal -0.3826834290382513 0.9238795338802914 -4.081821851312228e-06
  outer loop
    vertex 6.438880781293837 8.556364319188509 2.761125473929575
    vertex 7.126671492095726 8.841247720061574 0.761023120272061
    vertex 6.439144527377177 8.556464729211982 0.7609181673453159
  endloop
endfacet
facet normal -0.3826834290382513 0.9238795338802914 -4.081821851312228e-06
  outer loop
    vertex 7.126671492095726 8.841247720061574 0.761023120272061
    vertex 6.438880781293837 8.556364319188509 2.761125473929575
    vertex 7.1264077460123865 8.841147310038108 2.761230426856311
  endloop
endfacet
facet normal -0.6087614237164857 0.7933533433211856 -4.0444714459506044e-05
  outer loop
    vertex 7.1264077460123865 8.841147310038108 2.761230426856311
    vertex 7.717064281204399 9.29427204011236 0.7611237108296997
    vertex 7.126671492095726 8.841247720061574 0.761023120272061
  endloop
endfacet
facet normal -0.6087614237164857 0.7933533433211856 -4.0444714459506044e-05
  outer loop
    vertex 7.717064281204399 9.29427204011236 0.7611237108296997
    vertex 7.1264077460123865 8.841147310038108 2.761230426856311
    vertex 7.716800535121059 9.29417163008889 2.7613310174139594
  endloop
endfacet
facet normal -0.7933533333942603 0.6087614334931304 -7.40513666152437e-05
  outer loop
    vertex 8.169824855712312 9.884564420587498 2.7614203905222197
    vertex 7.717064281204399 9.29427204011236 0.7611237108296997
    vertex 7.716800535121059 9.29417163008889 2.7613310174139594
  endloop
endfacet
facet normal -0.7933533333942603 0.6087614334931304 -7.40513666152437e-05
  outer loop
    vertex 7.717064281204399 9.29427204011236 0.7611237108296997
    vertex 8.169824855712312 9.884564420587498 2.7614203905222197
    vertex 8.170088601795653 9.88466483061096 0.7612130839379623
  endloop
endfacet
facet normal -0.923879524479589 0.3826834379983547 -0.00010261154051116606
  outer loop
    vertex 8.454607848995945 10.572091388531666 2.7614924555514766
    vertex 8.170088601795653 9.88466483061096 0.7612130839379623
    vertex 8.169824855712312 9.884564420587498 2.7614203905222197
  endloop
endfacet
facet normal -0.923879524479589 0.3826834379983547 -0.00010261154051116606
  outer loop
    vertex 8.170088601795653 9.88466483061096 0.7612130839379623
    vertex 8.454607848995945 10.572091388531666 2.7614924555514766
    vertex 8.454871595079286 10.572191798555139 0.7612851489672279
  endloop
endfacet
facet normal -0.9914448527547371 0.13052619861827283 -0.00012417890749501052
  outer loop
    vertex 8.551742024605822 11.309898707248045 2.7615423013890714
    vertex 8.454871595079286 10.572191798555139 0.7612851489672279
    vertex 8.454607848995945 10.572091388531666 2.7614924555514766
  endloop
endfacet
facet normal -0.9914448527547371 0.13052619861827283 -0.00012417890749501052
  outer loop
    vertex 8.454871595079286 10.572191798555139 0.7612851489672279
    vertex 8.551742024605822 11.309898707248045 2.7615423013890714
    vertex 8.552005770689162 11.309999117271497 0.7613349948048138
  endloop
endfacet
facet normal -0.991444852754737 -0.1305261854929007 -0.00013728368714869925
  outer loop
    vertex 8.454607848995945 12.04770602725034 2.761566531123553
    vertex 8.552005770689162 11.309999117271497 0.7613349948048138
    vertex 8.551742024605822 11.309898707248045 2.7615423013890714
  endloop
endfacet
facet normal -0.991444852754737 -0.1305261854929007 -0.00013728368714869925
  outer loop
    vertex 8.552005770689162 11.309999117271497 0.7613349948048138
    vertex 8.454607848995945 12.04770602725034 2.761566531123553
    vertex 8.454871595079286 12.047806437273794 0.7613592245392893
  endloop
endfacet
facet normal -0.9238795244795889 -0.3826834257674554 -0.00014103281039512183
  outer loop
    vertex 8.169824855712312 12.735232998964632 2.761563493538548
    vertex 8.454871595079286 12.047806437273794 0.7613592245392893
    vertex 8.454607848995945 12.04770602725034 2.761566531123553
  endloop
endfacet
facet normal -0.9238795244795889 -0.3826834257674554 -0.00014103281039512183
  outer loop
    vertex 8.454871595079286 12.047806437273794 0.7613592245392893
    vertex 8.169824855712312 12.735232998964632 2.761563493538548
    vertex 8.170088601795653 12.735333408988112 0.7613561869542927
  endloop
endfacet
facet normal -0.7933533333942598 -0.6087614229902192 -0.00013517078068049637
  outer loop
    vertex 7.716800535121059 13.325625795460628 2.7615333956404684
    vertex 8.170088601795653 12.735333408988112 0.7613561869542927
    vertex 8.169824855712312 12.735232998964632 2.761563493538548
  endloop
endfacet
facet normal -0.7933533333942598 -0.6087614229902192 -0.00013517078068049637
  outer loop
    vertex 8.170088601795653 12.735333408988112 0.7613561869542927
    vertex 7.716800535121059 13.325625795460628 2.7615333956404684
    vertex 7.717064281204397 13.32572620548413 0.7613260890561986
  endloop
endfacet
facet normal -0.6087614237164851 -0.7933533352620182 -0.00012009708564313798
  outer loop
    vertex 7.717064281204397 13.32572620548413 0.7613260890561986
    vertex 7.1264077460123865 13.778650123327427 2.761478288551301
    vertex 7.126671492095726 13.778750533350907 0.7612709819670466
  endloop
endfacet
facet normal -0.6087614237164851 -0.7933533352620182 -0.00012009708564313798
  outer loop
    vertex 7.1264077460123865 13.778650123327427 2.761478288551301
    vertex 7.717064281204397 13.32572620548413 0.7613260890561986
    vertex 7.716800535121059 13.325625795460628 2.7615333956404684
  endloop
endfacet
facet normal -0.382683429038253 -0.9238795288140862 -9.683897268952107e-05
  outer loop
    vertex 7.126671492095726 13.778750533350907 0.7612709819670466
    vertex 6.438880781293837 14.063433123278937 2.7614019277281505
    vertex 6.439144527377177 14.06353353330243 0.7611946211438871
  endloop
endfacet
facet normal -0.382683429038253 -0.9238795288140862 -9.683897268952107e-05
  outer loop
    vertex 6.438880781293837 14.063433123278937 2.7614019277281505
    vertex 7.126671492095726 13.778750533350907 0.7612709819670466
    vertex 7.1264077460123865 13.778650123327427 2.761478288551301
  endloop
endfacet
facet normal -0.13052619108532806 -0.9914448592605858 -6.698144378032567e-05
  outer loop
    vertex 6.439144527377177 14.06353353330243 0.7611946211438871
    vertex 5.701073467418951 14.16056730449464 2.7613095170348805
    vertex 5.70133721350229 14.160667714518109 0.7611022104506202
  endloop
endfacet
facet normal -0.13052619108532806 -0.9914448592605858 -6.698144378032567e-05
  outer loop
    vertex 5.701073467418951 14.16056730449464 2.7613095170348805
    vertex 6.439144527377177 14.06353353330243 0.7611946211438871
    vertex 6.438880781293837 14.063433123278937 2.7614019277281505
  endloop
endfacet
facet normal 0.13052619108532784 -0.9914448609885738 -3.255924016944133e-05
  outer loop
    vertex 5.70133721350229 14.160667714518109 0.7611022104506202
    vertex 4.9632661535440645 14.063433133046507 2.761207354107539
    vertex 4.963529899627404 14.06353354306998 0.7610000475232765
  endloop
endfacet
facet normal 0.13052619108532784 -0.9914448609885738 -3.255924016944133e-05
  outer loop
    vertex 4.9632661535440645 14.063433133046507 2.761207354107539
    vertex 5.70133721350229 14.160667714518109 0.7611022104506202
    vertex 5.701073467418951 14.16056730449464 2.7613095170348805
  endloop
endfacet
facet normal 0.382683429038253 -0.9238795338802906 4.0818218514371285e-06
  outer loop
    vertex 4.963529899627404 14.06353354306998 0.7610000475232765
    vertex 4.275739188825517 13.7786501421969 2.7611024011807914
    vertex 4.276002934908856 13.77875055222039 0.7608950945965273
  endloop
endfacet
facet normal 0.382683429038253 -0.9238795338802906 4.0818218514371285e-06
  outer loop
    vertex 4.275739188825517 13.7786501421969 2.7611024011807914
    vertex 4.963529899627404 14.06353354306998 0.7610000475232765
    vertex 4.9632661535440645 14.063433133046507 2.761207354107539
  endloop
endfacet
facet normal 0.6087614237164846 -0.7933533433211861 4.044471445947134e-05
  outer loop
    vertex 4.276002934908856 13.77875055222039 0.7608950945965273
    vertex 3.685346399716842 13.325625822146101 2.7610018106231555
    vertex 3.685610145800181 13.325726232169604 0.7607945040388919
  endloop
endfacet
facet normal 0.6087614237164846 -0.7933533433211861 4.044471445947134e-05
  outer loop
    vertex 3.685346399716842 13.325625822146101 2.7610018106231555
    vertex 4.276002934908856 13.77875055222039 0.7608950945965273
    vertex 4.275739188825517 13.7786501421969 2.7611024011807914
  endloop
endfacet
facet normal 0.7933533333942603 -0.6087614334931304 7.40513666152437e-05
  outer loop
    vertex 3.232585825208927 12.735333441670997 0.7607051309306347
    vertex 3.685346399716842 13.325625822146101 2.7610018106231555
    vertex 3.2323220791255878 12.735233031647532 2.7609124375148855
  endloop
endfacet
facet normal 0.7933533333942603 -0.6087614334931304 7.40513666152437e-05
  outer loop
    vertex 3.685346399716842 13.325625822146101 2.7610018106231555
    vertex 3.232585825208927 12.735333441670997 0.7607051309306347
    vertex 3.685610145800181 13.325726232169604 0.7607945040388919
  endloop
endfacet
facet normal 0.9238795244795891 -0.38268343799835447 0.0001026115405111071
  outer loop
    vertex 2.947802831925296 12.047806473726817 0.7606330659013762
    vertex 3.2323220791255878 12.735233031647532 2.7609124375148855
    vertex 2.947539085841957 12.047706063703364 2.760840372485636
  endloop
endfacet
facet normal 0.9238795244795891 -0.38268343799835447 0.0001026115405111071
  outer loop
    vertex 3.2323220791255878 12.735233031647532 2.7609124375148855
    vertex 2.947802831925296 12.047806473726817 0.7606330659013762
    vertex 3.232585825208927 12.735333441670997 0.7607051309306347
  endloop
endfacet
facet normal 0.991444852754737 -0.13052619861827378 0.0001241789074946497
  outer loop
    vertex 2.8506686563154187 11.30999915501045 0.7605832200637773
    vertex 2.947539085841957 12.047706063703364 2.760840372485636
    vertex 2.8504049102320796 11.309898744986992 2.7607905266480373
  endloop
endfacet
facet normal 0.991444852754737 -0.13052619861827378 0.0001241789074946497
  outer loop
    vertex 2.947539085841957 12.047706063703364 2.760840372485636
    vertex 2.8506686563154187 11.30999915501045 0.7605832200637773
    vertex 2.947802831925296 12.047806473726817 0.7606330659013762
  endloop
endfacet
facet normal 0.9914448527547368 0.1305261854929023 0.00013728368714864027
  outer loop
    vertex 2.947802831925296 10.572191835008153 0.7605589903293075
    vertex 2.8504049102320796 11.309898744986992 2.7607905266480373
    vertex 2.947539085841957 10.572091424984691 2.7607662969135593
  endloop
endfacet
facet normal 0.9914448527547368 0.1305261854929023 0.00013728368714864027
  outer loop
    vertex 2.8504049102320796 11.309898744986992 2.7607905266480373
    vertex 2.947802831925296 10.572191835008153 0.7605589903293075
    vertex 2.8506686563154187 11.30999915501045 0.7605832200637773
  endloop
endfacet
facet normal -1.0 -2.7413110227926482e-15 -3.1595928139189307e-14
  outer loop
    vertex 23.78684347644886 11.141414915340233 1.2190928926407762
    vertex 23.78684347644887 11.952463269758299 0.7609591074342976
    vertex 23.786843476448873 10.634337592356951 0.7609591074342898
  endloop
endfacet
facet normal -1.0 -2.7413110227926482e-15 -3.1595928139189307e-14
  outer loop
    vertex 23.78684347644887 11.952463269758299 0.7609591074342976
    vertex 23.78684347644886 11.141414915340233 1.2190928926407762
    vertex 23.78684347644886 11.6858999746375 1.2190928926407736
  endloop
endfacet
facet normal -7.434759514984532e-18 0.9916770712364827 -0.12875009275271332
  outer loop
    vertex 23.78684347644886 13.064041050981068 1.52294420855835
    vertex 36.25796247644887 12.965112019251439 0.7609591074343104
    vertex 23.786843476448865 12.965112019251439 0.7609591074343104
  endloop
endfacet
facet normal -7.434759514984532e-18 0.9916770712364827 -0.12875009275271332
  outer loop
    vertex 36.25796247644887 12.965112019251439 0.7609591074343104
    vertex 23.78684347644886 13.064041050981068 1.52294420855835
    vertex 50.231576476448865 12.965112019251439 0.7609591074343104
  endloop
endfacet
facet normal -7.434759514984532e-18 0.9916770712364827 -0.12875009275271332
  outer loop
    vertex 50.231576476448865 12.965112019251439 0.7609591074343104
    vertex 23.78684347644886 13.064041050981068 1.52294420855835
    vertex 55.18032947644886 12.965112019251439 0.7609591074343104
  endloop
endfacet
facet normal -7.434759514984532e-18 0.9916770712364827 -0.12875009275271332
  outer loop
    vertex 55.18032947644886 12.965112019251439 0.7609591074343104
    vertex 23.78684347644886 13.064041050981068 1.52294420855835
    vertex 58.78684347644884 12.965112019251439 0.7609591074343104
  endloop
endfacet
facet normal -7.434759514984532e-18 0.9916770712364827 -0.12875009275271332
  outer loop
    vertex 58.78684347644884 12.965112019251439 0.7609591074343104
    vertex 23.78684347644886 13.064041050981068 1.52294420855835
    vertex 58.78684347644886 13.064041050981062 1.5229442085583422
  endloop
endfacet
facet normal 0.0 3.7470027081099023e-16 -1.0
  outer loop
    vertex 36.25796247644887 12.965112019251439 0.7609591074343104
    vertex 23.78684347644887 11.952463269758299 0.7609591074342976
    vertex 23.786843476448865 12.965112019251439 0.7609591074343104
  endloop
endfacet
facet normal 0.0 3.7470027081099023e-16 -1.0
  outer loop
    vertex 23.78684347644887 11.952463269758299 0.7609591074342976
    vertex 36.25796247644887 12.965112019251439 0.7609591074343104
    vertex 58.78684347644884 11.952463269758297 0.7609591074342972
  endloop
endfacet
facet normal 0.0 3.7470027081099023e-16 -1.0
  outer loop
    vertex 58.78684347644884 11.952463269758297 0.7609591074342972
    vertex 36.25796247644887 12.965112019251439 0.7609591074343104
    vertex 50.231576476448865 12.965112019251439 0.7609591074343104
  endloop
endfacet
facet normal 0.0 3.7470027081099023e-16 -1.0
  outer loop
    vertex 58.78684347644884 11.952463269758297 0.7609591074342972
    vertex 50.231576476448865 12.965112019251439 0.7609591074343104
    vertex 55.18032947644886 12.965112019251439 0.7609591074343104
  endloop
endfacet
facet normal 0.0 3.7470027081099023e-16 -1.0
  outer loop
    vertex 58.78684347644884 11.952463269758297 0.7609591074342972
    vertex 55.18032947644886 12.965112019251439 0.7609591074343104
    vertex 58.78684347644884 12.965112019251439 0.7609591074343104
  endloop
endfacet
facet normal 0.0 1.0 3.7470027081099023e-16
  outer loop
    vertex 23.786843476448848 9.631539237989488 2.718556523294862
    vertex 58.78684347644884 9.631539237989493 2.754709523294856
    vertex 58.78684347644884 9.631539237989488 2.718556523294856
  endloop
endfacet
facet normal 0.0 1.0 3.7470027081099023e-16
  outer loop
    vertex 58.78684347644884 9.631539237989493 2.754709523294856
    vertex 23.786843476448848 9.631539237989488 2.718556523294862
    vertex 23.786843476448848 9.63153923798949 2.754709523294859
  endloop
endfacet
facet normal 1.3974376268485825e-16 -3.7470027081099023e-16 1.0
  outer loop
    vertex 54.886073828342326 6.207363092558397 2.7547095232948555
    vertex 23.786843476448848 9.63153923798949 2.754709523294859
    vertex 23.786843476448848 6.207363092558391 2.754709523294858
  endloop
endfacet
facet normal 1.3974376268485825e-16 -3.7470027081099023e-16 1.0
  outer loop
    vertex 23.786843476448848 9.63153923798949 2.754709523294859
    vertex 54.886073828342326 6.207363092558397 2.7547095232948555
    vertex 58.78684347644884 9.631539237989493 2.754709523294856
  endloop
endfacet
facet normal 1.3974376268485825e-16 -3.7470027081099023e-16 1.0
  outer loop
    vertex 58.78684347644884 9.631539237989493 2.754709523294856
    vertex 54.886073828342326 6.207363092558397 2.7547095232948555
    vertex 58.78684347644884 9.544933969753526 2.754709523294859
  endloop
endfacet
facet normal 1.0 2.3800694206085893e-14 -1.417762404996283e-14
  outer loop
    vertex 23.78684347644883 13.94333443594606 0.7781969372352926
    vertex 23.78684347644886 13.064041050981068 1.52294420855835
    vertex 23.786843476448865 12.965112019251439 0.7609591074343104
  endloop
endfacet
facet normal 1.0 2.3800694206085893e-14 -1.417762404996283e-14
  outer loop
    vertex 23.78684347644886 13.064041050981068 1.52294420855835
    vertex 23.78684347644883 13.94333443594606 0.7781969372352926
    vertex 23.786843476448848 13.85931156070404 0.9092116724593715
  endloop
endfacet
facet normal 1.0 2.3800694206085893e-14 -1.417762404996283e-14
  outer loop
    vertex 23.78684347644886 13.064041050981068 1.52294420855835
    vertex 23.786843476448848 13.85931156070404 0.9092116724593715
    vertex 23.78684347644886 13.859311560704006 1.5229442085583562
  endloop
endfacet
facet normal 1.0 2.3800694206085893e-14 -1.417762404996283e-14
  outer loop
    vertex 23.786843476448848 13.85931156070404 0.9092116724593715
    vertex 23.78684347644883 13.94333443594606 0.7781969372352926
    vertex 23.78684347644883 13.943334435946047 0.8476709372353135
  endloop
endfacet
facet normal 0.0001296300710874978 5.0251296574807536e-05 -0.9999999903354259
  outer loop
    vertex 0.434354770844743 14.609251173166736 0.7609591074343035
    vertex 0.4343547708447472 8.01074709911522 0.7609591074343063
    vertex 0.0 11.309999136140974 0.7609591074342883
  endloop
endfacet
facet normal 0.0001296300710874978 5.0251296574807536e-05 -0.9999999903354259
  outer loop
    vertex 0.4343547708447472 8.01074709911522 0.7609591074343063
    vertex 0.434354770844743 14.609251173166736 0.7609591074343035
    vertex 1.707818523551102 17.68366463614096 0.760959107434306
  endloop
endfacet
facet normal 0.0001296300710874978 5.0251296574807536e-05 -0.9999999903354259
  outer loop
    vertex 0.4343547708447472 8.01074709911522 0.7609591074343063
    vertex 1.707818523551102 17.68366463614096 0.760959107434306
    vertex 1.7078185235511107 4.936333636140983 0.7609591074342993
  endloop
endfacet
facet normal 0.0001296300710874978 5.0251296574807536e-05 -0.9999999903354259
  outer loop
    vertex 1.7078185235511107 4.936333636140983 0.7609591074342993
    vertex 1.707818523551102 17.68366463614096 0.760959107434306
    vertex 3.733606807870503 20.323723328270475 0.7609591074343003
  endloop
endfacet
facet normal 0.0001296300710874978 5.0251296574807536e-05 -0.9999999903354259
  outer loop
    vertex 1.7078185235511107 4.936333636140983 0.7609591074342993
    vertex 3.733606807870503 20.323723328270475 0.7609591074343003
    vertex 2.8506686563154187 11.30999915501045 0.7605832200637773
  endloop
endfacet
facet normal 0.0001296300710874978 5.0251296574807536e-05 -0.9999999903354259
  outer loop
    vertex 2.8506686563154187 11.30999915501045 0.7605832200637773
    vertex 3.733606807870503 20.323723328270475 0.7609591074343003
    vertex 2.947802831925296 12.047806473726817 0.7606330659013762
  endloop
endfacet
facet normal 0.0001296300710874978 5.0251296574807536e-05 -0.9999999903354259
  outer loop
    vertex 2.947802831925296 12.047806473726817 0.7606330659013762
    vertex 3.733606807870503 20.323723328270475 0.7609591074343003
    vertex 3.232585825208927 12.735333441670997 0.7607051309306347
  endloop
endfacet
facet normal 0.0001296300710874978 5.0251296574807536e-05 -0.9999999903354259
  outer loop
    vertex 3.232585825208927 12.735333441670997 0.7607051309306347
    vertex 3.733606807870503 20.323723328270475 0.7609591074343003
    vertex 3.685610145800181 13.325726232169604 0.7607945040388919
  endloop
endfacet
facet normal 0.0001296300710874978 5.0251296574807536e-05 -0.9999999903354259
  outer loop
    vertex 3.685610145800181 13.325726232169604 0.7607945040388919
    vertex 3.733606807870503 20.323723328270475 0.7609591074343003
    vertex 4.276002934908856 13.77875055222039 0.7608950945965273
  endloop
endfacet
facet normal 0.0001296300710874978 5.0251296574807536e-05 -0.9999999903354259
  outer loop
    vertex 4.276002934908856 13.77875055222039 0.7608950945965273
    vertex 3.733606807870503 20.323723328270475 0.7609591074343003
    vertex 6.373665499999993 22.349511612589865 0.7609591074343005
  endloop
endfacet
facet normal 0.0001296300710874978 5.0251296574807536e-05 -0.9999999903354259
  outer loop
    vertex 4.276002934908856 13.77875055222039 0.7608950945965273
    vertex 6.373665499999993 22.349511612589865 0.7609591074343005
    vertex 4.963529899627404 14.06353354306998 0.7610000475232765
  endloop
endfacet
facet normal 0.0001296300710874978 5.0251296574807536e-05 -0.9999999903354259
  outer loop
    vertex 4.963529899627404 14.06353354306998 0.7610000475232765
    vertex 6.373665499999993 22.349511612589865 0.7609591074343005
    vertex 5.70133721350229 14.160667714518109 0.7611022104506202
  endloop
endfacet
facet normal 0.0001296300710874978 5.0251296574807536e-05 -0.9999999903354259
  outer loop
    vertex 5.70133721350229 14.160667714518109 0.7611022104506202
    vertex 6.373665499999993 22.349511612589865 0.7609591074343005
    vertex 6.439144527377177 14.06353353330243 0.7611946211438871
  endloop
endfacet
facet normal 0.0001296300710874978 5.0251296574807536e-05 -0.9999999903354259
  outer loop
    vertex 6.439144527377177 14.06353353330243 0.7611946211438871
    vertex 6.373665499999993 22.349511612589865 0.7609591074343005
    vertex 9.448078962974229 23.622975365296202 0.7609591074343035
  endloop
endfacet
facet normal 0.0001296300710874978 5.0251296574807536e-05 -0.9999999903354259
  outer loop
    vertex 6.439144527377177 14.06353353330243 0.7611946211438871
    vertex 9.448078962974229 23.622975365296202 0.7609591074343035
    vertex 7.126671492095726 13.778750533350907 0.7612709819670466
  endloop
endfacet
facet normal 0.0001296300710874978 5.0251296574807536e-05 -0.9999999903354259
  outer loop
    vertex 7.126671492095726 13.778750533350907 0.7612709819670466
    vertex 9.448078962974229 23.622975365296202 0.7609591074343035
    vertex 7.717064281204397 13.32572620548413 0.7613260890561986
  endloop
endfacet
facet normal 0.0001296300710874978 5.0251296574807536e-05 -0.9999999903354259
  outer loop
    vertex 7.717064281204397 13.32572620548413 0.7613260890561986
    vertex 9.448078962974229 23.622975365296202 0.7609591074343035
    vertex 8.170088601795653 12.735333408988112 0.7613561869542927
  endloop
endfacet
facet normal 0.0001296300710874978 5.0251296574807536e-05 -0.9999999903354259
  outer loop
    vertex 8.170088601795653 12.735333408988112 0.7613561869542927
    vertex 9.448078962974229 23.622975365296202 0.7609591074343035
    vertex 8.454871595079286 12.047806437273794 0.7613592245392893
  endloop
endfacet
facet normal 0.0001296300710874978 5.0251296574807536e-05 -0.9999999903354259
  outer loop
    vertex 8.454871595079286 12.047806437273794 0.7613592245392893
    vertex 9.448078962974229 23.622975365296202 0.7609591074343035
    vertex 8.552005770689162 11.309999117271497 0.7613349948048138
  endloop
endfacet
facet normal 0.0001296300710874978 5.0251296574807536e-05 -0.9999999903354259
  outer loop
    vertex 2.8506686563154187 11.30999915501045 0.7605832200637773
    vertex 3.73360680787051 2.2962749440114893 0.7609591074342924
    vertex 1.7078185235511107 4.936333636140983 0.7609591074342993
  endloop
endfacet
facet normal 0.0001296300710874978 5.0251296574807536e-05 -0.9999999903354259
  outer loop
    vertex 3.73360680787051 2.2962749440114893 0.7609591074342924
    vertex 2.8506686563154187 11.30999915501045 0.7605832200637773
    vertex 2.947802831925296 10.572191835008153 0.7605589903293075
  endloop
endfacet
facet normal 0.0001296300710874978 5.0251296574807536e-05 -0.9999999903354259
  outer loop
    vertex 3.73360680787051 2.2962749440114893 0.7609591074342924
    vertex 2.947802831925296 10.572191835008153 0.7605589903293075
    vertex 3.232585825208927 9.884664863293839 0.7605620279142983
  endloop
endfacet
facet normal 0.0001296300710874978 5.0251296574807536e-05 -0.9999999903354259
  outer loop
    vertex 3.73360680787051 2.2962749440114893 0.7609591074342924
    vertex 3.232585825208927 9.884664863293839 0.7605620279142983
    vertex 3.685610145800182 9.294272066797818 0.7605921258123837
  endloop
endfacet
facet normal 0.0001296300710874978 5.0251296574807536e-05 -0.9999999903354259
  outer loop
    vertex 3.73360680787051 2.2962749440114893 0.7609591074342924
    vertex 3.685610145800182 9.294272066797818 0.7605921258123837
    vertex 4.276002934908854 8.841247738931044 0.7606472329015406
  endloop
endfacet
facet normal 0.0001296300710874978 5.0251296574807536e-05 -0.9999999903354259
  outer loop
    vertex 3.73360680787051 2.2962749440114893 0.7609591074342924
    vertex 4.276002934908854 8.841247738931044 0.7606472329015406
    vertex 6.373665500000002 0.2704866596920996 0.7609591074343003
  endloop
endfacet
facet normal 0.0001296300710874978 5.0251296574807536e-05 -0.9999999903354259
  outer loop
    vertex 6.373665500000002 0.2704866596920996 0.7609591074343003
    vertex 4.276002934908854 8.841247738931044 0.7606472329015406
    vertex 4.963529899627404 8.55646473897954 0.7607235937247093
  endloop
endfacet
facet normal 0.0001296300710874978 5.0251296574807536e-05 -0.9999999903354259
  outer loop
    vertex 6.373665500000002 0.2704866596920996 0.7609591074343003
    vertex 4.963529899627404 8.55646473897954 0.7607235937247093
    vertex 5.701337213502291 8.45933055776384 0.760816004417968
  endloop
endfacet
facet normal 0.0001296300710874978 5.0251296574807536e-05 -0.9999999903354259
  outer loop
    vertex 6.373665500000002 0.2704866596920996 0.7609591074343003
    vertex 5.701337213502291 8.45933055776384 0.760816004417968
    vertex 6.439144527377177 8.556464729211982 0.7609181673453159
  endloop
endfacet
facet normal 0.0001296300710874978 5.0251296574807536e-05 -0.9999999903354259
  outer loop
    vertex 6.373665500000002 0.2704866596920996 0.7609591074343003
    vertex 6.439144527377177 8.556464729211982 0.7609181673453159
    vertex 9.448078962974241 -1.0029770930142616 0.7609591074342987
  endloop
endfacet
facet normal 0.0001296300710874978 5.0251296574807536e-05 -0.9999999903354259
  outer loop
    vertex 9.448078962974241 -1.0029770930142616 0.7609591074342987
    vertex 6.439144527377177 8.556464729211982 0.7609181673453159
    vertex 7.126671492095726 8.841247720061574 0.761023120272061
  endloop
endfacet
facet normal 0.0001296300710874978 5.0251296574807536e-05 -0.9999999903354259
  outer loop
    vertex 9.448078962974241 -1.0029770930142616 0.7609591074342987
    vertex 7.126671492095726 8.841247720061574 0.761023120272061
    vertex 7.717064281204399 9.29427204011236 0.7611237108296997
  endloop
endfacet
facet normal 0.0001296300710874978 5.0251296574807536e-05 -0.9999999903354259
  outer loop
    vertex 9.448078962974241 -1.0029770930142616 0.7609591074342987
    vertex 7.717064281204399 9.29427204011236 0.7611237108296997
    vertex 8.170088601795653 9.88466483061096 0.7612130839379623
  endloop
endfacet
facet normal 0.0001296300710874978 5.0251296574807536e-05 -0.9999999903354259
  outer loop
    vertex 9.448078962974241 -1.0029770930142616 0.7609591074342987
    vertex 8.170088601795653 9.88466483061096 0.7612130839379623
    vertex 8.454871595079286 10.572191798555139 0.7612851489672279
  endloop
endfacet
facet normal 0.0001296300710874978 5.0251296574807536e-05 -0.9999999903354259
  outer loop
    vertex 9.448078962974241 -1.0029770930142616 0.7609591074342987
    vertex 8.454871595079286 10.572191798555139 0.7612851489672279
    vertex 8.552005770689162 11.309999117271497 0.7613349948048138
  endloop
endfacet
facet normal 0.0001296300710874978 5.0251296574807536e-05 -0.9999999903354259
  outer loop
    vertex 9.448078962974241 -1.0029770930142616 0.7609591074342987
    vertex 8.552005770689162 11.309999117271497 0.7613349948048138
    vertex 9.448078962974229 23.622975365296202 0.7609591074343035
  endloop
endfacet
facet normal 0.0001296300710874978 5.0251296574807536e-05 -0.9999999903354259
  outer loop
    vertex 9.448078962974241 -1.0029770930142616 0.7609591074342987
    vertex 9.448078962974229 23.622975365296202 0.7609591074343035
    vertex 12.747330999999997 24.05733013614095 0.7609591074343122
  endloop
endfacet
facet normal 0.0001296300710874978 5.0251296574807536e-05 -0.9999999903354259
  outer loop
    vertex 9.448078962974241 -1.0029770930142616 0.7609591074342987
    vertex 12.747330999999997 24.05733013614095 0.7609591074343122
    vertex 12.747331 -1.4373318638590116 0.7609591074342967
  endloop
endfacet
facet normal 0.0001296300710874978 5.0251296574807536e-05 -0.9999999903354259
  outer loop
    vertex 12.747331 -1.4373318638590116 0.7609591074342967
    vertex 12.747330999999997 24.05733013614095 0.7609591074343122
    vertex 16.046583037025755 23.622975365296217 0.7609591074343047
  endloop
endfacet
facet normal 0.0001296300710874978 5.0251296574807536e-05 -0.9999999903354259
  outer loop
    vertex 12.747331 -1.4373318638590116 0.7609591074342967
    vertex 16.046583037025755 23.622975365296217 0.7609591074343047
    vertex 16.046583037025762 -1.0029770930142616 0.7609591074342987
  endloop
endfacet
facet normal 0.0001296300710874978 5.0251296574807536e-05 -0.9999999903354259
  outer loop
    vertex 16.046583037025762 -1.0029770930142616 0.7609591074342987
    vertex 16.046583037025755 23.622975365296217 0.7609591074343047
    vertex 19.120996499999997 22.349511612589875 0.7609591074343047
  endloop
endfacet
facet normal 0.0001296300710874978 5.0251296574807536e-05 -0.9999999903354259
  outer loop
    vertex 16.046583037025762 -1.0029770930142616 0.7609591074342987
    vertex 19.120996499999997 22.349511612589875 0.7609591074343047
    vertex 19.120996500000004 0.2704866596920925 0.7609591074342898
  endloop
endfacet
facet normal 0.0001296300710874978 5.0251296574807536e-05 -0.9999999903354259
  outer loop
    vertex 19.120996500000004 0.2704866596920925 0.7609591074342898
    vertex 19.120996499999997 22.349511612589875 0.7609591074343047
    vertex 21.76105519212949 20.323723328270475 0.7609591074343003
  endloop
endfacet
facet normal 0.0001296300710874978 5.0251296574807536e-05 -0.9999999903354259
  outer loop
    vertex 19.120996500000004 0.2704866596920925 0.7609591074342898
    vertex 21.76105519212949 20.323723328270475 0.7609591074343003
    vertex 21.761055192129493 2.2962749440114916 0.7609591074342871
  endloop
endfacet
facet normal 0.0001296300710874978 5.0251296574807536e-05 -0.9999999903354259
  outer loop
    vertex 21.761055192129493 2.2962749440114916 0.7609591074342871
    vertex 21.76105519212949 20.323723328270475 0.7609591074343003
    vertex 23.786843476448887 17.683664636140975 0.7609591074342961
  endloop
endfacet
facet normal 0.0001296300710874978 5.0251296574807536e-05 -0.9999999903354259
  outer loop
    vertex 21.761055192129493 2.2962749440114916 0.7609591074342871
    vertex 23.786843476448887 17.683664636140975 0.7609591074342961
    vertex 23.78684347644883 14.729235514857132 0.7781969372352991
  endloop
endfacet
facet normal 0.0001296300710874978 5.0251296574807536e-05 -0.9999999903354259
  outer loop
    vertex 23.786843476448865 12.965112019251439 0.7609591074343104
    vertex 23.786843476448833 9.743801471643335 0.7556812131689475
    vertex 23.78684347644883 13.94333443594606 0.7781969372352926
  endloop
endfacet
facet normal 0.0001296300710874978 5.0251296574807536e-05 -0.9999999903354259
  outer loop
    vertex 23.786843476448833 9.743801471643335 0.7556812131689475
    vertex 23.786843476448865 12.965112019251439 0.7609591074343104
    vertex 23.78684347644887 11.952463269758299 0.7609591074342976
  endloop
endfacet
facet normal 0.0001296300710874978 5.0251296574807536e-05 -0.9999999903354259
  outer loop
    vertex 23.786843476448833 9.743801471643335 0.7556812131689475
    vertex 23.78684347644887 11.952463269758299 0.7609591074342976
    vertex 23.786843476448873 10.634337592356951 0.7609591074342898
  endloop
endfacet
facet normal 0.0001296300710874978 5.0251296574807536e-05 -0.9999999903354259
  outer loop
    vertex 21.761055192129493 2.2962749440114916 0.7609591074342871
    vertex 23.786843476448833 9.743801471643335 0.7556812131689475
    vertex 23.78684347644889 4.9363336361409935 0.7609591074343048
  endloop
endfacet
facet normal 0.0001296300710874978 5.0251296574807536e-05 -0.9999999903354259
  outer loop
    vertex 23.786843476448833 9.743801471643335 0.7556812131689475
    vertex 21.761055192129493 2.2962749440114916 0.7609591074342871
    vertex 23.78684347644883 13.94333443594606 0.7781969372352926
  endloop
endfacet
facet normal 0.0001296300710874978 5.0251296574807536e-05 -0.9999999903354259
  outer loop
    vertex 23.78684347644883 13.94333443594606 0.7781969372352926
    vertex 21.761055192129493 2.2962749440114916 0.7609591074342871
    vertex 23.78684347644883 14.729235514857132 0.7781969372352991
  endloop
endfacet
facet normal 0.13052619222005152 0.9914448613738105 6.938893903907227e-17
  outer loop
    vertex 12.747330999999997 24.05733013614095 0.7609591074343122
    vertex 16.046583037025755 23.62297536529625 2.7609591074343056
    vertex 16.046583037025755 23.622975365296217 0.7609591074343047
  endloop
endfacet
facet normal 0.13052619222005152 0.9914448613738105 6.938893903907227e-17
  outer loop
    vertex 16.046583037025755 23.62297536529625 2.7609591074343056
    vertex 12.747330999999997 24.05733013614095 0.7609591074343122
    vertex 12.747330999999997 24.057330136140987 2.7609591074342825
  endloop
endfacet
facet normal -0.13052619222005202 0.9914448613738105 1.6653345369377348e-16
  outer loop
    vertex 9.448078962974229 23.62297536529625 2.7609591074343056
    vertex 12.747330999999997 24.05733013614095 0.7609591074343122
    vertex 9.448078962974229 23.622975365296202 0.7609591074343035
  endloop
endfacet
facet normal -0.13052619222005202 0.9914448613738105 1.6653345369377348e-16
  outer loop
    vertex 12.747330999999997 24.05733013614095 0.7609591074343122
    vertex 9.448078962974229 23.62297536529625 2.7609591074343056
    vertex 12.747330999999997 24.057330136140987 2.7609591074342825
  endloop
endfacet
facet normal -0.3826834323650906 0.9238795325112864 5.134781488891348e-16
  outer loop
    vertex 6.373665499999993 22.349511612589883 2.760959107434292
    vertex 9.448078962974229 23.622975365296202 0.7609591074343035
    vertex 6.373665499999993 22.349511612589865 0.7609591074343005
  endloop
endfacet
facet normal -0.3826834323650906 0.9238795325112864 5.134781488891348e-16
  outer loop
    vertex 9.448078962974229 23.622975365296202 0.7609591074343035
    vertex 6.373665499999993 22.349511612589883 2.760959107434292
    vertex 9.448078962974229 23.62297536529625 2.7609591074343056
  endloop
endfacet
facet normal -0.6087614290087205 0.7933533402912353 4.85722573273506e-17
  outer loop
    vertex 3.733606807870503 20.32372332827048 2.7609591074342847
    vertex 6.373665499999993 22.349511612589865 0.7609591074343005
    vertex 3.733606807870503 20.323723328270475 0.7609591074343003
  endloop
endfacet
facet normal -0.6087614290087205 0.7933533402912353 4.85722573273506e-17
  outer loop
    vertex 6.373665499999993 22.349511612589865 0.7609591074343005
    vertex 3.733606807870503 20.32372332827048 2.7609591074342847
    vertex 6.373665499999993 22.349511612589883 2.760959107434292
  endloop
endfacet
facet normal -0.793353340291236 0.6087614290087197 -1.6653345369377348e-16
  outer loop
    vertex 3.733606807870503 20.32372332827048 2.7609591074342847
    vertex 1.707818523551102 17.68366463614096 0.760959107434306
    vertex 1.707818523551102 17.68366463614096 2.7609591074342896
  endloop
endfacet
facet normal -0.793353340291236 0.6087614290087197 -1.6653345369377348e-16
  outer loop
    vertex 1.707818523551102 17.68366463614096 0.760959107434306
    vertex 3.733606807870503 20.32372332827048 2.7609591074342847
    vertex 3.733606807870503 20.323723328270475 0.7609591074343003
  endloop
endfacet
facet normal -0.923879532511287 0.38268343236508934 1.0408340855860843e-16
  outer loop
    vertex 1.707818523551102 17.68366463614096 2.7609591074342896
    vertex 0.434354770844743 14.609251173166736 0.7609591074343035
    vertex 0.434354770844743 14.609251173166719 2.760959107434286
  endloop
endfacet
facet normal -0.923879532511287 0.38268343236508934 1.0408340855860843e-16
  outer loop
    vertex 0.434354770844743 14.609251173166736 0.7609591074343035
    vertex 1.707818523551102 17.68366463614096 2.7609591074342896
    vertex 1.707818523551102 17.68366463614096 0.760959107434306
  endloop
endfacet
facet normal -0.9914448613738105 0.13052619222005124 9.71445146547012e-17
  outer loop
    vertex 0.0 11.309999136140982 2.7609591074342954
    vertex 0.434354770844743 14.609251173166736 0.7609591074343035
    vertex 0.0 11.309999136140974 0.7609591074342883
  endloop
endfacet
facet normal -0.9914448613738105 0.13052619222005124 9.71445146547012e-17
  outer loop
    vertex 0.434354770844743 14.609251173166736 0.7609591074343035
    vertex 0.0 11.309999136140982 2.7609591074342954
    vertex 0.434354770844743 14.609251173166719 2.760959107434286
  endloop
endfacet
facet normal -0.9914448613738104 -0.13052619222005207 -2.7755575615628914e-17
  outer loop
    vertex 0.0 11.309999136140982 2.7609591074342954
    vertex 0.4343547708447472 8.01074709911522 0.7609591074343063
    vertex 0.4343547708447472 8.01074709911522 2.7609591074342923
  endloop
endfacet
facet normal -0.9914448613738104 -0.13052619222005207 -2.7755575615628914e-17
  outer loop
    vertex 0.4343547708447472 8.01074709911522 0.7609591074343063
    vertex 0.0 11.309999136140982 2.7609591074342954
    vertex 0.0 11.309999136140974 0.7609591074342883
  endloop
endfacet
facet normal -0.9238795325112865 -0.38268343236509056 -6.245004513516506e-17
  outer loop
    vertex 0.4343547708447472 8.01074709911522 2.7609591074342923
    vertex 1.7078185235511107 4.936333636140983 0.7609591074342993
    vertex 1.7078185235511107 4.93633363614098 2.7609591074342825
  endloop
endfacet
facet normal -0.9238795325112865 -0.38268343236509056 -6.245004513516506e-17
  outer loop
    vertex 1.7078185235511107 4.936333636140983 0.7609591074342993
    vertex 0.4343547708447472 8.01074709911522 2.7609591074342923
    vertex 0.4343547708447472 8.01074709911522 0.7609591074343063
  endloop
endfacet
facet normal -0.7933533402912349 -0.608761429008721 -2.7755575615628914e-17
  outer loop
    vertex 3.73360680787051 2.2962749440114902 2.760959107434304
    vertex 1.7078185235511107 4.936333636140983 0.7609591074342993
    vertex 3.73360680787051 2.2962749440114893 0.7609591074342924
  endloop
endfacet
facet normal -0.7933533402912349 -0.608761429008721 -2.7755575615628914e-17
  outer loop
    vertex 1.7078185235511107 4.936333636140983 0.7609591074342993
    vertex 3.73360680787051 2.2962749440114902 2.760959107434304
    vertex 1.7078185235511107 4.93633363614098 2.7609591074342825
  endloop
endfacet
facet normal 0.6087614290087205 0.7933533402912353 4.85722573273506e-17
  outer loop
    vertex 19.120996499999997 22.349511612589875 0.7609591074343047
    vertex 21.76105519212949 20.323723328270486 2.7609591074342874
    vertex 21.76105519212949 20.323723328270475 0.7609591074343003
  endloop
endfacet
facet normal 0.6087614290087205 0.7933533402912353 4.85722573273506e-17
  outer loop
    vertex 21.76105519212949 20.323723328270486 2.7609591074342874
    vertex 19.120996499999997 22.349511612589875 0.7609591074343047
    vertex 19.120996499999997 22.349511612589883 2.7609591074342923
  endloop
endfacet
facet normal 0.7933533402912354 0.6087614290087203 4.163336342344336e-17
  outer loop
    vertex 23.786843476448887 17.683664636140975 0.7609591074342961
    vertex 21.76105519212949 20.323723328270486 2.7609591074342874
    vertex 23.786843476448887 17.68366463614097 2.7609591074342967
  endloop
endfacet
facet normal 0.7933533402912354 0.6087614290087203 4.163336342344336e-17
  outer loop
    vertex 21.76105519212949 20.323723328270486 2.7609591074342874
    vertex 23.786843476448887 17.683664636140975 0.7609591074342961
    vertex 21.76105519212949 20.323723328270475 0.7609591074343003
  endloop
endfacet
facet normal 0.7933533402912354 -0.6087614290087203 -2.7755575615628907e-17
  outer loop
    vertex 23.78684347644889 4.9363336361409935 0.7609591074343048
    vertex 21.761055192129493 2.296274944011497 2.7609591074343003
    vertex 21.761055192129493 2.2962749440114916 0.7609591074342871
  endloop
endfacet
facet normal 0.7933533402912354 -0.6087614290087203 -2.7755575615628907e-17
  outer loop
    vertex 21.761055192129493 2.296274944011497 2.7609591074343003
    vertex 23.78684347644889 4.9363336361409935 0.7609591074343048
    vertex 23.78684347644889 4.936333636140993 2.7609591074342834
  endloop
endfacet
facet normal 0.6087614290087209 -0.7933533402912349 4.8572257327350586e-17
  outer loop
    vertex 21.761055192129493 2.296274944011497 2.7609591074343003
    vertex 19.120996500000004 0.2704866596920925 0.7609591074342898
    vertex 21.761055192129493 2.2962749440114916 0.7609591074342871
  endloop
endfacet
facet normal 0.6087614290087209 -0.7933533402912349 4.8572257327350586e-17
  outer loop
    vertex 19.120996500000004 0.2704866596920925 0.7609591074342898
    vertex 21.761055192129493 2.296274944011497 2.7609591074343003
    vertex 19.120996500000004 0.2704866596921074 2.760959107434311
  endloop
endfacet
facet normal 0.3826834323650905 -0.9238795325112864 -5.134781488891348e-16
  outer loop
    vertex 19.120996500000004 0.2704866596921074 2.760959107434311
    vertex 16.046583037025762 -1.0029770930142616 0.7609591074342987
    vertex 19.120996500000004 0.2704866596920925 0.7609591074342898
  endloop
endfacet
facet normal 0.3826834323650905 -0.9238795325112864 -5.134781488891348e-16
  outer loop
    vertex 16.046583037025762 -1.0029770930142616 0.7609591074342987
    vertex 19.120996500000004 0.2704866596921074 2.760959107434311
    vertex 16.046583037025762 -1.0029770930142619 2.760959107434297
  endloop
endfacet
facet normal 0.13052619222005185 -0.9914448613738105 2.636779683484747e-16
  outer loop
    vertex 16.046583037025762 -1.0029770930142616 0.7609591074342987
    vertex 12.747331 -1.4373318638590082 2.760959107434291
    vertex 12.747331 -1.4373318638590116 0.7609591074342967
  endloop
endfacet
facet normal 0.13052619222005185 -0.9914448613738105 2.636779683484747e-16
  outer loop
    vertex 12.747331 -1.4373318638590082 2.760959107434291
    vertex 16.046583037025762 -1.0029770930142616 0.7609591074342987
    vertex 16.046583037025762 -1.0029770930142619 2.760959107434297
  endloop
endfacet
facet normal -0.1305261922200513 -0.9914448613738105 1.52655665885959e-16
  outer loop
    vertex 12.747331 -1.4373318638590082 2.760959107434291
    vertex 9.448078962974241 -1.0029770930142616 0.7609591074342987
    vertex 12.747331 -1.4373318638590116 0.7609591074342967
  endloop
endfacet
facet normal -0.1305261922200513 -0.9914448613738105 1.52655665885959e-16
  outer loop
    vertex 9.448078962974241 -1.0029770930142616 0.7609591074342987
    vertex 12.747331 -1.4373318638590082 2.760959107434291
    vertex 9.448078962974241 -1.002977093014268 2.760959107434299
  endloop
endfacet
facet normal 0.3826834323650899 0.9238795325112868 5.551115123125783e-16
  outer loop
    vertex 16.046583037025755 23.62297536529625 2.7609591074343056
    vertex 19.120996499999997 22.349511612589875 0.7609591074343047
    vertex 16.046583037025755 23.622975365296217 0.7609591074343047
  endloop
endfacet
facet normal 0.3826834323650899 0.9238795325112868 5.551115123125783e-16
  outer loop
    vertex 19.120996499999997 22.349511612589875 0.7609591074343047
    vertex 16.046583037025755 23.62297536529625 2.7609591074343056
    vertex 19.120996499999997 22.349511612589883 2.7609591074342923
  endloop
endfacet
facet normal -0.6087614290087207 -0.793353340291235 2.081668171172168e-17
  outer loop
    vertex 6.373665500000002 0.2704866596920996 0.7609591074343003
    vertex 3.73360680787051 2.2962749440114902 2.760959107434304
    vertex 3.73360680787051 2.2962749440114893 0.7609591074342924
  endloop
endfacet
facet normal -0.6087614290087207 -0.793353340291235 2.081668171172168e-17
  outer loop
    vertex 3.73360680787051 2.2962749440114902 2.760959107434304
    vertex 6.373665500000002 0.2704866596920996 0.7609591074343003
    vertex 6.373665500000002 0.2704866596920993 2.7609591074343056
  endloop
endfacet
facet normal -0.3826834323650896 -0.9238795325112868 -3.1918911957973246e-16
  outer loop
    vertex 9.448078962974241 -1.002977093014268 2.760959107434299
    vertex 6.373665500000002 0.2704866596920996 0.7609591074343003
    vertex 9.448078962974241 -1.0029770930142616 0.7609591074342987
  endloop
endfacet
facet normal -0.3826834323650896 -0.9238795325112868 -3.1918911957973246e-16
  outer loop
    vertex 6.373665500000002 0.2704866596920996 0.7609591074343003
    vertex 9.448078962974241 -1.002977093014268 2.760959107434299
    vertex 6.373665500000002 0.2704866596920993 2.7609591074343056
  endloop
endfacet
facet normal 1.0 -1.149087185017738e-14 -1.2689373754418183e-14
  outer loop
    vertex 23.78684347644883 14.729235514857132 0.7781969372352991
    vertex 23.786843476448887 17.68366463614097 2.7609591074342967
    vertex 23.78684347644888 14.729235514857121 2.7609591074343074
  endloop
endfacet
facet normal 1.0 -1.149087185017738e-14 -1.2689373754418183e-14
  outer loop
    vertex 23.786843476448887 17.68366463614097 2.7609591074342967
    vertex 23.78684347644883 14.729235514857132 0.7781969372352991
    vertex 23.786843476448887 17.683664636140975 0.7609591074342961
  endloop
endfacet
facet normal -1.4099832412739493e-16 3.7470027081099023e-16 -1.0
  outer loop
    vertex 58.78684347644883 14.729235514857137 0.7781969372352949
    vertex 23.78684347644883 13.94333443594606 0.7781969372352926
    vertex 23.78684347644883 14.729235514857132 0.7781969372352991
  endloop
endfacet
facet normal -1.4099832412739493e-16 3.7470027081099023e-16 -1.0
  outer loop
    vertex 23.78684347644883 13.94333443594606 0.7781969372352926
    vertex 58.78684347644883 14.729235514857137 0.7781969372352949
    vertex 58.78684347644883 13.943334435946054 0.7781969372352865
  endloop
endfacet
facet normal 0.0 -1.0 -3.7470027081099023e-16
  outer loop
    vertex 58.78684347644883 13.943334435946047 0.8476709372353078
    vertex 23.78684347644883 13.94333443594606 0.7781969372352926
    vertex 58.78684347644883 13.943334435946054 0.7781969372352865
  endloop
endfacet
facet normal 0.0 -1.0 -3.7470027081099023e-16
  outer loop
    vertex 23.78684347644883 13.94333443594606 0.7781969372352926
    vertex 58.78684347644883 13.943334435946047 0.8476709372353078
    vertex 23.78684347644883 13.943334435946047 0.8476709372353135
  endloop
endfacet
facet normal 1.0 8.168935369700499e-15 4.888505657532584e-15
  outer loop
    vertex 23.78684347644889 4.9363336361409935 0.7609591074343048
    vertex 23.786843476448848 6.207363092558391 2.754709523294858
    vertex 23.78684347644889 4.936333636140993 2.7609591074342834
  endloop
endfacet
facet normal 1.0 8.168935369700499e-15 4.888505657532584e-15
  outer loop
    vertex 23.786843476448848 6.207363092558391 2.754709523294858
    vertex 23.78684347644889 4.9363336361409935 0.7609591074343048
    vertex 23.786843476448848 6.207363092558398 1.7381903369819078
  endloop
endfacet
facet normal 1.0 8.168935369700499e-15 4.888505657532584e-15
  outer loop
    vertex 23.786843476448848 6.207363092558398 1.7381903369819078
    vertex 23.78684347644889 4.9363336361409935 0.7609591074343048
    vertex 23.786843476448833 9.743801471643335 0.7556812131689475
  endloop
endfacet
facet normal 1.0 8.168935369700499e-15 4.888505657532584e-15
  outer loop
    vertex 23.786843476448848 6.207363092558398 1.7381903369819078
    vertex 23.786843476448833 9.743801471643335 0.7556812131689475
    vertex 23.786843476448848 9.544933969753528 1.7381903369819167
  endloop
endfacet
facet normal 1.0 8.168935369700499e-15 4.888505657532584e-15
  outer loop
    vertex 23.786843476448848 9.544933969753528 1.7381903369819167
    vertex 23.786843476448833 9.743801471643335 0.7556812131689475
    vertex 23.78684347644885 9.743801471643359 1.566265590014438
  endloop
endfacet
facet normal -9.852573633174183e-17 -0.5908887823244817 -0.8067530272165647
  outer loop
    vertex 58.78684347644883 13.943334435946047 0.8476709372353078
    vertex 23.786843476448848 13.85931156070404 0.9092116724593715
    vertex 23.78684347644883 13.943334435946047 0.8476709372353135
  endloop
endfacet
facet normal -9.852573633174183e-17 -0.5908887823244817 -0.8067530272165647
  outer loop
    vertex 23.786843476448848 13.85931156070404 0.9092116724593715
    vertex 58.78684347644883 13.943334435946047 0.8476709372353078
    vertex 58.78684347644884 13.85931156070404 0.9092116724593623
  endloop
endfacet
facet normal 2.2734797681631468e-17 -1.0 -3.7470027081099023e-16
  outer loop
    vertex 58.78684347644886 13.859311560704011 1.5229442085583484
    vertex 23.786843476448848 13.85931156070404 0.9092116724593715
    vertex 58.78684347644884 13.85931156070404 0.9092116724593623
  endloop
endfacet
facet normal 2.2734797681631468e-17 -1.0 -3.7470027081099023e-16
  outer loop
    vertex 23.786843476448848 13.85931156070404 0.9092116724593715
    vertex 58.78684347644886 13.859311560704011 1.5229442085583484
    vertex 23.78684347644886 13.859311560704006 1.5229442085583562
  endloop
endfacet
facet normal -1.387778780781446e-16 3.7470027081099023e-16 -1.0
  outer loop
    vertex 58.78684347644886 13.859311560704011 1.5229442085583484
    vertex 23.78684347644886 13.064041050981068 1.52294420855835
    vertex 23.78684347644886 13.859311560704006 1.5229442085583562
  endloop
endfacet
facet normal -1.387778780781446e-16 3.7470027081099023e-16 -1.0
  outer loop
    vertex 23.78684347644886 13.064041050981068 1.52294420855835
    vertex 58.78684347644886 13.859311560704011 1.5229442085583484
    vertex 58.78684347644886 13.064041050981062 1.5229442085583422
  endloop
endfacet
facet normal 0.0 -1.0 -3.7470027081099023e-16
  outer loop
    vertex 58.78684347644885 9.743801471643357 1.5662655900144353
    vertex 23.786843476448833 9.743801471643335 0.7556812131689475
    vertex 58.78684347644884 9.743801471643337 0.7556812131689422
  endloop
endfacet
facet normal 0.0 -1.0 -3.7470027081099023e-16
  outer loop
    vertex 23.786843476448833 9.743801471643335 0.7556812131689475
    vertex 58.78684347644885 9.743801471643357 1.5662655900144353
    vertex 23.78684347644885 9.743801471643359 1.566265590014438
  endloop
endfacet
facet normal -1.0652925740690225e-16 -0.6540022658468437 -0.7564925883755864
  outer loop
    vertex 23.78684347644885 9.743801471643359 1.566265590014438
    vertex 58.78684347644884 9.544933969753524 1.7381903369819136
    vertex 23.786843476448848 9.544933969753528 1.7381903369819167
  endloop
endfacet
facet normal -1.0652925740690225e-16 -0.6540022658468437 -0.7564925883755864
  outer loop
    vertex 58.78684347644884 9.544933969753524 1.7381903369819136
    vertex 23.78684347644885 9.743801471643359 1.566265590014438
    vertex 58.78684347644885 9.743801471643357 1.5662655900144353
  endloop
endfacet
facet normal -1.412999057284443e-16 3.7470027081099023e-16 -1.0
  outer loop
    vertex 58.78684347644884 9.544933969753524 1.7381903369819136
    vertex 23.786843476448848 6.207363092558398 1.7381903369819078
    vertex 23.786843476448848 9.544933969753528 1.7381903369819167
  endloop
endfacet
facet normal -1.412999057284443e-16 3.7470027081099023e-16 -1.0
  outer loop
    vertex 23.786843476448848 6.207363092558398 1.7381903369819078
    vertex 58.78684347644884 9.544933969753524 1.7381903369819136
    vertex 54.886073828342326 6.207363092558398 1.7381903369819094
  endloop
endfacet
facet normal 0.0 -1.0 -3.7470027081099023e-16
  outer loop
    vertex 54.886073828342326 6.207363092558398 1.7381903369819094
    vertex 23.786843476448848 6.207363092558391 2.754709523294858
    vertex 23.786843476448848 6.207363092558398 1.7381903369819078
  endloop
endfacet
facet normal 0.0 -1.0 -3.7470027081099023e-16
  outer loop
    vertex 23.786843476448848 6.207363092558391 2.754709523294858
    vertex 54.886073828342326 6.207363092558398 1.7381903369819094
    vertex 54.886073828342326 6.207363092558397 2.7547095232948555
  endloop
endfacet
facet normal 5.892180816941675e-17 0.8283092194437633 0.5602712173442997
  outer loop
    vertex 23.786843476448833 10.24946319650444 1.8050130537959084
    vertex 58.78684347644884 9.631539237989488 2.718556523294856
    vertex 58.78684347644884 10.24946319650444 1.8050130537959026
  endloop
endfacet
facet normal 5.892180816941675e-17 0.8283092194437633 0.5602712173442997
  outer loop
    vertex 58.78684347644884 9.631539237989488 2.718556523294856
    vertex 23.786843476448833 10.24946319650444 1.8050130537959084
    vertex 23.786843476448848 9.631539237989488 2.718556523294862
  endloop
endfacet
facet normal 9.735598570701015e-17 7.128007127611762e-15 1.0
  outer loop
    vertex 58.78684347644884 10.24946319650444 1.8050130537959026
    vertex 23.786843476448833 11.696558010955311 1.8050130537958953
    vertex 23.786843476448833 10.24946319650444 1.8050130537959084
  endloop
endfacet
facet normal 9.735598570701015e-17 7.128007127611762e-15 1.0
  outer loop
    vertex 23.786843476448833 11.696558010955311 1.8050130537958953
    vertex 58.78684347644884 10.24946319650444 1.8050130537959026
    vertex 58.78684347644884 11.696558010955311 1.8050130537958953
  endloop
endfacet
facet normal 1.387778780781446e-16 -3.7470027081099023e-16 1.0
  outer loop
    vertex 58.78684347644884 12.028665068070488 1.3807832655617749
    vertex 23.786843476448833 12.453977250989066 1.3807832655617798
    vertex 23.786843476448833 12.028665068070495 1.380783265561781
  endloop
endfacet
facet normal 1.387778780781446e-16 -3.7470027081099023e-16 1.0
  outer loop
    vertex 23.786843476448833 12.453977250989066 1.3807832655617798
    vertex 58.78684347644884 12.028665068070488 1.3807832655617749
    vertex 58.78684347644884 12.453977250989068 1.3807832655617749
  endloop
endfacet
facet normal 1.1142160445928091e-16 -0.7301763853945651 0.6832586964043178
  outer loop
    vertex 58.78684347644885 12.688898409777211 1.6318358807415385
    vertex 23.786843476448833 12.453977250989066 1.3807832655617798
    vertex 58.78684347644884 12.453977250989068 1.3807832655617749
  endloop
endfacet
facet normal 1.1142160445928091e-16 -0.7301763853945651 0.6832586964043178
  outer loop
    vertex 23.786843476448833 12.453977250989066 1.3807832655617798
    vertex 58.78684347644885 12.688898409777211 1.6318358807415385
    vertex 23.78684347644885 12.68889840977721 1.6318358807415498
  endloop
endfacet
facet normal 1.5199220655612346e-17 -0.994324717066604 0.10638776729689392
  outer loop
    vertex 58.78684347644889 12.809708942824496 2.760959107434297
    vertex 23.78684347644885 12.68889840977721 1.6318358807415498
    vertex 58.78684347644885 12.688898409777211 1.6318358807415385
  endloop
endfacet
facet normal 1.5199220655612346e-17 -0.994324717066604 0.10638776729689392
  outer loop
    vertex 23.78684347644885 12.68889840977721 1.6318358807415498
    vertex 58.78684347644889 12.809708942824496 2.760959107434297
    vertex 23.78684347644888 12.809708942824496 2.7609591074343016
  endloop
endfacet
facet normal 1.3877787807814464e-16 -3.7470027081099023e-16 1.0
  outer loop
    vertex 58.78684347644889 12.809708942824496 2.760959107434297
    vertex 23.78684347644888 14.729235514857121 2.7609591074343074
    vertex 23.78684347644888 12.809708942824496 2.7609591074343016
  endloop
endfacet
facet normal 1.3877787807814464e-16 -3.7470027081099023e-16 1.0
  outer loop
    vertex 23.78684347644888 14.729235514857121 2.7609591074343074
    vertex 58.78684347644889 12.809708942824496 2.760959107434297
    vertex 58.78684347644889 14.729235514857127 2.7609591074342967
  endloop
endfacet
facet normal 0.0 1.0 3.7470027081099023e-16
  outer loop
    vertex 23.78684347644883 14.729235514857132 0.7781969372352991
    vertex 58.78684347644889 14.729235514857127 2.7609591074342967
    vertex 58.78684347644883 14.729235514857137 0.7781969372352949
  endloop
endfacet
facet normal 0.0 1.0 3.7470027081099023e-16
  outer loop
    vertex 58.78684347644889 14.729235514857127 2.7609591074342967
    vertex 23.78684347644883 14.729235514857132 0.7781969372352991
    vertex 23.78684347644888 14.729235514857121 2.7609591074343074
  endloop
endfacet
facet normal 1.0 -9.364055758670892e-15 -2.6134278900623343e-14
  outer loop
    vertex 23.786843476448833 10.24946319650444 1.8050130537959084
    vertex 23.786843476448848 9.63153923798949 2.754709523294859
    vertex 23.786843476448848 9.631539237989488 2.718556523294862
  endloop
endfacet
facet normal 1.0 -9.364055758670892e-15 -2.6134278900623343e-14
  outer loop
    vertex 23.786843476448848 9.63153923798949 2.754709523294859
    vertex 23.786843476448833 10.24946319650444 1.8050130537959084
    vertex 23.78684347644888 12.809708942824496 2.7609591074343016
  endloop
endfacet
facet normal 1.0 -9.364055758670892e-15 -2.6134278900623343e-14
  outer loop
    vertex 23.78684347644888 12.809708942824496 2.7609591074343016
    vertex 23.786843476448833 10.24946319650444 1.8050130537959084
    vertex 23.786843476448833 11.696558010955311 1.8050130537958953
  endloop
endfacet
facet normal 1.0 -9.364055758670892e-15 -2.6134278900623343e-14
  outer loop
    vertex 23.78684347644888 12.809708942824496 2.7609591074343016
    vertex 23.786843476448833 11.696558010955311 1.8050130537958953
    vertex 23.786843476448833 12.028665068070495 1.380783265561781
  endloop
endfacet
facet normal 1.0 -9.364055758670892e-15 -2.6134278900623343e-14
  outer loop
    vertex 23.78684347644888 12.809708942824496 2.7609591074343016
    vertex 23.786843476448833 12.028665068070495 1.380783265561781
    vertex 23.786843476448833 12.453977250989066 1.3807832655617798
  endloop
endfacet
facet normal 1.0 -9.364055758670892e-15 -2.6134278900623343e-14
  outer loop
    vertex 23.78684347644888 12.809708942824496 2.7609591074343016
    vertex 23.786843476448833 12.453977250989066 1.3807832655617798
    vertex 23.78684347644885 12.68889840977721 1.6318358807415498
  endloop
endfacet
facet normal 6.811885490871014e-05 -2.033779247367917e-05 0.9999999974730979
  outer loop
    vertex 23.78684347644889 4.936333636140993 2.7609591074342834
    vertex 23.786843476448848 6.207363092558391 2.754709523294858
    vertex 21.761055192129493 2.296274944011497 2.7609591074343003
  endloop
endfacet
facet normal 6.811885490871014e-05 -2.033779247367917e-05 0.9999999974730979
  outer loop
    vertex 3.73360680787051 2.2962749440114902 2.760959107434304
    vertex 2.8504049102320796 11.309898744986992 2.7607905266480373
    vertex 1.7078185235511107 4.93633363614098 2.7609591074342825
  endloop
endfacet
facet normal 6.811885490871014e-05 -2.033779247367917e-05 0.9999999974730979
  outer loop
    vertex 2.8504049102320796 11.309898744986992 2.7607905266480373
    vertex 3.73360680787051 2.2962749440114902 2.760959107434304
    vertex 2.947539085841957 10.572091424984691 2.7607662969135593
  endloop
endfacet
facet normal 6.811885490871014e-05 -2.033779247367917e-05 0.9999999974730979
  outer loop
    vertex 2.947539085841957 10.572091424984691 2.7607662969135593
    vertex 3.73360680787051 2.2962749440114902 2.760959107434304
    vertex 3.2323220791255878 9.88456445327039 2.76076933449856
  endloop
endfacet
facet normal 6.811885490871014e-05 -2.033779247367917e-05 0.9999999974730979
  outer loop
    vertex 3.2323220791255878 9.88456445327039 2.76076933449856
    vertex 3.73360680787051 2.2962749440114902 2.760959107434304
    vertex 3.685346399716843 9.294171656774353 2.7607994323966465
  endloop
endfacet
facet normal 6.811885490871014e-05 -2.033779247367917e-05 0.9999999974730979
  outer loop
    vertex 3.685346399716843 9.294171656774353 2.7607994323966465
    vertex 3.73360680787051 2.2962749440114902 2.760959107434304
    vertex 4.275739188825515 8.841147328907583 2.7608545394857993
  endloop
endfacet
facet normal 6.811885490871014e-05 -2.033779247367917e-05 0.9999999974730979
  outer loop
    vertex 4.275739188825515 8.841147328907583 2.7608545394857993
    vertex 3.73360680787051 2.2962749440114902 2.760959107434304
    vertex 6.373665500000002 0.2704866596920993 2.7609591074343056
  endloop
endfacet
facet normal 6.811885490871014e-05 -2.033779247367917e-05 0.9999999974730979
  outer loop
    vertex 4.275739188825515 8.841147328907583 2.7608545394857993
    vertex 6.373665500000002 0.2704866596920993 2.7609591074343056
    vertex 4.9632661535440645 8.55636432895607 2.760930900308968
  endloop
endfacet
facet normal 6.811885490871014e-05 -2.033779247367917e-05 0.9999999974730979
  outer loop
    vertex 4.9632661535440645 8.55636432895607 2.760930900308968
    vertex 6.373665500000002 0.2704866596920993 2.7609591074343056
    vertex 5.7010734674189525 8.45923014774037 2.761023311002231
  endloop
endfacet
facet normal 6.811885490871014e-05 -2.033779247367917e-05 0.9999999974730979
  outer loop
    vertex 5.7010734674189525 8.45923014774037 2.761023311002231
    vertex 6.373665500000002 0.2704866596920993 2.7609591074343056
    vertex 6.438880781293837 8.556364319188509 2.761125473929575
  endloop
endfacet
facet normal 6.811885490871014e-05 -2.033779247367917e-05 0.9999999974730979
  outer loop
    vertex 6.438880781293837 8.556364319188509 2.761125473929575
    vertex 6.373665500000002 0.2704866596920993 2.7609591074343056
    vertex 9.448078962974241 -1.002977093014268 2.760959107434299
  endloop
endfacet
facet normal 6.811885490871014e-05 -2.033779247367917e-05 0.9999999974730979
  outer loop
    vertex 6.438880781293837 8.556364319188509 2.761125473929575
    vertex 9.448078962974241 -1.002977093014268 2.760959107434299
    vertex 7.1264077460123865 8.841147310038108 2.761230426856311
  endloop
endfacet
facet normal 6.811885490871014e-05 -2.033779247367917e-05 0.9999999974730979
  outer loop
    vertex 7.1264077460123865 8.841147310038108 2.761230426856311
    vertex 9.448078962974241 -1.002977093014268 2.760959107434299
    vertex 7.716800535121059 9.29417163008889 2.7613310174139594
  endloop
endfacet
facet normal 6.811885490871014e-05 -2.033779247367917e-05 0.9999999974730979
  outer loop
    vertex 7.716800535121059 9.29417163008889 2.7613310174139594
    vertex 9.448078962974241 -1.002977093014268 2.760959107434299
    vertex 8.169824855712312 9.884564420587498 2.7614203905222197
  endloop
endfacet
facet normal 6.811885490871014e-05 -2.033779247367917e-05 0.9999999974730979
  outer loop
    vertex 8.169824855712312 9.884564420587498 2.7614203905222197
    vertex 9.448078962974241 -1.002977093014268 2.760959107434299
    vertex 8.454607848995945 10.572091388531666 2.7614924555514766
  endloop
endfacet
facet normal 6.811885490871014e-05 -2.033779247367917e-05 0.9999999974730979
  outer loop
    vertex 8.454607848995945 10.572091388531666 2.7614924555514766
    vertex 9.448078962974241 -1.002977093014268 2.760959107434299
    vertex 8.551742024605822 11.309898707248045 2.7615423013890714
  endloop
endfacet
facet normal 6.811885490871014e-05 -2.033779247367917e-05 0.9999999974730979
  outer loop
    vertex 8.551742024605822 11.309898707248045 2.7615423013890714
    vertex 9.448078962974241 -1.002977093014268 2.760959107434299
    vertex 9.448078962974229 23.62297536529625 2.7609591074343056
  endloop
endfacet
facet normal 6.811885490871014e-05 -2.033779247367917e-05 0.9999999974730979
  outer loop
    vertex 9.448078962974229 23.62297536529625 2.7609591074343056
    vertex 9.448078962974241 -1.002977093014268 2.760959107434299
    vertex 12.747330999999997 24.057330136140987 2.7609591074342825
  endloop
endfacet
facet normal 6.811885490871014e-05 -2.033779247367917e-05 0.9999999974730979
  outer loop
    vertex 12.747330999999997 24.057330136140987 2.7609591074342825
    vertex 9.448078962974241 -1.002977093014268 2.760959107434299
    vertex 12.747331 -1.4373318638590082 2.760959107434291
  endloop
endfacet
facet normal 6.811885490871014e-05 -2.033779247367917e-05 0.9999999974730979
  outer loop
    vertex 12.747330999999997 24.057330136140987 2.7609591074342825
    vertex 12.747331 -1.4373318638590082 2.760959107434291
    vertex 16.046583037025755 23.62297536529625 2.7609591074343056
  endloop
endfacet
facet normal 6.811885490871014e-05 -2.033779247367917e-05 0.9999999974730979
  outer loop
    vertex 16.046583037025755 23.62297536529625 2.7609591074343056
    vertex 12.747331 -1.4373318638590082 2.760959107434291
    vertex 16.046583037025762 -1.0029770930142619 2.760959107434297
  endloop
endfacet
facet normal 6.811885490871014e-05 -2.033779247367917e-05 0.9999999974730979
  outer loop
    vertex 16.046583037025755 23.62297536529625 2.7609591074343056
    vertex 16.046583037025762 -1.0029770930142619 2.760959107434297
    vertex 19.120996499999997 22.349511612589883 2.7609591074342923
  endloop
endfacet
facet normal 6.811885490871014e-05 -2.033779247367917e-05 0.9999999974730979
  outer loop
    vertex 19.120996499999997 22.349511612589883 2.7609591074342923
    vertex 16.046583037025762 -1.0029770930142619 2.760959107434297
    vertex 19.120996500000004 0.2704866596921074 2.760959107434311
  endloop
endfacet
facet normal 6.811885490871014e-05 -2.033779247367917e-05 0.9999999974730979
  outer loop
    vertex 19.120996499999997 22.349511612589883 2.7609591074342923
    vertex 19.120996500000004 0.2704866596921074 2.760959107434311
    vertex 21.76105519212949 20.323723328270486 2.7609591074342874
  endloop
endfacet
facet normal 6.811885490871014e-05 -2.033779247367917e-05 0.9999999974730979
  outer loop
    vertex 21.76105519212949 20.323723328270486 2.7609591074342874
    vertex 19.120996500000004 0.2704866596921074 2.760959107434311
    vertex 21.761055192129493 2.296274944011497 2.7609591074343003
  endloop
endfacet
facet normal 6.811885490871014e-05 -2.033779247367917e-05 0.9999999974730979
  outer loop
    vertex 21.76105519212949 20.323723328270486 2.7609591074342874
    vertex 21.761055192129493 2.296274944011497 2.7609591074343003
    vertex 23.786843476448887 17.68366463614097 2.7609591074342967
  endloop
endfacet
facet normal 6.811885490871014e-05 -2.033779247367917e-05 0.9999999974730979
  outer loop
    vertex 23.786843476448887 17.68366463614097 2.7609591074342967
    vertex 21.761055192129493 2.296274944011497 2.7609591074343003
    vertex 23.786843476448848 9.63153923798949 2.754709523294859
  endloop
endfacet
facet normal 6.811885490871014e-05 -2.033779247367917e-05 0.9999999974730979
  outer loop
    vertex 23.786843476448848 9.63153923798949 2.754709523294859
    vertex 21.761055192129493 2.296274944011497 2.7609591074343003
    vertex 23.786843476448848 6.207363092558391 2.754709523294858
  endloop
endfacet
facet normal 6.811885490871014e-05 -2.033779247367917e-05 0.9999999974730979
  outer loop
    vertex 23.786843476448887 17.68366463614097 2.7609591074342967
    vertex 23.786843476448848 9.63153923798949 2.754709523294859
    vertex 23.78684347644888 14.729235514857121 2.7609591074343074
  endloop
endfacet
facet normal 6.811885490871014e-05 -2.033779247367917e-05 0.9999999974730979
  outer loop
    vertex 23.78684347644888 14.729235514857121 2.7609591074343074
    vertex 23.786843476448848 9.63153923798949 2.754709523294859
    vertex 23.78684347644888 12.809708942824496 2.7609591074343016
  endloop
endfacet
facet normal 6.811885490871014e-05 -2.033779247367917e-05 0.9999999974730979
  outer loop
    vertex 0.4343547708447472 8.01074709911522 2.7609591074342923
    vertex 0.434354770844743 14.609251173166719 2.760959107434286
    vertex 0.0 11.309999136140982 2.7609591074342954
  endloop
endfacet
facet normal 6.811885490871014e-05 -2.033779247367917e-05 0.9999999974730979
  outer loop
    vertex 0.434354770844743 14.609251173166719 2.760959107434286
    vertex 0.4343547708447472 8.01074709911522 2.7609591074342923
    vertex 1.707818523551102 17.68366463614096 2.7609591074342896
  endloop
endfacet
facet normal 6.811885490871014e-05 -2.033779247367917e-05 0.9999999974730979
  outer loop
    vertex 1.707818523551102 17.68366463614096 2.7609591074342896
    vertex 0.4343547708447472 8.01074709911522 2.7609591074342923
    vertex 1.7078185235511107 4.93633363614098 2.7609591074342825
  endloop
endfacet
facet normal 6.811885490871014e-05 -2.033779247367917e-05 0.9999999974730979
  outer loop
    vertex 1.707818523551102 17.68366463614096 2.7609591074342896
    vertex 1.7078185235511107 4.93633363614098 2.7609591074342825
    vertex 3.733606807870503 20.32372332827048 2.7609591074342847
  endloop
endfacet
facet normal 6.811885490871014e-05 -2.033779247367917e-05 0.9999999974730979
  outer loop
    vertex 3.733606807870503 20.32372332827048 2.7609591074342847
    vertex 1.7078185235511107 4.93633363614098 2.7609591074342825
    vertex 2.8504049102320796 11.309898744986992 2.7607905266480373
  endloop
endfacet
facet normal 6.811885490871014e-05 -2.033779247367917e-05 0.9999999974730979
  outer loop
    vertex 3.733606807870503 20.32372332827048 2.7609591074342847
    vertex 2.8504049102320796 11.309898744986992 2.7607905266480373
    vertex 2.947539085841957 12.047706063703364 2.760840372485636
  endloop
endfacet
facet normal 6.811885490871014e-05 -2.033779247367917e-05 0.9999999974730979
  outer loop
    vertex 3.733606807870503 20.32372332827048 2.7609591074342847
    vertex 2.947539085841957 12.047706063703364 2.760840372485636
    vertex 3.2323220791255878 12.735233031647532 2.7609124375148855
  endloop
endfacet
facet normal 6.811885490871014e-05 -2.033779247367917e-05 0.9999999974730979
  outer loop
    vertex 3.733606807870503 20.32372332827048 2.7609591074342847
    vertex 3.2323220791255878 12.735233031647532 2.7609124375148855
    vertex 3.685346399716842 13.325625822146101 2.7610018106231555
  endloop
endfacet
facet normal 6.811885490871014e-05 -2.033779247367917e-05 0.9999999974730979
  outer loop
    vertex 3.733606807870503 20.32372332827048 2.7609591074342847
    vertex 3.685346399716842 13.325625822146101 2.7610018106231555
    vertex 4.275739188825517 13.7786501421969 2.7611024011807914
  endloop
endfacet
facet normal 6.811885490871014e-05 -2.033779247367917e-05 0.9999999974730979
  outer loop
    vertex 3.733606807870503 20.32372332827048 2.7609591074342847
    vertex 4.275739188825517 13.7786501421969 2.7611024011807914
    vertex 6.373665499999993 22.349511612589883 2.760959107434292
  endloop
endfacet
facet normal 6.811885490871014e-05 -2.033779247367917e-05 0.9999999974730979
  outer loop
    vertex 6.373665499999993 22.349511612589883 2.760959107434292
    vertex 4.275739188825517 13.7786501421969 2.7611024011807914
    vertex 4.9632661535440645 14.063433133046507 2.761207354107539
  endloop
endfacet
facet normal 6.811885490871014e-05 -2.033779247367917e-05 0.9999999974730979
  outer loop
    vertex 6.373665499999993 22.349511612589883 2.760959107434292
    vertex 4.9632661535440645 14.063433133046507 2.761207354107539
    vertex 5.701073467418951 14.16056730449464 2.7613095170348805
  endloop
endfacet
facet normal 6.811885490871014e-05 -2.033779247367917e-05 0.9999999974730979
  outer loop
    vertex 6.373665499999993 22.349511612589883 2.760959107434292
    vertex 5.701073467418951 14.16056730449464 2.7613095170348805
    vertex 6.438880781293837 14.063433123278937 2.7614019277281505
  endloop
endfacet
facet normal 6.811885490871014e-05 -2.033779247367917e-05 0.9999999974730979
  outer loop
    vertex 6.373665499999993 22.349511612589883 2.760959107434292
    vertex 6.438880781293837 14.063433123278937 2.7614019277281505
    vertex 9.448078962974229 23.62297536529625 2.7609591074343056
  endloop
endfacet
facet normal 6.811885490871014e-05 -2.033779247367917e-05 0.9999999974730979
  outer loop
    vertex 9.448078962974229 23.62297536529625 2.7609591074343056
    vertex 6.438880781293837 14.063433123278937 2.7614019277281505
    vertex 7.1264077460123865 13.778650123327427 2.761478288551301
  endloop
endfacet
facet normal 6.811885490871014e-05 -2.033779247367917e-05 0.9999999974730979
  outer loop
    vertex 9.448078962974229 23.62297536529625 2.7609591074343056
    vertex 7.1264077460123865 13.778650123327427 2.761478288551301
    vertex 7.716800535121059 13.325625795460628 2.7615333956404684
  endloop
endfacet
facet normal 6.811885490871014e-05 -2.033779247367917e-05 0.9999999974730979
  outer loop
    vertex 9.448078962974229 23.62297536529625 2.7609591074343056
    vertex 7.716800535121059 13.325625795460628 2.7615333956404684
    vertex 8.169824855712312 12.735232998964632 2.761563493538548
  endloop
endfacet
facet normal 6.811885490871014e-05 -2.033779247367917e-05 0.9999999974730979
  outer loop
    vertex 9.448078962974229 23.62297536529625 2.7609591074343056
    vertex 8.169824855712312 12.735232998964632 2.761563493538548
    vertex 8.454607848995945 12.04770602725034 2.761566531123553
  endloop
endfacet
facet normal 6.811885490871014e-05 -2.033779247367917e-05 0.9999999974730979
  outer loop
    vertex 9.448078962974229 23.62297536529625 2.7609591074343056
    vertex 8.454607848995945 12.04770602725034 2.761566531123553
    vertex 8.551742024605822 11.309898707248045 2.7615423013890714
  endloop
endfacet
facet normal -1.0 1.3987524429176802e-15 6.068608899589635e-15
  outer loop
    vertex 23.786843476448848 9.63153923798949 2.754709523294859
    vertex 23.786843476448848 6.207363092558398 1.7381903369819078
    vertex 23.786843476448848 6.207363092558391 2.754709523294858
  endloop
endfacet
facet normal -1.0 1.3987524429176802e-15 6.068608899589635e-15
  outer loop
    vertex 23.786843476448848 6.207363092558398 1.7381903369819078
    vertex 23.786843476448848 9.63153923798949 2.754709523294859
    vertex 23.786843476448848 9.544933969753528 1.7381903369819167
  endloop
endfacet
facet normal -1.0 1.3987524429176802e-15 6.068608899589635e-15
  outer loop
    vertex 23.786843476448848 9.544933969753528 1.7381903369819167
    vertex 23.786843476448848 9.63153923798949 2.754709523294859
    vertex 23.786843476448848 9.631539237989488 2.718556523294862
  endloop
endfacet
facet normal -1.0 1.3987524429176802e-15 6.068608899589635e-15
  outer loop
    vertex 23.786843476448848 9.631539237989488 2.718556523294862
    vertex 23.78684347644885 9.743801471643359 1.566265590014438
    vertex 23.786843476448848 9.544933969753528 1.7381903369819167
  endloop
endfacet
facet normal -1.0 1.3987524429176802e-15 6.068608899589635e-15
  outer loop
    vertex 23.78684347644885 9.743801471643359 1.566265590014438
    vertex 23.786843476448848 9.631539237989488 2.718556523294862
    vertex 23.786843476448833 10.24946319650444 1.8050130537959084
  endloop
endfacet
facet normal -1.0 1.3987524429176802e-15 6.068608899589635e-15
  outer loop
    vertex 23.78684347644885 9.743801471643359 1.566265590014438
    vertex 23.786843476448873 10.634337592356951 0.7609591074342898
    vertex 23.786843476448833 9.743801471643335 0.7556812131689475
  endloop
endfacet
facet normal -1.0 1.3987524429176802e-15 6.068608899589635e-15
  outer loop
    vertex 23.786843476448873 10.634337592356951 0.7609591074342898
    vertex 23.78684347644885 9.743801471643359 1.566265590014438
    vertex 23.786843476448833 10.24946319650444 1.8050130537959084
  endloop
endfacet
facet normal -1.0 1.3987524429176802e-15 6.068608899589635e-15
  outer loop
    vertex 23.786843476448873 10.634337592356951 0.7609591074342898
    vertex 23.786843476448833 10.24946319650444 1.8050130537959084
    vertex 23.786843476448833 11.696558010955311 1.8050130537958953
  endloop
endfacet
facet normal -1.0 1.3987524429176802e-15 6.068608899589635e-15
  outer loop
    vertex 23.786843476448873 10.634337592356951 0.7609591074342898
    vertex 23.786843476448833 11.696558010955311 1.8050130537958953
    vertex 23.78684347644886 11.141414915340233 1.2190928926407762
  endloop
endfacet
facet normal -1.0 1.3987524429176802e-15 6.068608899589635e-15
  outer loop
    vertex 23.78684347644886 11.141414915340233 1.2190928926407762
    vertex 23.786843476448833 11.696558010955311 1.8050130537958953
    vertex 23.78684347644886 11.6858999746375 1.2190928926407736
  endloop
endfacet
facet normal -1.0 1.3987524429176802e-15 6.068608899589635e-15
  outer loop
    vertex 23.78684347644886 11.6858999746375 1.2190928926407736
    vertex 23.786843476448833 11.696558010955311 1.8050130537958953
    vertex 23.78684347644887 11.952463269758299 0.7609591074342976
  endloop
endfacet
facet normal -1.0 1.3987524429176802e-15 6.068608899589635e-15
  outer loop
    vertex 23.78684347644887 11.952463269758299 0.7609591074342976
    vertex 23.786843476448833 11.696558010955311 1.8050130537958953
    vertex 23.786843476448833 12.028665068070495 1.380783265561781
  endloop
endfacet
facet normal -1.0 1.3987524429176802e-15 6.068608899589635e-15
  outer loop
    vertex 23.78684347644887 11.952463269758299 0.7609591074342976
    vertex 23.786843476448833 12.028665068070495 1.380783265561781
    vertex 23.786843476448865 12.965112019251439 0.7609591074343104
  endloop
endfacet
facet normal -1.0 1.3987524429176802e-15 6.068608899589635e-15
  outer loop
    vertex 23.786843476448865 12.965112019251439 0.7609591074343104
    vertex 23.786843476448833 12.028665068070495 1.380783265561781
    vertex 23.786843476448833 12.453977250989066 1.3807832655617798
  endloop
endfacet
facet normal -1.0 1.3987524429176802e-15 6.068608899589635e-15
  outer loop
    vertex 23.786843476448865 12.965112019251439 0.7609591074343104
    vertex 23.786843476448833 12.453977250989066 1.3807832655617798
    vertex 23.78684347644885 12.68889840977721 1.6318358807415498
  endloop
endfacet
facet normal -1.0 1.3987524429176802e-15 6.068608899589635e-15
  outer loop
    vertex 23.786843476448865 12.965112019251439 0.7609591074343104
    vertex 23.78684347644885 12.68889840977721 1.6318358807415498
    vertex 23.78684347644888 12.809708942824496 2.7609591074343016
  endloop
endfacet
facet normal -1.0 1.3987524429176802e-15 6.068608899589635e-15
  outer loop
    vertex 23.786843476448865 12.965112019251439 0.7609591074343104
    vertex 23.78684347644888 12.809708942824496 2.7609591074343016
    vertex 23.78684347644886 13.064041050981068 1.52294420855835
  endloop
endfacet
facet normal -1.0 1.3987524429176802e-15 6.068608899589635e-15
  outer loop
    vertex 23.78684347644886 13.064041050981068 1.52294420855835
    vertex 23.78684347644888 12.809708942824496 2.7609591074343016
    vertex 23.78684347644888 14.729235514857121 2.7609591074343074
  endloop
endfacet
facet normal -1.0 1.3987524429176802e-15 6.068608899589635e-15
  outer loop
    vertex 23.78684347644886 13.064041050981068 1.52294420855835
    vertex 23.78684347644888 14.729235514857121 2.7609591074343074
    vertex 23.78684347644886 13.859311560704006 1.5229442085583562
  endloop
endfacet
facet normal -1.0 1.3987524429176802e-15 6.068608899589635e-15
  outer loop
    vertex 23.78684347644886 13.859311560704006 1.5229442085583562
    vertex 23.78684347644888 14.729235514857121 2.7609591074343074
    vertex 23.786843476448848 13.85931156070404 0.9092116724593715
  endloop
endfacet
facet normal -1.0 1.3987524429176802e-15 6.068608899589635e-15
  outer loop
    vertex 23.786843476448848 13.85931156070404 0.9092116724593715
    vertex 23.78684347644888 14.729235514857121 2.7609591074343074
    vertex 23.78684347644883 13.943334435946047 0.8476709372353135
  endloop
endfacet
facet normal -1.0 1.3987524429176802e-15 6.068608899589635e-15
  outer loop
    vertex 23.78684347644883 13.943334435946047 0.8476709372353135
    vertex 23.78684347644888 14.729235514857121 2.7609591074343074
    vertex 23.78684347644883 13.94333443594606 0.7781969372352926
  endloop
endfacet
facet normal -1.0 1.3987524429176802e-15 6.068608899589635e-15
  outer loop
    vertex 23.78684347644883 13.94333443594606 0.7781969372352926
    vertex 23.78684347644888 14.729235514857121 2.7609591074343074
    vertex 23.78684347644883 14.729235514857132 0.7781969372352991
  endloop
endfacet
facet normal -8.561364716829894e-17 0.005926544080119452 -0.9999824378834193
  outer loop
    vertex 23.786843476448873 10.634337592356951 0.7609591074342898
    vertex 58.78684347644884 9.743801471643337 0.7556812131689422
    vertex 23.786843476448833 9.743801471643335 0.7556812131689475
  endloop
endfacet
facet normal -8.561364716829894e-17 0.005926544080119452 -0.9999824378834193
  outer loop
    vertex 58.78684347644884 9.743801471643337 0.7556812131689422
    vertex 23.786843476448873 10.634337592356951 0.7609591074342898
    vertex 58.78684347644886 10.634337592356953 0.7609591074342892
  endloop
endfacet
facet normal -7.035404035984911e-17 -0.8643378985774356 -0.5029115201332565
  outer loop
    vertex 58.78684347644886 11.6858999746375 1.2190928926407687
    vertex 23.78684347644887 11.952463269758299 0.7609591074342976
    vertex 58.78684347644884 11.952463269758297 0.7609591074342972
  endloop
endfacet
facet normal -7.035404035984911e-17 -0.8643378985774356 -0.5029115201332565
  outer loop
    vertex 23.78684347644887 11.952463269758299 0.7609591074342976
    vertex 58.78684347644886 11.6858999746375 1.2190928926407687
    vertex 23.78684347644886 11.6858999746375 1.2190928926407736
  endloop
endfacet
facet normal -6.395237833069384e-17 0.6703897740216116 -0.7420091312694559
  outer loop
    vertex 58.78684347644886 11.141414915340233 1.2190928926407707
    vertex 23.786843476448873 10.634337592356951 0.7609591074342898
    vertex 23.78684347644886 11.141414915340233 1.2190928926407762
  endloop
endfacet
facet normal -6.395237833069384e-17 0.6703897740216116 -0.7420091312694559
  outer loop
    vertex 23.786843476448873 10.634337592356951 0.7609591074342898
    vertex 58.78684347644886 11.141414915340233 1.2190928926407707
    vertex 58.78684347644886 10.634337592356953 0.7609591074342892
  endloop
endfacet
facet normal -1.387778780781446e-16 3.7470027081099023e-16 -1.0
  outer loop
    vertex 58.78684347644886 11.6858999746375 1.2190928926407687
    vertex 23.78684347644886 11.141414915340233 1.2190928926407762
    vertex 23.78684347644886 11.6858999746375 1.2190928926407736
  endloop
endfacet
facet normal -1.387778780781446e-16 3.7470027081099023e-16 -1.0
  outer loop
    vertex 23.78684347644886 11.141414915340233 1.2190928926407762
    vertex 58.78684347644886 11.6858999746375 1.2190928926407687
    vertex 58.78684347644886 11.141414915340233 1.2190928926407707
  endloop
endfacet
facet normal 1.3516863559855268e-16 0.7874138839833771 0.6164246712374619
  outer loop
    vertex 23.786843476448833 12.028665068070495 1.380783265561781
    vertex 58.78684347644884 11.696558010955311 1.8050130537958953
    vertex 58.78684347644884 12.028665068070488 1.3807832655617749
  endloop
endfacet
facet normal 1.3516863559855268e-16 0.7874138839833771 0.6164246712374619
  outer loop
    vertex 58.78684347644884 11.696558010955311 1.8050130537958953
    vertex 23.786843476448833 12.028665068070495 1.380783265561781
    vertex 23.786843476448833 11.696558010955311 1.8050130537958953
  endloop
endfacet
endsolid Key_Blank_L
