solid Key_Blank_L
facet normal -1.5946712989442942e-14 -0.8283092194437635 -0.5602712173442996
  outer loop
    vertex 58.781883267714335 13.89998345694581 0.8522935183958358
    vertex 23.781883267714342 14.517907415460947 -0.06124995110240056
    vertex 58.781883267714335 14.517907415460762 -0.06124995110311753
  endloop
endfacet
facet normal -1.5946712989442942e-14 -0.8283092194437635 -0.5602712173442996
  outer loop
    vertex 23.781883267714342 14.517907415460947 -0.06124995110240056
    vertex 58.781883267714335 13.89998345694581 0.8522935183958358
    vertex 23.78188326771435 13.899983456945996 0.8522935183965534
  endloop
endfacet
facet normal -2.057056285763973e-14 -7.259846111786e-15 -1.0
  outer loop
    vertex 23.78188326771435 13.899983456945996 0.8522935183965534
    vertex 58.781883267714335 12.452888642494937 0.8522935183958433
    vertex 23.78188326771434 12.452888642495124 0.8522935183965666
  endloop
endfacet
facet normal -2.057056285763973e-14 -7.259846111786e-15 -1.0
  outer loop
    vertex 58.781883267714335 12.452888642494937 0.8522935183958433
    vertex 23.78188326771435 13.899983456945996 0.8522935183965534
    vertex 58.781883267714335 13.89998345694581 0.8522935183958358
  endloop
endfacet
facet normal -2.0529140965268555e-14 2.4286128663675216e-16 -1.0
  outer loop
    vertex 58.78188326771435 12.12078158537976 1.2765233066299637
    vertex 23.781883267714345 11.695469402461368 1.2765233066306823
    vertex 23.781883267714345 12.12078158537994 1.276523306630681
  endloop
endfacet
facet normal -2.0529140965268555e-14 2.4286128663675216e-16 -1.0
  outer loop
    vertex 23.781883267714345 11.695469402461368 1.2765233066306823
    vertex 58.78188326771435 12.12078158537976 1.2765233066299637
    vertex 58.781883267714335 11.695469402461178 1.276523306629964
  endloop
endfacet
facet normal -1.0108482780621969e-14 0.730176385394565 -0.6832586964043179
  outer loop
    vertex 23.781883267714353 11.460548243673225 1.0254706914509122
    vertex 58.781883267714335 11.695469402461178 1.276523306629964
    vertex 58.78188326771435 11.460548243673035 1.0254706914502003
  endloop
endfacet
facet normal -1.0108482780621969e-14 0.730176385394565 -0.6832586964043179
  outer loop
    vertex 58.781883267714335 11.695469402461178 1.276523306629964
    vertex 23.781883267714353 11.460548243673225 1.0254706914509122
    vertex 23.781883267714345 11.695469402461368 1.2765233066306823
  endloop
endfacet
facet normal 3.129468893435526e-15 0.994324717066604 -0.10638776729689405
  outer loop
    vertex 23.78188326771436 11.339737710625938 -0.10365253524183933
    vertex 58.78188326771435 11.460548243673035 1.0254706914502003
    vertex 58.78188326771436 11.339737710625752 -0.10365253524255877
  endloop
endfacet
facet normal 3.129468893435526e-15 0.994324717066604 -0.10638776729689405
  outer loop
    vertex 58.78188326771435 11.460548243673035 1.0254706914502003
    vertex 23.78188326771436 11.339737710625938 -0.10365253524183933
    vertex 23.781883267714353 11.460548243673225 1.0254706914509122
  endloop
endfacet
facet normal -2.0529140965268555e-14 2.4286128663675216e-16 -1.0
  outer loop
    vertex 23.78188326771436 11.339737710625938 -0.10365253524183933
    vertex 58.78188326771435 9.420211138593121 -0.10365253524255771
    vertex 23.78188326771435 9.420211138593313 -0.10365253524184496
  endloop
endfacet
facet normal -2.0529140965268555e-14 2.4286128663675216e-16 -1.0
  outer loop
    vertex 58.78188326771435 9.420211138593121 -0.10365253524255771
    vertex 23.78188326771436 11.339737710625938 -0.10365253524183933
    vertex 58.78188326771436 11.339737710625752 -0.10365253524255877
  endloop
endfacet
facet normal -5.343408769794352e-15 -1.0 -2.4286128663664245e-16
  outer loop
    vertex 58.78188326771433 9.420211138593109 1.879109634956444
    vertex 23.78188326771435 9.420211138593313 -0.10365253524184496
    vertex 58.78188326771435 9.420211138593121 -0.10365253524255771
  endloop
endfacet
facet normal -5.343408769794352e-15 -1.0 -2.4286128663664245e-16
  outer loop
    vertex 23.78188326771435 9.420211138593313 -0.10365253524184496
    vertex 58.78188326771433 9.420211138593109 1.879109634956444
    vertex 23.78188326771434 9.4202111385933 1.879109634957163
  endloop
endfacet
facet normal 1.0 4.0206469888765486e-15 5.466360057276641e-15
  outer loop
    vertex 23.781883267714342 14.517907415460945 -0.09740295110239734
    vertex 23.781883267714353 11.460548243673225 1.0254706914509122
    vertex 23.78188326771436 11.339737710625938 -0.10365253524183933
  endloop
endfacet
facet normal 1.0 4.0206469888765486e-15 5.466360057276641e-15
  outer loop
    vertex 23.781883267714353 11.460548243673225 1.0254706914509122
    vertex 23.781883267714342 14.517907415460945 -0.09740295110239734
    vertex 23.78188326771434 12.452888642495124 0.8522935183965666
  endloop
endfacet
facet normal 1.0 4.0206469888765486e-15 5.466360057276641e-15
  outer loop
    vertex 23.781883267714353 11.460548243673225 1.0254706914509122
    vertex 23.78188326771434 12.452888642495124 0.8522935183965666
    vertex 23.781883267714345 11.695469402461368 1.2765233066306823
  endloop
endfacet
facet normal 1.0 4.0206469888765486e-15 5.466360057276641e-15
  outer loop
    vertex 23.781883267714345 11.695469402461368 1.2765233066306823
    vertex 23.78188326771434 12.452888642495124 0.8522935183965666
    vertex 23.781883267714345 12.12078158537994 1.276523306630681
  endloop
endfacet
facet normal 1.0 4.0206469888765486e-15 5.466360057276641e-15
  outer loop
    vertex 23.78188326771434 12.452888642495124 0.8522935183965666
    vertex 23.781883267714342 14.517907415460945 -0.09740295110239734
    vertex 23.78188326771435 13.899983456945996 0.8522935183965534
  endloop
endfacet
facet normal 1.0 4.0206469888765486e-15 5.466360057276641e-15
  outer loop
    vertex 23.78188326771435 13.899983456945996 0.8522935183965534
    vertex 23.781883267714342 14.517907415460945 -0.09740295110239734
    vertex 23.781883267714342 14.517907415460947 -0.06124995110240056
  endloop
endfacet
facet normal 6.811885488788746e-05 2.033779247262479e-05 -0.999999997473098
  outer loop
    vertex 21.756094983395027 21.853171709438946 -0.10365253524179774
    vertex 23.781883267714363 17.94208356089204 -0.09740295110239698
    vertex 23.781883267714342 14.517907415460945 -0.09740295110239734
  endloop
endfacet
facet normal 6.811885488788746e-05 2.033779247262479e-05 -0.999999997473098
  outer loop
    vertex 23.781883267714363 17.94208356089204 -0.09740295110239698
    vertex 21.756094983395027 21.853171709438946 -0.10365253524179774
    vertex 23.781883267714413 19.21311301730944 -0.10365253524182205
  endloop
endfacet
facet normal 6.811885488788746e-05 2.033779247262479e-05 -0.999999997473098
  outer loop
    vertex 3.7286465991360465 21.85317170943905 -0.10365253524142867
    vertex 2.8454447014975677 12.839547908463556 -0.10348395445514248
    vertex 1.7028583148166327 19.213113017309574 -0.10365253524136522
  endloop
endfacet
facet normal 6.811885488788746e-05 2.033779247262479e-05 -0.999999997473098
  outer loop
    vertex 2.8454447014975677 12.839547908463556 -0.10348395445514248
    vertex 3.7286465991360465 21.85317170943905 -0.10365253524142867
    vertex 2.942578877107449 13.577355228465857 -0.1034597247206667
  endloop
endfacet
facet normal 6.811885488788746e-05 2.033779247262479e-05 -0.999999997473098
  outer loop
    vertex 2.942578877107449 13.577355228465857 -0.1034597247206667
    vertex 3.7286465991360465 21.85317170943905 -0.10365253524142867
    vertex 3.2273618703910834 14.264882200180153 -0.10346276230567336
  endloop
endfacet
facet normal 6.811885488788746e-05 2.033779247262479e-05 -0.999999997473098
  outer loop
    vertex 3.2273618703910834 14.264882200180153 -0.10346276230567336
    vertex 3.7286465991360465 21.85317170943905 -0.10365253524142867
    vertex 3.6803861909823423 14.855274996676188 -0.10349286020376937
  endloop
endfacet
facet normal 6.811885488788746e-05 2.033779247262479e-05 -0.999999997473098
  outer loop
    vertex 3.6803861909823423 14.855274996676188 -0.10349286020376937
    vertex 3.7286465991360465 21.85317170943905 -0.10365253524142867
    vertex 4.270778980091016 15.308299324542956 -0.10354796729293436
  endloop
endfacet
facet normal 6.811885488788746e-05 2.033779247262479e-05 -0.999999997473098
  outer loop
    vertex 4.270778980091016 15.308299324542956 -0.10354796729293436
    vertex 3.7286465991360465 21.85317170943905 -0.10365253524142867
    vertex 6.368705291265549 23.87895999375843 -0.10365253524148542
  endloop
endfacet
facet normal 6.811885488788746e-05 2.033779247262479e-05 -0.999999997473098
  outer loop
    vertex 4.270778980091016 15.308299324542956 -0.10354796729293436
    vertex 6.368705291265549 23.87895999375843 -0.10365253524148542
    vertex 4.958305944809568 15.593082324494466 -0.10362432811611715
  endloop
endfacet
facet normal 6.811885488788746e-05 2.033779247262479e-05 -0.999999997473098
  outer loop
    vertex 4.958305944809568 15.593082324494466 -0.10362432811611715
    vertex 6.368705291265549 23.87895999375843 -0.10365253524148542
    vertex 5.696113258684456 15.69021650571016 -0.10371673880939564
  endloop
endfacet
facet normal 6.811885488788746e-05 2.033779247262479e-05 -0.999999997473098
  outer loop
    vertex 5.696113258684456 15.69021650571016 -0.10371673880939564
    vertex 6.368705291265549 23.87895999375843 -0.10365253524148542
    vertex 6.433920572559339 15.593082334262018 -0.10381890173675515
  endloop
endfacet
facet normal 6.811885488788746e-05 2.033779247262479e-05 -0.999999997473098
  outer loop
    vertex 6.433920572559339 15.593082334262018 -0.10381890173675515
    vertex 6.368705291265549 23.87895999375843 -0.10365253524148542
    vertex 9.443118754239794 25.152423746464777 -0.10365253524154218
  endloop
endfacet
facet normal 6.811885488788746e-05 2.033779247262479e-05 -0.999999997473098
  outer loop
    vertex 6.433920572559339 15.593082334262018 -0.10381890173675515
    vertex 9.443118754239794 25.152423746464777 -0.10365253524154218
    vertex 7.121447537277887 15.308299343412417 -0.10392385466350533
  endloop
endfacet
facet normal 6.811885488788746e-05 2.033779247262479e-05 -0.999999997473098
  outer loop
    vertex 7.121447537277887 15.308299343412417 -0.10392385466350533
    vertex 9.443118754239794 25.152423746464777 -0.10365253524154218
    vertex 7.7118403263865565 14.85527502336163 -0.1040244452211653
  endloop
endfacet
facet normal 6.811885488788746e-05 2.033779247262479e-05 -0.999999997473098
  outer loop
    vertex 7.7118403263865565 14.85527502336163 -0.1040244452211653
    vertex 9.443118754239794 25.152423746464777 -0.10365253524154218
    vertex 8.164864646977808 14.264882232863018 -0.10411381832943502
  endloop
endfacet
facet normal 6.811885488788746e-05 2.033779247262479e-05 -0.999999997473098
  outer loop
    vertex 8.164864646977808 14.264882232863018 -0.10411381832943502
    vertex 9.443118754239794 25.152423746464777 -0.10365253524154218
    vertex 8.449647640261436 13.57735526491885 -0.10418588335869781
  endloop
endfacet
facet normal 6.811885488788746e-05 2.033779247262479e-05 -0.999999997473098
  outer loop
    vertex 8.449647640261436 13.57735526491885 -0.10418588335869781
    vertex 9.443118754239794 25.152423746464777 -0.10365253524154218
    vertex 8.54678181587131 12.83954794620247 -0.10423572919629463
  endloop
endfacet
facet normal 6.811885488788746e-05 2.033779247262479e-05 -0.999999997473098
  outer loop
    vertex 8.54678181587131 12.83954794620247 -0.10423572919629463
    vertex 9.443118754239794 25.152423746464777 -0.10365253524154218
    vertex 9.44311875423965 0.52647128815426 -0.10365253524154605
  endloop
endfacet
facet normal 6.811885488788746e-05 2.033779247262479e-05 -0.999999997473098
  outer loop
    vertex 9.44311875423965 0.52647128815426 -0.10365253524154605
    vertex 9.443118754239794 25.152423746464777 -0.10365253524154218
    vertex 12.742370791265419 0.0921165173095086 -0.10365253524159082
  endloop
endfacet
facet normal 6.811885488788746e-05 2.033779247262479e-05 -0.999999997473098
  outer loop
    vertex 12.742370791265419 0.0921165173095086 -0.10365253524159082
    vertex 9.443118754239794 25.152423746464777 -0.10365253524154218
    vertex 12.742370791265557 25.586778517309497 -0.10365253524160245
  endloop
endfacet
facet normal 6.811885488788746e-05 2.033779247262479e-05 -0.999999997473098
  outer loop
    vertex 12.742370791265419 0.0921165173095086 -0.10365253524159082
    vertex 12.742370791265557 25.586778517309497 -0.10365253524160245
    vertex 16.041622828291178 0.5264712881542262 -0.10365253524168212
  endloop
endfacet
facet normal 6.811885488788746e-05 2.033779247262479e-05 -0.999999997473098
  outer loop
    vertex 16.041622828291178 0.5264712881542262 -0.10365253524168212
    vertex 12.742370791265557 25.586778517309497 -0.10365253524160245
    vertex 16.041622828291317 25.152423746464738 -0.10365253524167718
  endloop
endfacet
facet normal 6.811885488788746e-05 2.033779247262479e-05 -0.999999997473098
  outer loop
    vertex 16.041622828291178 0.5264712881542262 -0.10365253524168212
    vertex 16.041622828291317 25.152423746464738 -0.10365253524167718
    vertex 19.116036291265427 1.799935040860577 -0.10365253524173253
  endloop
endfacet
facet normal 6.811885488788746e-05 2.033779247262479e-05 -0.999999997473098
  outer loop
    vertex 19.116036291265427 1.799935040860577 -0.10365253524173253
    vertex 16.041622828291317 25.152423746464738 -0.10365253524167718
    vertex 19.11603629126555 23.87895999375835 -0.10365253524175368
  endloop
endfacet
facet normal 6.811885488788746e-05 2.033779247262479e-05 -0.999999997473098
  outer loop
    vertex 19.116036291265427 1.799935040860577 -0.10365253524173253
    vertex 19.11603629126555 23.87895999375835 -0.10365253524175368
    vertex 21.756094983394927 3.8257233251799594 -0.10365253524178258
  endloop
endfacet
facet normal 6.811885488788746e-05 2.033779247262479e-05 -0.999999997473098
  outer loop
    vertex 21.756094983394927 3.8257233251799594 -0.10365253524178258
    vertex 19.11603629126555 23.87895999375835 -0.10365253524175368
    vertex 21.756094983395027 21.853171709438946 -0.10365253524179774
  endloop
endfacet
facet normal 6.811885488788746e-05 2.033779247262479e-05 -0.999999997473098
  outer loop
    vertex 21.756094983394927 3.8257233251799594 -0.10365253524178258
    vertex 21.756094983395027 21.853171709438946 -0.10365253524179774
    vertex 23.781883267714342 6.465782017309462 -0.10365253524183404
  endloop
endfacet
facet normal 6.811885488788746e-05 2.033779247262479e-05 -0.999999997473098
  outer loop
    vertex 23.781883267714342 6.465782017309462 -0.10365253524183404
    vertex 21.756094983395027 21.853171709438946 -0.10365253524179774
    vertex 23.781883267714342 14.517907415460945 -0.09740295110239734
  endloop
endfacet
facet normal 6.811885488788746e-05 2.033779247262479e-05 -0.999999997473098
  outer loop
    vertex 23.781883267714342 6.465782017309462 -0.10365253524183404
    vertex 23.781883267714342 14.517907415460945 -0.09740295110239734
    vertex 23.78188326771435 9.420211138593313 -0.10365253524184496
  endloop
endfacet
facet normal 6.811885488788746e-05 2.033779247262479e-05 -0.999999997473098
  outer loop
    vertex 23.78188326771435 9.420211138593313 -0.10365253524184496
    vertex 23.781883267714342 14.517907415460945 -0.09740295110239734
    vertex 23.78188326771436 11.339737710625938 -0.10365253524183933
  endloop
endfacet
facet normal 6.811885488788746e-05 2.033779247262479e-05 -0.999999997473098
  outer loop
    vertex 0.42939456211025284 16.13869955433534 -0.1036525352413483
    vertex 0.4293945621102134 9.540195480283838 -0.1036525352413409
    vertex -0.0049602087345119355 12.839447517309576 -0.1036525352413416
  endloop
endfacet
facet normal 6.811885488788746e-05 2.033779247262479e-05 -0.999999997473098
  outer loop
    vertex 0.4293945621102134 9.540195480283838 -0.1036525352413409
    vertex 0.42939456211025284 16.13869955433534 -0.1036525352413483
    vertex 1.7028583148165564 6.465782017309592 -0.10365253524137051
  endloop
endfacet
facet normal 6.811885488788746e-05 2.033779247262479e-05 -0.999999997473098
  outer loop
    vertex 1.7028583148165564 6.465782017309592 -0.10365253524137051
    vertex 0.42939456211025284 16.13869955433534 -0.1036525352413483
    vertex 1.7028583148166327 19.213113017309574 -0.10365253524136522
  endloop
endfacet
facet normal 6.811885488788746e-05 2.033779247262479e-05 -0.999999997473098
  outer loop
    vertex 1.7028583148165564 6.465782017309592 -0.10365253524137051
    vertex 1.7028583148166327 19.213113017309574 -0.10365253524136522
    vertex 3.728646599135943 3.825723325180061 -0.10365253524140718
  endloop
endfacet
facet normal 6.811885488788746e-05 2.033779247262479e-05 -0.999999997473098
  outer loop
    vertex 3.728646599135943 3.825723325180061 -0.10365253524140718
    vertex 1.7028583148166327 19.213113017309574 -0.10365253524136522
    vertex 2.8454447014975677 12.839547908463556 -0.10348395445514248
  endloop
endfacet
facet normal 6.811885488788746e-05 2.033779247262479e-05 -0.999999997473098
  outer loop
    vertex 3.728646599135943 3.825723325180061 -0.10365253524140718
    vertex 2.8454447014975677 12.839547908463556 -0.10348395445514248
    vertex 2.9425788771074415 12.101740589747179 -0.10353380029274353
  endloop
endfacet
facet normal 6.811885488788746e-05 2.033779247262479e-05 -0.999999997473098
  outer loop
    vertex 3.728646599135943 3.825723325180061 -0.10365253524140718
    vertex 2.9425788771074415 12.101740589747179 -0.10353380029274353
    vertex 3.2273618703910687 11.414213621803011 -0.10360586532199857
  endloop
endfacet
facet normal 6.811885488788746e-05 2.033779247262479e-05 -0.999999997473098
  outer loop
    vertex 3.728646599135943 3.825723325180061 -0.10365253524140718
    vertex 3.2273618703910687 11.414213621803011 -0.10360586532199857
    vertex 3.6803861909823192 10.82382083130444 -0.10369523843027816
  endloop
endfacet
facet normal 6.811885488788746e-05 2.033779247262479e-05 -0.999999997473098
  outer loop
    vertex 3.728646599135943 3.825723325180061 -0.10365253524140718
    vertex 3.6803861909823192 10.82382083130444 -0.10369523843027816
    vertex 4.270778980090991 10.370796511253637 -0.10379582898792615
  endloop
endfacet
facet normal 6.811885488788746e-05 2.033779247262479e-05 -0.999999997473098
  outer loop
    vertex 3.728646599135943 3.825723325180061 -0.10365253524140718
    vertex 4.270778980090991 10.370796511253637 -0.10379582898792615
    vertex 6.368705291265422 1.7999350408606447 -0.1036525352414685
  endloop
endfacet
facet normal 6.811885488788746e-05 2.033779247262479e-05 -0.999999997473098
  outer loop
    vertex 6.368705291265422 1.7999350408606447 -0.1036525352414685
    vertex 4.270778980090991 10.370796511253637 -0.10379582898792615
    vertex 4.958305944809538 10.086013520404029 -0.10390078191468761
  endloop
endfacet
facet normal 6.811885488788746e-05 2.033779247262479e-05 -0.999999997473098
  outer loop
    vertex 6.368705291265422 1.7999350408606447 -0.1036525352414685
    vertex 4.958305944809538 10.086013520404029 -0.10390078191468761
    vertex 5.696113258684424 9.988879348955889 -0.1040029448420443
  endloop
endfacet
facet normal 6.811885488788746e-05 2.033779247262479e-05 -0.999999997473098
  outer loop
    vertex 6.368705291265422 1.7999350408606447 -0.1036525352414685
    vertex 5.696113258684424 9.988879348955889 -0.1040029448420443
    vertex 6.43392057255931 10.08601353017159 -0.10409535553532985
  endloop
endfacet
facet normal 6.811885488788746e-05 2.033779247262479e-05 -0.999999997473098
  outer loop
    vertex 6.368705291265422 1.7999350408606447 -0.1036525352414685
    vertex 6.43392057255931 10.08601353017159 -0.10409535553532985
    vertex 9.44311875423965 0.52647128815426 -0.10365253524154605
  endloop
endfacet
facet normal 6.811885488788746e-05 2.033779247262479e-05 -0.999999997473098
  outer loop
    vertex 9.44311875423965 0.52647128815426 -0.10365253524154605
    vertex 6.43392057255931 10.08601353017159 -0.10409535553532985
    vertex 7.12144753727786 10.370796530123094 -0.10417171635849429
  endloop
endfacet
facet normal 6.811885488788746e-05 2.033779247262479e-05 -0.999999997473098
  outer loop
    vertex 9.44311875423965 0.52647128815426 -0.10365253524154605
    vertex 7.12144753727786 10.370796530123094 -0.10417171635849429
    vertex 7.711840326386535 10.82382085798989 -0.1042268234476741
  endloop
endfacet
facet normal 6.811885488788746e-05 2.033779247262479e-05 -0.999999997473098
  outer loop
    vertex 9.44311875423965 0.52647128815426 -0.10365253524154605
    vertex 7.711840326386535 10.82382085798989 -0.1042268234476741
    vertex 8.164864646977792 11.414213654485886 -0.10425692134576305
  endloop
endfacet
facet normal 6.811885488788746e-05 2.033779247262479e-05 -0.999999997473098
  outer loop
    vertex 9.44311875423965 0.52647128815426 -0.10365253524154605
    vertex 8.164864646977792 11.414213654485886 -0.10425692134576305
    vertex 8.449647640261428 12.101740626200176 -0.10425995893077394
  endloop
endfacet
facet normal 6.811885488788746e-05 2.033779247262479e-05 -0.999999997473098
  outer loop
    vertex 9.44311875423965 0.52647128815426 -0.10365253524154605
    vertex 8.449647640261428 12.101740626200176 -0.10425995893077394
    vertex 8.54678181587131 12.83954794620247 -0.10423572919629463
  endloop
endfacet
facet normal 0.6501234473631781 0.7598286011914905 -1.4538586245230043e-14
  outer loop
    vertex 54.88111361960784 17.94208356089187 -0.09740295110303676
    vertex 58.78188326771436 14.604512683696724 0.9191162352098248
    vertex 58.781883267714335 14.604512683696719 -0.09740295110312065
  endloop
endfacet
facet normal 0.6501234473631781 0.7598286011914905 -1.4538586245230043e-14
  outer loop
    vertex 58.78188326771436 14.604512683696724 0.9191162352098248
    vertex 54.88111361960784 17.94208356089187 -0.09740295110303676
    vertex 54.88111361960786 17.94208356089187 0.919116235209909
  endloop
endfacet
facet normal 1.0 -2.671704384897185e-15 -1.0333959421673353e-14
  outer loop
    vertex 58.781883267714335 14.604512683696719 -0.09740295110312065
    vertex 58.781883267714335 14.517907415460762 -0.06124995110311753
    vertex 58.781883267714335 14.517907415460755 -0.09740295110311784
  endloop
endfacet
facet normal 1.0 -2.671704384897185e-15 -1.0333959421673353e-14
  outer loop
    vertex 58.781883267714335 14.517907415460762 -0.06124995110311753
    vertex 58.78188326771437 14.405645181806888 1.091040982177303
    vertex 58.781883267714335 13.89998345694581 0.8522935183958358
  endloop
endfacet
facet normal 1.0 -2.671704384897185e-15 -1.0333959421673353e-14
  outer loop
    vertex 58.78188326771437 14.405645181806888 1.091040982177303
    vertex 58.781883267714335 14.517907415460762 -0.06124995110311753
    vertex 58.78188326771436 14.604512683696724 0.9191162352098248
  endloop
endfacet
facet normal 1.0 -2.671704384897185e-15 -1.0333959421673353e-14
  outer loop
    vertex 58.78188326771436 14.604512683696724 0.9191162352098248
    vertex 58.781883267714335 14.517907415460762 -0.06124995110311753
    vertex 58.781883267714335 14.604512683696719 -0.09740295110312065
  endloop
endfacet
facet normal 1.0 -2.671704384897185e-15 -1.0333959421673353e-14
  outer loop
    vertex 58.78188326771435 9.420211138593121 -0.10365253524255771
    vertex 58.781883267714335 10.206112217504193 1.8791096349564524
    vertex 58.78188326771433 9.420211138593109 1.879109634956444
  endloop
endfacet
facet normal 1.0 -2.671704384897185e-15 -1.0333959421673353e-14
  outer loop
    vertex 58.781883267714335 10.206112217504193 1.8791096349564524
    vertex 58.78188326771435 9.420211138593121 -0.10365253524255771
    vertex 58.781883267714335 10.206112217504199 1.809635634956431
  endloop
endfacet
facet normal 1.0 -2.671704384897185e-15 -1.0333959421673353e-14
  outer loop
    vertex 58.781883267714335 10.206112217504199 1.809635634956431
    vertex 58.78188326771435 9.420211138593121 -0.10365253524255771
    vertex 58.78188326771436 10.290135092746235 1.1343623636333904
  endloop
endfacet
facet normal 1.0 -2.671704384897185e-15 -1.0333959421673353e-14
  outer loop
    vertex 58.78188326771436 10.290135092746235 1.1343623636333904
    vertex 58.78188326771435 9.420211138593121 -0.10365253524255771
    vertex 58.78188326771436 11.339737710625752 -0.10365253524255877
  endloop
endfacet
facet normal 1.0 -2.671704384897185e-15 -1.0333959421673353e-14
  outer loop
    vertex 58.781883267714335 10.206112217504199 1.809635634956431
    vertex 58.78188326771436 10.290135092746235 1.1343623636333904
    vertex 58.78188326771435 10.290135092746207 1.7480948997323766
  endloop
endfacet
facet normal 1.0 -2.671704384897185e-15 -1.0333959421673353e-14
  outer loop
    vertex 58.78188326771436 10.290135092746235 1.1343623636333904
    vertex 58.78188326771436 11.339737710625752 -0.10365253524255877
    vertex 58.78188326771436 11.085405602469184 1.1343623636333966
  endloop
endfacet
facet normal 1.0 -2.671704384897185e-15 -1.0333959421673353e-14
  outer loop
    vertex 58.78188326771436 11.085405602469184 1.1343623636333966
    vertex 58.78188326771436 11.339737710625752 -0.10365253524255877
    vertex 58.78188326771435 11.184334634198809 1.8963474647574283
  endloop
endfacet
facet normal 1.0 -2.671704384897185e-15 -1.0333959421673353e-14
  outer loop
    vertex 58.78188326771435 11.184334634198809 1.8963474647574283
    vertex 58.78188326771436 11.339737710625752 -0.10365253524255877
    vertex 58.78188326771435 11.460548243673035 1.0254706914502003
  endloop
endfacet
facet normal 1.0 -2.671704384897185e-15 -1.0333959421673353e-14
  outer loop
    vertex 58.78188326771435 11.184334634198809 1.8963474647574283
    vertex 58.78188326771435 11.460548243673035 1.0254706914502003
    vertex 58.78188326771436 12.19698338369195 1.8963474647574414
  endloop
endfacet
facet normal 1.0 -2.671704384897185e-15 -1.0333959421673353e-14
  outer loop
    vertex 58.78188326771436 12.19698338369195 1.8963474647574414
    vertex 58.78188326771435 11.460548243673035 1.0254706914502003
    vertex 58.781883267714335 11.695469402461178 1.276523306629964
  endloop
endfacet
facet normal 1.0 -2.671704384897185e-15 -1.0333959421673353e-14
  outer loop
    vertex 58.78188326771436 12.19698338369195 1.8963474647574414
    vertex 58.781883267714335 11.695469402461178 1.276523306629964
    vertex 58.78188326771435 12.12078158537976 1.2765233066299637
  endloop
endfacet
facet normal 1.0 -2.671704384897185e-15 -1.0333959421673353e-14
  outer loop
    vertex 58.78188326771436 12.19698338369195 1.8963474647574414
    vertex 58.78188326771435 12.12078158537976 1.2765233066299637
    vertex 58.781883267714335 12.452888642494937 0.8522935183958433
  endloop
endfacet
facet normal 1.0 -2.671704384897185e-15 -1.0333959421673353e-14
  outer loop
    vertex 58.78188326771436 12.19698338369195 1.8963474647574414
    vertex 58.781883267714335 12.452888642494937 0.8522935183958433
    vertex 58.781883267714385 12.46354667881275 1.43821367955097
  endloop
endfacet
facet normal 1.0 -2.671704384897185e-15 -1.0333959421673353e-14
  outer loop
    vertex 58.781883267714385 12.46354667881275 1.43821367955097
    vertex 58.781883267714335 12.452888642494937 0.8522935183958433
    vertex 58.781883267714335 13.89998345694581 0.8522935183958358
  endloop
endfacet
facet normal 1.0 -2.671704384897185e-15 -1.0333959421673353e-14
  outer loop
    vertex 58.781883267714385 12.46354667881275 1.43821367955097
    vertex 58.781883267714335 13.89998345694581 0.8522935183958358
    vertex 58.781883267714385 13.008031738110011 1.438213679550968
  endloop
endfacet
facet normal 1.0 -2.671704384897185e-15 -1.0333959421673353e-14
  outer loop
    vertex 58.781883267714385 13.008031738110011 1.438213679550968
    vertex 58.781883267714335 13.89998345694581 0.8522935183958358
    vertex 58.781883267714385 13.515109061093293 1.8963474647574492
  endloop
endfacet
facet normal 1.0 -2.671704384897185e-15 -1.0333959421673353e-14
  outer loop
    vertex 58.781883267714385 13.515109061093293 1.8963474647574492
    vertex 58.781883267714335 13.89998345694581 0.8522935183958358
    vertex 58.78188326771437 14.40564518180691 1.901625359022796
  endloop
endfacet
facet normal 1.0 -2.671704384897185e-15 -1.0333959421673353e-14
  outer loop
    vertex 58.78188326771437 14.40564518180691 1.901625359022796
    vertex 58.781883267714335 13.89998345694581 0.8522935183958358
    vertex 58.78188326771437 14.405645181806888 1.091040982177303
  endloop
endfacet
facet normal 0.9238795244795871 -0.38268342576745923 -0.00014103281041415907
  outer loop
    vertex 2.942578877107449 13.577355228465857 -0.1034597247206667
    vertex 3.227625616474464 14.264781790156706 1.8967445442785884
    vertex 2.94284262319083 13.577254818442395 1.896747581863585
  endloop
endfacet
facet normal 0.9238795244795871 -0.38268342576745923 -0.00014103281041415907
  outer loop
    vertex 3.227625616474464 14.264781790156706 1.8967445442785884
    vertex 2.942578877107449 13.577355228465857 -0.1034597247206667
    vertex 3.2273618703910834 14.264882200180153 -0.10346276230567336
  endloop
endfacet
facet normal 0.7933533333942568 -0.6087614229902228 -0.00013517078069682692
  outer loop
    vertex 3.2273618703910834 14.264882200180153 -0.10346276230567336
    vertex 3.680649937065723 14.855174586652723 1.8967144463804935
    vertex 3.227625616474464 14.264781790156706 1.8967445442785884
  endloop
endfacet
facet normal 0.7933533333942568 -0.6087614229902228 -0.00013517078069682692
  outer loop
    vertex 3.680649937065723 14.855174586652723 1.8967144463804935
    vertex 3.2273618703910834 14.264882200180153 -0.10346276230567336
    vertex 3.6803861909823423 14.855274996676188 -0.10349286020376937
  endloop
endfacet
facet normal 0.6087614237164815 -0.793353335262021 -0.000120097085655754
  outer loop
    vertex 4.2710427261743975 15.308198914519496 1.8966593392913242
    vertex 3.6803861909823423 14.855274996676188 -0.10349286020376937
    vertex 4.270778980091016 15.308299324542956 -0.10354796729293436
  endloop
endfacet
facet normal 0.6087614237164815 -0.793353335262021 -0.000120097085655754
  outer loop
    vertex 3.6803861909823423 14.855274996676188 -0.10349286020376937
    vertex 4.2710427261743975 15.308198914519496 1.8966593392913242
    vertex 3.680649937065723 14.855174586652723 1.8967144463804935
  endloop
endfacet
facet normal 0.38268342903824587 -0.923879528814089 -9.683897269728079e-05
  outer loop
    vertex 4.958569690892948 15.592981914470991 1.8965829784681414
    vertex 4.270778980091016 15.308299324542956 -0.10354796729293436
    vertex 4.958305944809568 15.593082324494466 -0.10362432811611715
  endloop
endfacet
facet normal 0.38268342903824587 -0.923879528814089 -9.683897269728079e-05
  outer loop
    vertex 4.270778980091016 15.308299324542956 -0.10354796729293436
    vertex 4.958569690892948 15.592981914470991 1.8965829784681414
    vertex 4.2710427261743975 15.308198914519496 1.8966593392913242
  endloop
endfacet
facet normal 0.13052619108532462 -0.9914448592605863 -6.698144378301758e-05
  outer loop
    vertex 5.696377004767837 15.690116095686689 1.8964905677748671
    vertex 4.958305944809568 15.593082324494466 -0.10362432811611715
    vertex 5.696113258684456 15.69021650571016 -0.10371673880939564
  endloop
endfacet
facet normal 0.13052619108532462 -0.9914448592605863 -6.698144378301758e-05
  outer loop
    vertex 4.958305944809568 15.593082324494466 -0.10362432811611715
    vertex 5.696377004767837 15.690116095686689 1.8964905677748671
    vertex 4.958569690892948 15.592981914470991 1.8965829784681414
  endloop
endfacet
facet normal -0.13052619108533686 -0.9914448609885727 -3.255924016686272e-05
  outer loop
    vertex 6.43418431864272 15.592981924238547 1.8963884048475041
    vertex 5.696113258684456 15.69021650571016 -0.10371673880939564
    vertex 6.433920572559339 15.593082334262018 -0.10381890173675515
  endloop
endfacet
facet normal -0.13052619108533686 -0.9914448609885727 -3.255924016686272e-05
  outer loop
    vertex 5.696113258684456 15.69021650571016 -0.10371673880939564
    vertex 6.43418431864272 15.592981924238547 1.8963884048475041
    vertex 5.696377004767837 15.690116095686689 1.8964905677748671
  endloop
endfacet
facet normal -0.38268342903825625 -0.9238795338802894 4.081821859343302e-06
  outer loop
    vertex 7.121711283361267 15.308198933388947 1.8962834519207452
    vertex 6.433920572559339 15.593082334262018 -0.10381890173675515
    vertex 7.121447537277887 15.308299343412417 -0.10392385466350533
  endloop
endfacet
facet normal -0.38268342903825625 -0.9238795338802894 4.081821859343302e-06
  outer loop
    vertex 6.433920572559339 15.593082334262018 -0.10381890173675515
    vertex 7.121711283361267 15.308198933388947 1.8962834519207452
    vertex 6.43418431864272 15.592981924238547 1.8963884048475041
  endloop
endfacet
facet normal -0.6087614237164898 -0.7933533433211821 4.044471447219246e-05
  outer loop
    vertex 7.712104072469938 14.85517461333816 1.8961828613630942
    vertex 7.121447537277887 15.308299343412417 -0.10392385466350533
    vertex 7.7118403263865565 14.85527502336163 -0.1040244452211653
  endloop
endfacet
facet normal -0.6087614237164898 -0.7933533433211821 4.044471447219246e-05
  outer loop
    vertex 7.121447537277887 15.308299343412417 -0.10392385466350533
    vertex 7.712104072469938 14.85517461333816 1.8961828613630942
    vertex 7.121711283361267 15.308198933388947 1.8962834519207452
  endloop
endfacet
facet normal -0.7933533333942635 -0.6087614334931262 7.405136663172091e-05
  outer loop
    vertex 7.712104072469938 14.85517461333816 1.8961828613630942
    vertex 8.164864646977808 14.264882232863018 -0.10411381832943502
    vertex 8.165128393061188 14.264781822839556 1.8960934882548222
  endloop
endfacet
facet normal -0.7933533333942635 -0.6087614334931262 7.405136663172091e-05
  outer loop
    vertex 8.164864646977808 14.264882232863018 -0.10411381832943502
    vertex 7.712104072469938 14.85517461333816 1.8961828613630942
    vertex 7.7118403263865565 14.85527502336163 -0.1040244452211653
  endloop
endfacet
facet normal -0.923879524479591 -0.38268343799834975 0.00010261154053031117
  outer loop
    vertex 8.165128393061188 14.264781822839556 1.8960934882548222
    vertex 8.449647640261436 13.57735526491885 -0.10418588335869781
    vertex 8.449911386344818 13.577254854895376 1.8960214232255508
  endloop
endfacet
facet normal -0.923879524479591 -0.38268343799834975 0.00010261154053031117
  outer loop
    vertex 8.449647640261436 13.57735526491885 -0.10418588335869781
    vertex 8.165128393061188 14.264781822839556 1.8960934882548222
    vertex 8.164864646977808 14.264882232863018 -0.10411381832943502
  endloop
endfacet
facet normal -0.9914448527547378 -0.13052619861826753 0.00012417890751551883
  outer loop
    vertex 8.449911386344818 13.577254854895376 1.8960214232255508
    vertex 8.54678181587131 12.83954794620247 -0.10423572919629463
    vertex 8.54704556195469 12.83944753617902 1.8959715773879628
  endloop
endfacet
facet normal -0.9914448527547378 -0.13052619861826753 0.00012417890751551883
  outer loop
    vertex 8.54678181587131 12.83954794620247 -0.10423572919629463
    vertex 8.449911386344818 13.577254854895376 1.8960214232255508
    vertex 8.449647640261436 13.57735526491885 -0.10418588335869781
  endloop
endfacet
facet normal -0.9914448527547364 0.130526185492906 0.00013728368716917313
  outer loop
    vertex 8.54704556195469 12.83944753617902 1.8959715773879628
    vertex 8.449647640261428 12.101740626200176 -0.10425995893077394
    vertex 8.44991138634481 12.10164021617672 1.8959473476534896
  endloop
endfacet
facet normal -0.9914448527547364 0.130526185492906 0.00013728368716917313
  outer loop
    vertex 8.449647640261428 12.101740626200176 -0.10425995893077394
    vertex 8.54704556195469 12.83944753617902 1.8959715773879628
    vertex 8.54678181587131 12.83954794620247 -0.10423572919629463
  endloop
endfacet
facet normal -0.9238795244795867 0.38268342576746023 0.000141032810414166
  outer loop
    vertex 8.44991138634481 12.10164021617672 1.8959473476534896
    vertex 8.164864646977792 11.414213654485886 -0.10425692134576305
    vertex 8.165128393061174 11.414113244462406 1.895950385238492
  endloop
endfacet
facet normal -0.9238795244795867 0.38268342576746023 0.000141032810414166
  outer loop
    vertex 8.164864646977792 11.414213654485886 -0.10425692134576305
    vertex 8.44991138634481 12.10164021617672 1.8959473476534896
    vertex 8.449647640261428 12.101740626200176 -0.10425995893077394
  endloop
endfacet
facet normal -0.7933533333942566 0.6087614229902234 0.00013517078069681307
  outer loop
    vertex 8.165128393061174 11.414113244462406 1.895950385238492
    vertex 7.711840326386535 10.82382085798989 -0.1042268234476741
    vertex 7.7121040724699155 10.823720447966387 1.8959804831365958
  endloop
endfacet
facet normal -0.7933533333942566 0.6087614229902234 0.00013517078069681307
  outer loop
    vertex 7.711840326386535 10.82382085798989 -0.1042268234476741
    vertex 8.165128393061174 11.414113244462406 1.895950385238492
    vertex 8.164864646977792 11.414213654485886 -0.10425692134576305
  endloop
endfacet
facet normal -0.6087614237164809 0.7933533352620215 0.00012009708565561522
  outer loop
    vertex 7.12144753727786 10.370796530123094 -0.10417171635849429
    vertex 7.7121040724699155 10.823720447966387 1.8959804831365958
    vertex 7.711840326386535 10.82382085798989 -0.1042268234476741
  endloop
endfacet
facet normal -0.6087614237164809 0.7933533352620215 0.00012009708565561522
  outer loop
    vertex 7.7121040724699155 10.823720447966387 1.8959804831365958
    vertex 7.12144753727786 10.370796530123094 -0.10417171635849429
    vertex 7.121711283361241 10.370696120099614 1.89603559022576
  endloop
endfacet
facet normal -0.38268342903824804 0.9238795288140882 9.683897269730855e-05
  outer loop
    vertex 6.43392057255931 10.08601353017159 -0.10409535553532985
    vertex 7.121711283361241 10.370696120099614 1.89603559022576
    vertex 7.12144753727786 10.370796530123094 -0.10417171635849429
  endloop
endfacet
facet normal -0.38268342903824804 0.9238795288140882 9.683897269730855e-05
  outer loop
    vertex 7.121711283361241 10.370696120099614 1.89603559022576
    vertex 6.43392057255931 10.08601353017159 -0.10409535553532985
    vertex 6.434184318642691 10.085913120148097 1.8961119510489337
  endloop
endfacet
facet normal -0.13052619108532276 0.9914448592605865 6.698144378289266e-05
  outer loop
    vertex 5.696113258684424 9.988879348955889 -0.1040029448420443
    vertex 6.434184318642691 10.085913120148097 1.8961119510489337
    vertex 6.43392057255931 10.08601353017159 -0.10409535553532985
  endloop
endfacet
facet normal -0.13052619108532276 0.9914448592605865 6.698144378289266e-05
  outer loop
    vertex 6.434184318642691 10.085913120148097 1.8961119510489337
    vertex 5.696113258684424 9.988879348955889 -0.1040029448420443
    vertex 5.696377004767805 9.98877893893242 1.896204361742216
  endloop
endfacet
facet normal 0.13052619108533314 0.9914448609885731 3.255924016661291e-05
  outer loop
    vertex 4.958305944809538 10.086013520404029 -0.10390078191468761
    vertex 5.696377004767805 9.98877893893242 1.896204361742216
    vertex 5.696113258684424 9.988879348955889 -0.1040029448420443
  endloop
endfacet
facet normal 0.13052619108533314 0.9914448609885731 3.255924016661291e-05
  outer loop
    vertex 5.696377004767805 9.98877893893242 1.896204361742216
    vertex 4.958305944809538 10.086013520404029 -0.10390078191468761
    vertex 4.9585696908929195 10.085913110380554 1.8963065246695747
  endloop
endfacet
facet normal 0.3826834290382579 0.9238795338802887 -4.081821859468202e-06
  outer loop
    vertex 4.270778980090991 10.370796511253637 -0.10379582898792615
    vertex 4.9585696908929195 10.085913110380554 1.8963065246695747
    vertex 4.958305944809538 10.086013520404029 -0.10390078191468761
  endloop
endfacet
facet normal 0.3826834290382579 0.9238795338802887 -4.081821859468202e-06
  outer loop
    vertex 4.9585696908929195 10.085913110380554 1.8963065246695747
    vertex 4.270778980090991 10.370796511253637 -0.10379582898792615
    vertex 4.271042726174373 10.370696101230147 1.896411477596338
  endloop
endfacet
facet normal 0.6087614237164888 0.7933533433211829 -4.044471447215777e-05
  outer loop
    vertex 3.6803861909823192 10.82382083130444 -0.10369523843027816
    vertex 4.271042726174373 10.370696101230147 1.896411477596338
    vertex 4.270778980090991 10.370796511253637 -0.10379582898792615
  endloop
endfacet
facet normal 0.6087614237164888 0.7933533433211829 -4.044471447215777e-05
  outer loop
    vertex 4.271042726174373 10.370696101230147 1.896411477596338
    vertex 3.6803861909823192 10.82382083130444 -0.10369523843027816
    vertex 3.6806499370657 10.823720421280937 1.8965120681539858
  endloop
endfacet
facet normal 0.7933533333942635 0.6087614334931262 -7.405136663172091e-05
  outer loop
    vertex 3.6803861909823192 10.82382083130444 -0.10369523843027816
    vertex 3.2276256164744495 11.414113211779545 1.8966014412622523
    vertex 3.6806499370657 10.823720421280937 1.8965120681539858
  endloop
endfacet
facet normal 0.7933533333942635 0.6087614334931262 -7.405136663172091e-05
  outer loop
    vertex 3.2276256164744495 11.414113211779545 1.8966014412622523
    vertex 3.6803861909823192 10.82382083130444 -0.10369523843027816
    vertex 3.2273618703910687 11.414213621803011 -0.10360586532199857
  endloop
endfacet
facet normal 0.9238795244795911 0.38268343799834953 -0.00010261154053025221
  outer loop
    vertex 3.2273618703910687 11.414213621803011 -0.10360586532199857
    vertex 2.942842623190822 12.101640179723727 1.8966735062915163
    vertex 3.2276256164744495 11.414113211779545 1.8966014412622523
  endloop
endfacet
facet normal 0.9238795244795911 0.38268343799834953 -0.00010261154053025221
  outer loop
    vertex 2.942842623190822 12.101640179723727 1.8966735062915163
    vertex 3.2273618703910687 11.414213621803011 -0.10360586532199857
    vertex 2.9425788771074415 12.101740589747179 -0.10353380029274353
  endloop
endfacet
facet normal 0.9914448527547377 0.13052619861826847 -0.000124178907515158
  outer loop
    vertex 2.9425788771074415 12.101740589747179 -0.10353380029274353
    vertex 2.8457084475809484 12.839447498440096 1.8967233521291176
    vertex 2.942842623190822 12.101640179723727 1.8966735062915163
  endloop
endfacet
facet normal 0.9914448527547377 0.13052619861826847 -0.000124178907515158
  outer loop
    vertex 2.8457084475809484 12.839447498440096 1.8967233521291176
    vertex 2.9425788771074415 12.101740589747179 -0.10353380029274353
    vertex 2.8454447014975677 12.839547908463556 -0.10348395445514248
  endloop
endfacet
facet normal 0.9914448527547362 -0.1305261854929076 -0.00013728368716911415
  outer loop
    vertex 2.8454447014975677 12.839547908463556 -0.10348395445514248
    vertex 2.94284262319083 13.577254818442395 1.896747581863585
    vertex 2.8457084475809484 12.839447498440096 1.8967233521291176
  endloop
endfacet
facet normal 0.9914448527547362 -0.1305261854929076 -0.00013728368716911415
  outer loop
    vertex 2.94284262319083 13.577254818442395 1.896747581863585
    vertex 2.8454447014975677 12.839547908463556 -0.10348395445514248
    vertex 2.942578877107449 13.577355228465857 -0.1034597247206667
  endloop
endfacet
facet normal -1.0 8.084719792587e-15 5.226384698253601e-14
  outer loop
    vertex 23.781883267714406 13.515109061093483 1.8963474647581717
    vertex 23.781883267714374 12.463546678812934 1.4382136795516884
    vertex 23.781883267714395 12.196983383692134 1.8963474647581644
  endloop
endfacet
facet normal -1.0 8.084719792587e-15 5.226384698253601e-14
  outer loop
    vertex 23.781883267714374 12.463546678812934 1.4382136795516884
    vertex 23.781883267714406 13.515109061093483 1.8963474647581717
    vertex 23.781883267714377 13.008031738110203 1.4382136795516856
  endloop
endfacet
facet normal 2.0550274276165914e-14 -0.00592654408011932 0.9999824378834193
  outer loop
    vertex 23.781883267714406 13.515109061093483 1.8963474647581717
    vertex 58.78188326771437 14.40564518180691 1.901625359022796
    vertex 23.781883267714374 14.405645181807099 1.9016253590235144
  endloop
endfacet
facet normal 2.0550274276165914e-14 -0.00592654408011932 0.9999824378834193
  outer loop
    vertex 58.78188326771437 14.40564518180691 1.901625359022796
    vertex 23.781883267714406 13.515109061093483 1.8963474647581717
    vertex 58.781883267714385 13.515109061093293 1.8963474647574492
  endloop
endfacet
facet normal -2.645374250677538e-15 -0.9916770712364827 0.12875009275271346
  outer loop
    vertex 58.78188326771435 11.184334634198809 1.8963474647574283
    vertex 23.781883267714363 11.085405602469365 1.134362363634112
    vertex 58.78188326771436 11.085405602469184 1.1343623636333966
  endloop
endfacet
facet normal -2.645374250677538e-15 -0.9916770712364827 0.12875009275271346
  outer loop
    vertex 23.781883267714363 11.085405602469365 1.134362363634112
    vertex 58.78188326771435 11.184334634198809 1.8963474647574283
    vertex 23.781883267714388 11.184334634198994 1.8963474647581517
  endloop
endfacet
facet normal -2.645374250677538e-15 -0.9916770712364827 0.12875009275271346
  outer loop
    vertex 23.781883267714388 11.184334634198994 1.8963474647581517
    vertex 58.78188326771435 11.184334634198809 1.8963474647574283
    vertex 36.253002267714386 11.184334634198926 1.896347464757894
  endloop
endfacet
facet normal -2.645374250677538e-15 -0.9916770712364827 0.12875009275271346
  outer loop
    vertex 36.253002267714386 11.184334634198926 1.896347464757894
    vertex 58.78188326771435 11.184334634198809 1.8963474647574283
    vertex 50.226616267714384 11.184334634198853 1.8963474647576053
  endloop
endfacet
facet normal -2.645374250677538e-15 -0.9916770712364827 0.12875009275271346
  outer loop
    vertex 50.226616267714384 11.184334634198853 1.8963474647576053
    vertex 58.78188326771435 11.184334634198809 1.8963474647574283
    vertex 55.17536926771437 11.184334634198825 1.8963474647575032
  endloop
endfacet
facet normal 1.4942291150462698e-14 0.8643378985774357 0.5029115201332564
  outer loop
    vertex 23.781883267714374 12.463546678812934 1.4382136795516884
    vertex 58.78188326771436 12.19698338369195 1.8963474647574414
    vertex 58.781883267714385 12.46354667881275 1.43821367955097
  endloop
endfacet
facet normal 1.4942291150462698e-14 0.8643378985774357 0.5029115201332564
  outer loop
    vertex 58.78188326771436 12.19698338369195 1.8963474647574414
    vertex 23.781883267714374 12.463546678812934 1.4382136795516884
    vertex 23.781883267714395 12.196983383692134 1.8963474647581644
  endloop
endfacet
facet normal 2.06679188433467e-14 -2.428612866367529e-16 1.0
  outer loop
    vertex 36.253002267714386 11.184334634198926 1.896347464757894
    vertex 23.781883267714395 12.196983383692134 1.8963474647581644
    vertex 23.781883267714388 11.184334634198994 1.8963474647581517
  endloop
endfacet
facet normal 2.06679188433467e-14 -2.428612866367529e-16 1.0
  outer loop
    vertex 23.781883267714395 12.196983383692134 1.8963474647581644
    vertex 36.253002267714386 11.184334634198926 1.896347464757894
    vertex 58.78188326771436 12.19698338369195 1.8963474647574414
  endloop
endfacet
facet normal 2.06679188433467e-14 -2.428612866367529e-16 1.0
  outer loop
    vertex 58.78188326771436 12.19698338369195 1.8963474647574414
    vertex 36.253002267714386 11.184334634198926 1.896347464757894
    vertex 50.226616267714384 11.184334634198853 1.8963474647576053
  endloop
endfacet
facet normal 2.06679188433467e-14 -2.428612866367529e-16 1.0
  outer loop
    vertex 58.78188326771436 12.19698338369195 1.8963474647574414
    vertex 50.226616267714384 11.184334634198853 1.8963474647576053
    vertex 55.17536926771437 11.184334634198825 1.8963474647575032
  endloop
endfacet
facet normal 2.06679188433467e-14 -2.428612866367529e-16 1.0
  outer loop
    vertex 58.78188326771436 12.19698338369195 1.8963474647574414
    vertex 55.17536926771437 11.184334634198825 1.8963474647575032
    vertex 58.78188326771435 11.184334634198809 1.8963474647574283
  endloop
endfacet
facet normal -5.343408769794352e-15 -1.0 -2.4286128663664245e-16
  outer loop
    vertex 58.781883267714335 14.517907415460762 -0.06124995110311753
    vertex 23.781883267714342 14.517907415460945 -0.09740295110239734
    vertex 58.781883267714335 14.517907415460755 -0.09740295110311784
  endloop
endfacet
facet normal -5.343408769794352e-15 -1.0 -2.4286128663664245e-16
  outer loop
    vertex 23.781883267714342 14.517907415460945 -0.09740295110239734
    vertex 58.781883267714335 14.517907415460762 -0.06124995110311753
    vertex 23.781883267714342 14.517907415460947 -0.06124995110240056
  endloop
endfacet
facet normal 1.0 -2.914410297588024e-14 -6.490294793383869e-15
  outer loop
    vertex 23.781883267714342 10.206112217504385 1.8096356349571487
    vertex 23.781883267714388 11.184334634198994 1.8963474647581517
    vertex 23.781883267714345 10.206112217504375 1.8791096349571694
  endloop
endfacet
facet normal 1.0 -2.914410297588024e-14 -6.490294793383869e-15
  outer loop
    vertex 23.781883267714388 11.184334634198994 1.8963474647581517
    vertex 23.781883267714342 10.206112217504385 1.8096356349571487
    vertex 23.78188326771436 10.290135092746393 1.7480948997330907
  endloop
endfacet
facet normal 1.0 -2.914410297588024e-14 -6.490294793383869e-15
  outer loop
    vertex 23.781883267714388 11.184334634198994 1.8963474647581517
    vertex 23.78188326771436 10.290135092746393 1.7480948997330907
    vertex 23.781883267714356 10.290135092746427 1.134362363634106
  endloop
endfacet
facet normal 1.0 -2.914410297588024e-14 -6.490294793383869e-15
  outer loop
    vertex 23.781883267714388 11.184334634198994 1.8963474647581517
    vertex 23.781883267714356 10.290135092746427 1.134362363634106
    vertex 23.781883267714363 11.085405602469365 1.134362363634112
  endloop
endfacet
facet normal 0.00012963007110816546 -5.025129657467639e-05 0.9999999903354259
  outer loop
    vertex 0.42939456211025473 9.540195480283822 1.8963474647586416
    vertex 0.4293945621102942 16.13869955433534 1.8963474647586378
    vertex -0.004960208734470599 12.839447517309589 1.8963474647586653
  endloop
endfacet
facet normal 0.00012963007110816546 -5.025129657467639e-05 0.9999999903354259
  outer loop
    vertex 0.4293945621102942 16.13869955433534 1.8963474647586378
    vertex 0.42939456211025473 9.540195480283822 1.8963474647586416
    vertex 1.7028583148165974 6.465782017309592 1.8963474647586132
  endloop
endfacet
facet normal 0.00012963007110816546 -5.025129657467639e-05 0.9999999903354259
  outer loop
    vertex 0.4293945621102942 16.13869955433534 1.8963474647586378
    vertex 1.7028583148165974 6.465782017309592 1.8963474647586132
    vertex 1.702858314816674 19.21311301730957 1.896347464758618
  endloop
endfacet
facet normal 0.00012963007110816546 -5.025129657467639e-05 0.9999999903354259
  outer loop
    vertex 1.702858314816674 19.21311301730957 1.896347464758618
    vertex 1.7028583148165974 6.465782017309592 1.8963474647586132
    vertex 3.7286465991359847 3.8257233251800664 1.8963474647585772
  endloop
endfacet
facet normal 0.00012963007110816546 -5.025129657467639e-05 0.9999999903354259
  outer loop
    vertex 1.702858314816674 19.21311301730957 1.896347464758618
    vertex 3.7286465991359847 3.8257233251800664 1.8963474647585772
    vertex 2.8457084475809484 12.839447498440096 1.8967233521291176
  endloop
endfacet
facet normal 0.00012963007110816546 -5.025129657467639e-05 0.9999999903354259
  outer loop
    vertex 2.8457084475809484 12.839447498440096 1.8967233521291176
    vertex 3.7286465991359847 3.8257233251800664 1.8963474647585772
    vertex 2.942842623190822 12.101640179723727 1.8966735062915163
  endloop
endfacet
facet normal 0.00012963007110816546 -5.025129657467639e-05 0.9999999903354259
  outer loop
    vertex 2.942842623190822 12.101640179723727 1.8966735062915163
    vertex 3.7286465991359847 3.8257233251800664 1.8963474647585772
    vertex 3.2276256164744495 11.414113211779545 1.8966014412622523
  endloop
endfacet
facet normal 0.00012963007110816546 -5.025129657467639e-05 0.9999999903354259
  outer loop
    vertex 3.2276256164744495 11.414113211779545 1.8966014412622523
    vertex 3.7286465991359847 3.8257233251800664 1.8963474647585772
    vertex 3.6806499370657 10.823720421280937 1.8965120681539858
  endloop
endfacet
facet normal 0.00012963007110816546 -5.025129657467639e-05 0.9999999903354259
  outer loop
    vertex 3.6806499370657 10.823720421280937 1.8965120681539858
    vertex 3.7286465991359847 3.8257233251800664 1.8963474647585772
    vertex 4.271042726174373 10.370696101230147 1.896411477596338
  endloop
endfacet
facet normal 0.00012963007110816546 -5.025129657467639e-05 0.9999999903354259
  outer loop
    vertex 4.271042726174373 10.370696101230147 1.896411477596338
    vertex 3.7286465991359847 3.8257233251800664 1.8963474647585772
    vertex 6.368705291265463 1.7999350408606616 1.896347464758523
  endloop
endfacet
facet normal 0.00012963007110816546 -5.025129657467639e-05 0.9999999903354259
  outer loop
    vertex 4.271042726174373 10.370696101230147 1.896411477596338
    vertex 6.368705291265463 1.7999350408606616 1.896347464758523
    vertex 4.9585696908929195 10.085913110380554 1.8963065246695747
  endloop
endfacet
facet normal 0.00012963007110816546 -5.025129657467639e-05 0.9999999903354259
  outer loop
    vertex 4.9585696908929195 10.085913110380554 1.8963065246695747
    vertex 6.368705291265463 1.7999350408606616 1.896347464758523
    vertex 5.696377004767805 9.98877893893242 1.896204361742216
  endloop
endfacet
facet normal 0.00012963007110816546 -5.025129657467639e-05 0.9999999903354259
  outer loop
    vertex 5.696377004767805 9.98877893893242 1.896204361742216
    vertex 6.368705291265463 1.7999350408606616 1.896347464758523
    vertex 6.434184318642691 10.085913120148097 1.8961119510489337
  endloop
endfacet
facet normal 0.00012963007110816546 -5.025129657467639e-05 0.9999999903354259
  outer loop
    vertex 6.434184318642691 10.085913120148097 1.8961119510489337
    vertex 6.368705291265463 1.7999350408606616 1.896347464758523
    vertex 9.443118754239691 0.5264712881543052 1.8963474647584562
  endloop
endfacet
facet normal 0.00012963007110816546 -5.025129657467639e-05 0.9999999903354259
  outer loop
    vertex 6.434184318642691 10.085913120148097 1.8961119510489337
    vertex 9.443118754239691 0.5264712881543052 1.8963474647584562
    vertex 7.121711283361241 10.370696120099614 1.89603559022576
  endloop
endfacet
facet normal 0.00012963007110816546 -5.025129657467639e-05 0.9999999903354259
  outer loop
    vertex 7.121711283361241 10.370696120099614 1.89603559022576
    vertex 9.443118754239691 0.5264712881543052 1.8963474647584562
    vertex 7.7121040724699155 10.823720447966387 1.8959804831365958
  endloop
endfacet
facet normal 0.00012963007110816546 -5.025129657467639e-05 0.9999999903354259
  outer loop
    vertex 7.7121040724699155 10.823720447966387 1.8959804831365958
    vertex 9.443118754239691 0.5264712881543052 1.8963474647584562
    vertex 8.165128393061174 11.414113244462406 1.895950385238492
  endloop
endfacet
facet normal 0.00012963007110816546 -5.025129657467639e-05 0.9999999903354259
  outer loop
    vertex 8.165128393061174 11.414113244462406 1.895950385238492
    vertex 9.443118754239691 0.5264712881543052 1.8963474647584562
    vertex 8.44991138634481 12.10164021617672 1.8959473476534896
  endloop
endfacet
facet normal 0.00012963007110816546 -5.025129657467639e-05 0.9999999903354259
  outer loop
    vertex 8.44991138634481 12.10164021617672 1.8959473476534896
    vertex 9.443118754239691 0.5264712881543052 1.8963474647584562
    vertex 8.54704556195469 12.83944753617902 1.8959715773879628
  endloop
endfacet
facet normal 0.00012963007110816546 -5.025129657467639e-05 0.9999999903354259
  outer loop
    vertex 2.8457084475809484 12.839447498440096 1.8967233521291176
    vertex 3.728646599136088 21.85317170943905 1.8963474647585827
    vertex 1.702858314816674 19.21311301730957 1.896347464758618
  endloop
endfacet
facet normal 0.00012963007110816546 -5.025129657467639e-05 0.9999999903354259
  outer loop
    vertex 3.728646599136088 21.85317170943905 1.8963474647585827
    vertex 2.8457084475809484 12.839447498440096 1.8967233521291176
    vertex 2.94284262319083 13.577254818442395 1.896747581863585
  endloop
endfacet
facet normal 0.00012963007110816546 -5.025129657467639e-05 0.9999999903354259
  outer loop
    vertex 3.728646599136088 21.85317170943905 1.8963474647585827
    vertex 2.94284262319083 13.577254818442395 1.896747581863585
    vertex 3.227625616474464 14.264781790156706 1.8967445442785884
  endloop
endfacet
facet normal 0.00012963007110816546 -5.025129657467639e-05 0.9999999903354259
  outer loop
    vertex 3.728646599136088 21.85317170943905 1.8963474647585827
    vertex 3.227625616474464 14.264781790156706 1.8967445442785884
    vertex 3.680649937065723 14.855174586652723 1.8967144463804935
  endloop
endfacet
facet normal 0.00012963007110816546 -5.025129657467639e-05 0.9999999903354259
  outer loop
    vertex 3.728646599136088 21.85317170943905 1.8963474647585827
    vertex 3.680649937065723 14.855174586652723 1.8967144463804935
    vertex 4.2710427261743975 15.308198914519496 1.8966593392913242
  endloop
endfacet
facet normal 0.00012963007110816546 -5.025129657467639e-05 0.9999999903354259
  outer loop
    vertex 3.728646599136088 21.85317170943905 1.8963474647585827
    vertex 4.2710427261743975 15.308198914519496 1.8966593392913242
    vertex 6.36870529126559 23.87895999375843 1.8963474647585201
  endloop
endfacet
facet normal 0.00012963007110816546 -5.025129657467639e-05 0.9999999903354259
  outer loop
    vertex 6.36870529126559 23.87895999375843 1.8963474647585201
    vertex 4.2710427261743975 15.308198914519496 1.8966593392913242
    vertex 4.958569690892948 15.592981914470991 1.8965829784681414
  endloop
endfacet
facet normal 0.00012963007110816546 -5.025129657467639e-05 0.9999999903354259
  outer loop
    vertex 6.36870529126559 23.87895999375843 1.8963474647585201
    vertex 4.958569690892948 15.592981914470991 1.8965829784681414
    vertex 5.696377004767837 15.690116095686689 1.8964905677748671
  endloop
endfacet
facet normal 0.00012963007110816546 -5.025129657467639e-05 0.9999999903354259
  outer loop
    vertex 6.36870529126559 23.87895999375843 1.8963474647585201
    vertex 5.696377004767837 15.690116095686689 1.8964905677748671
    vertex 6.43418431864272 15.592981924238547 1.8963884048475041
  endloop
endfacet
facet normal 0.00012963007110816546 -5.025129657467639e-05 0.9999999903354259
  outer loop
    vertex 6.36870529126559 23.87895999375843 1.8963474647585201
    vertex 6.43418431864272 15.592981924238547 1.8963884048475041
    vertex 9.443118754239835 25.152423746464773 1.896347464758458
  endloop
endfacet
facet normal 0.00012963007110816546 -5.025129657467639e-05 0.9999999903354259
  outer loop
    vertex 9.443118754239835 25.152423746464773 1.896347464758458
    vertex 6.43418431864272 15.592981924238547 1.8963884048475041
    vertex 7.121711283361267 15.308198933388947 1.8962834519207452
  endloop
endfacet
facet normal 0.00012963007110816546 -5.025129657467639e-05 0.9999999903354259
  outer loop
    vertex 9.443118754239835 25.152423746464773 1.896347464758458
    vertex 7.121711283361267 15.308198933388947 1.8962834519207452
    vertex 7.712104072469938 14.85517461333816 1.8961828613630942
  endloop
endfacet
facet normal 0.00012963007110816546 -5.025129657467639e-05 0.9999999903354259
  outer loop
    vertex 9.443118754239835 25.152423746464773 1.896347464758458
    vertex 7.712104072469938 14.85517461333816 1.8961828613630942
    vertex 8.165128393061188 14.264781822839556 1.8960934882548222
  endloop
endfacet
facet normal 0.00012963007110816546 -5.025129657467639e-05 0.9999999903354259
  outer loop
    vertex 9.443118754239835 25.152423746464773 1.896347464758458
    vertex 8.165128393061188 14.264781822839556 1.8960934882548222
    vertex 8.449911386344818 13.577254854895376 1.8960214232255508
  endloop
endfacet
facet normal 0.00012963007110816546 -5.025129657467639e-05 0.9999999903354259
  outer loop
    vertex 9.443118754239835 25.152423746464773 1.896347464758458
    vertex 8.449911386344818 13.577254854895376 1.8960214232255508
    vertex 8.54704556195469 12.83944753617902 1.8959715773879628
  endloop
endfacet
facet normal 0.00012963007110816546 -5.025129657467639e-05 0.9999999903354259
  outer loop
    vertex 9.443118754239835 25.152423746464773 1.896347464758458
    vertex 8.54704556195469 12.83944753617902 1.8959715773879628
    vertex 9.443118754239691 0.5264712881543052 1.8963474647584562
  endloop
endfacet
facet normal 0.00012963007110816546 -5.025129657467639e-05 0.9999999903354259
  outer loop
    vertex 9.443118754239835 25.152423746464773 1.896347464758458
    vertex 9.443118754239691 0.5264712881543052 1.8963474647584562
    vertex 12.742370791265461 0.09211651730954244 1.8963474647583798
  endloop
endfacet
facet normal 0.00012963007110816546 -5.025129657467639e-05 0.9999999903354259
  outer loop
    vertex 9.443118754239835 25.152423746464773 1.896347464758458
    vertex 12.742370791265461 0.09211651730954244 1.8963474647583798
    vertex 12.742370791265598 25.586778517309504 1.8963474647583918
  endloop
endfacet
facet normal 0.00012963007110816546 -5.025129657467639e-05 0.9999999903354259
  outer loop
    vertex 12.742370791265598 25.586778517309504 1.8963474647583918
    vertex 12.742370791265461 0.09211651730954244 1.8963474647583798
    vertex 16.04162282829122 0.52647128815426 1.8963474647583187
  endloop
endfacet
facet normal 0.00012963007110816546 -5.025129657467639e-05 0.9999999903354259
  outer loop
    vertex 12.742370791265598 25.586778517309504 1.8963474647583918
    vertex 16.04162282829122 0.52647128815426 1.8963474647583187
    vertex 16.041622828291356 25.152423746464738 1.8963474647583216
  endloop
endfacet
facet normal 0.00012963007110816546 -5.025129657467639e-05 0.9999999903354259
  outer loop
    vertex 16.041622828291356 25.152423746464738 1.8963474647583216
    vertex 16.04162282829122 0.52647128815426 1.8963474647583187
    vertex 19.11603629126547 1.7999350408605825 1.896347464758255
  endloop
endfacet
facet normal 0.00012963007110816546 -5.025129657467639e-05 0.9999999903354259
  outer loop
    vertex 16.041622828291356 25.152423746464738 1.8963474647583216
    vertex 19.11603629126547 1.7999350408605825 1.896347464758255
    vertex 19.11603629126559 23.878959993758365 1.896347464758267
  endloop
endfacet
facet normal 0.00012963007110816546 -5.025129657467639e-05 0.9999999903354259
  outer loop
    vertex 19.11603629126559 23.878959993758365 1.896347464758267
    vertex 19.11603629126547 1.7999350408605825 1.896347464758255
    vertex 21.75609498339497 3.8257233251799705 1.8963474647582046
  endloop
endfacet
facet normal 0.00012963007110816546 -5.025129657467639e-05 0.9999999903354259
  outer loop
    vertex 19.11603629126559 23.878959993758365 1.896347464758267
    vertex 21.75609498339497 3.8257233251799705 1.8963474647582046
    vertex 21.75609498339507 21.853171709438953 1.8963474647582155
  endloop
endfacet
facet normal 0.00012963007110816546 -5.025129657467639e-05 0.9999999903354259
  outer loop
    vertex 21.75609498339507 21.853171709438953 1.8963474647582155
    vertex 21.75609498339497 3.8257233251799705 1.8963474647582046
    vertex 23.781883267714385 6.465782017309457 1.8963474647581666
  endloop
endfacet
facet normal 0.00012963007110816546 -5.025129657467639e-05 0.9999999903354259
  outer loop
    vertex 21.75609498339507 21.853171709438953 1.8963474647582155
    vertex 23.781883267714385 6.465782017309457 1.8963474647581666
    vertex 23.78188326771434 9.4202111385933 1.879109634957163
  endloop
endfacet
facet normal 0.00012963007110816546 -5.025129657467639e-05 0.9999999903354259
  outer loop
    vertex 23.781883267714388 11.184334634198994 1.8963474647581517
    vertex 23.781883267714374 14.405645181807099 1.9016253590235144
    vertex 23.781883267714345 10.206112217504375 1.8791096349571694
  endloop
endfacet
facet normal 0.00012963007110816546 -5.025129657467639e-05 0.9999999903354259
  outer loop
    vertex 23.781883267714374 14.405645181807099 1.9016253590235144
    vertex 23.781883267714388 11.184334634198994 1.8963474647581517
    vertex 23.781883267714395 12.196983383692134 1.8963474647581644
  endloop
endfacet
facet normal 0.00012963007110816546 -5.025129657467639e-05 0.9999999903354259
  outer loop
    vertex 23.781883267714374 14.405645181807099 1.9016253590235144
    vertex 23.781883267714395 12.196983383692134 1.8963474647581644
    vertex 23.781883267714406 13.515109061093483 1.8963474647581717
  endloop
endfacet
facet normal 0.00012963007110816546 -5.025129657467639e-05 0.9999999903354259
  outer loop
    vertex 21.75609498339507 21.853171709438953 1.8963474647582155
    vertex 23.781883267714374 14.405645181807099 1.9016253590235144
    vertex 23.781883267714456 19.21311301730944 1.8963474647581564
  endloop
endfacet
facet normal 0.00012963007110816546 -5.025129657467639e-05 0.9999999903354259
  outer loop
    vertex 23.781883267714374 14.405645181807099 1.9016253590235144
    vertex 21.75609498339507 21.853171709438953 1.8963474647582155
    vertex 23.78188326771434 9.4202111385933 1.879109634957163
  endloop
endfacet
facet normal 0.00012963007110816546 -5.025129657467639e-05 0.9999999903354259
  outer loop
    vertex 23.781883267714374 14.405645181807099 1.9016253590235144
    vertex 23.78188326771434 9.4202111385933 1.879109634957163
    vertex 23.781883267714345 10.206112217504375 1.8791096349571694
  endloop
endfacet
facet normal 0.13052619222004622 -0.9914448613738112 -2.636382603385769e-15
  outer loop
    vertex 16.04162282829122 0.52647128815426 1.8963474647583187
    vertex 12.742370791265419 0.0921165173095086 -0.10365253524159082
    vertex 16.041622828291178 0.5264712881542262 -0.10365253524168212
  endloop
endfacet
facet normal 0.13052619222004622 -0.9914448613738112 -2.636382603385769e-15
  outer loop
    vertex 12.742370791265419 0.0921165173095086 -0.10365253524159082
    vertex 16.04162282829122 0.52647128815426 1.8963474647583187
    vertex 12.742370791265461 0.09211651730954244 1.8963474647583798
  endloop
endfacet
facet normal -0.13052619222005732 -0.9914448613738098 2.6618823774297335e-15
  outer loop
    vertex 12.742370791265461 0.09211651730954244 1.8963474647583798
    vertex 9.44311875423965 0.52647128815426 -0.10365253524154605
    vertex 12.742370791265419 0.0921165173095086 -0.10365253524159082
  endloop
endfacet
facet normal -0.13052619222005732 -0.9914448613738098 2.6618823774297335e-15
  outer loop
    vertex 9.44311875423965 0.52647128815426 -0.10365253524154605
    vertex 12.742370791265461 0.09211651730954244 1.8963474647583798
    vertex 9.443118754239691 0.5264712881543052 1.8963474647584562
  endloop
endfacet
facet normal -0.38268343236509555 -0.9238795325112844 7.517595312991674e-15
  outer loop
    vertex 9.443118754239691 0.5264712881543052 1.8963474647584562
    vertex 6.368705291265422 1.7999350408606447 -0.1036525352414685
    vertex 9.44311875423965 0.52647128815426 -0.10365253524154605
  endloop
endfacet
facet normal -0.38268343236509555 -0.9238795325112844 7.517595312991674e-15
  outer loop
    vertex 6.368705291265422 1.7999350408606447 -0.1036525352414685
    vertex 9.443118754239691 0.5264712881543052 1.8963474647584562
    vertex 6.368705291265463 1.7999350408606616 1.896347464758523
  endloop
endfacet
facet normal -0.6087614290087248 -0.7933533402912321 1.2637854450859972e-14
  outer loop
    vertex 6.368705291265463 1.7999350408606616 1.896347464758523
    vertex 3.728646599135943 3.825723325180061 -0.10365253524140718
    vertex 6.368705291265422 1.7999350408606447 -0.1036525352414685
  endloop
endfacet
facet normal -0.6087614290087248 -0.7933533402912321 1.2637854450859972e-14
  outer loop
    vertex 3.728646599135943 3.825723325180061 -0.10365253524140718
    vertex 6.368705291265463 1.7999350408606616 1.896347464758523
    vertex 3.7286465991359847 3.8257233251800664 1.8963474647585772
  endloop
endfacet
facet normal -0.7933533402912393 -0.6087614290087154 1.6643754393336093e-14
  outer loop
    vertex 3.7286465991359847 3.8257233251800664 1.8963474647585772
    vertex 1.7028583148165564 6.465782017309592 -0.10365253524137051
    vertex 3.728646599135943 3.825723325180061 -0.10365253524140718
  endloop
endfacet
facet normal -0.7933533402912393 -0.6087614290087154 1.6643754393336093e-14
  outer loop
    vertex 1.7028583148165564 6.465782017309592 -0.10365253524137051
    vertex 3.7286465991359847 3.8257233251800664 1.8963474647585772
    vertex 1.7028583148165974 6.465782017309592 1.8963474647586132
  endloop
endfacet
facet normal -0.923879532511289 -0.3826834323650844 1.9041036385397127e-14
  outer loop
    vertex 0.42939456211025473 9.540195480283822 1.8963474647586416
    vertex 1.7028583148165564 6.465782017309592 -0.10365253524137051
    vertex 1.7028583148165974 6.465782017309592 1.8963474647586132
  endloop
endfacet
facet normal -0.923879532511289 -0.3826834323650844 1.9041036385397127e-14
  outer loop
    vertex 1.7028583148165564 6.465782017309592 -0.10365253524137051
    vertex 0.42939456211025473 9.540195480283822 1.8963474647586416
    vertex 0.4293945621102134 9.540195480283838 -0.1036525352413409
  endloop
endfacet
facet normal -0.9914448613738112 -0.13052619222004594 2.0411165858462772e-14
  outer loop
    vertex -0.004960208734470599 12.839447517309589 1.8963474647586653
    vertex 0.4293945621102134 9.540195480283838 -0.1036525352413409
    vertex 0.42939456211025473 9.540195480283822 1.8963474647586416
  endloop
endfacet
facet normal -0.9914448613738112 -0.13052619222004594 2.0411165858462772e-14
  outer loop
    vertex 0.4293945621102134 9.540195480283838 -0.1036525352413409
    vertex -0.004960208734470599 12.839447517309589 1.8963474647586653
    vertex -0.0049602087345119355 12.839447517309576 -0.1036525352413416
  endloop
endfacet
facet normal -0.9914448613738097 0.13052619222005737 2.0501649067552227e-14
  outer loop
    vertex -0.004960208734470599 12.839447517309589 1.8963474647586653
    vertex 0.42939456211025284 16.13869955433534 -0.1036525352413483
    vertex -0.0049602087345119355 12.839447517309576 -0.1036525352413416
  endloop
endfacet
facet normal -0.9914448613738097 0.13052619222005737 2.0501649067552227e-14
  outer loop
    vertex 0.42939456211025284 16.13869955433534 -0.1036525352413483
    vertex -0.004960208734470599 12.839447517309589 1.8963474647586653
    vertex 0.4293945621102942 16.13869955433534 1.8963474647586378
  endloop
endfacet
facet normal -0.9238795325112845 0.3826834323650955 1.910666464912416e-14
  outer loop
    vertex 1.702858314816674 19.21311301730957 1.896347464758618
    vertex 0.42939456211025284 16.13869955433534 -0.1036525352413483
    vertex 0.4293945621102942 16.13869955433534 1.8963474647586378
  endloop
endfacet
facet normal -0.9238795325112845 0.3826834323650955 1.910666464912416e-14
  outer loop
    vertex 0.42939456211025284 16.13869955433534 -0.1036525352413483
    vertex 1.702858314816674 19.21311301730957 1.896347464758618
    vertex 1.7028583148166327 19.213113017309574 -0.10365253524136522
  endloop
endfacet
facet normal -0.7933533402912317 0.6087614290087252 1.6344459538447858e-14
  outer loop
    vertex 3.728646599136088 21.85317170943905 1.8963474647585827
    vertex 1.7028583148166327 19.213113017309574 -0.10365253524136522
    vertex 1.702858314816674 19.21311301730957 1.896347464758618
  endloop
endfacet
facet normal -0.7933533402912317 0.6087614290087252 1.6344459538447858e-14
  outer loop
    vertex 1.7028583148166327 19.213113017309574 -0.10365253524136522
    vertex 3.728646599136088 21.85317170943905 1.8963474647585827
    vertex 3.7286465991360465 21.85317170943905 -0.10365253524142867
  endloop
endfacet
facet normal 0.6087614290087163 -0.7933533402912385 -1.252580916856403e-14
  outer loop
    vertex 21.75609498339497 3.8257233251799705 1.8963474647582046
    vertex 19.116036291265427 1.799935040860577 -0.10365253524173253
    vertex 21.756094983394927 3.8257233251799594 -0.10365253524178258
  endloop
endfacet
facet normal 0.6087614290087163 -0.7933533402912385 -1.252580916856403e-14
  outer loop
    vertex 19.116036291265427 1.799935040860577 -0.10365253524173253
    vertex 21.75609498339497 3.8257233251799705 1.8963474647582046
    vertex 19.11603629126547 1.7999350408605825 1.896347464758255
  endloop
endfacet
facet normal 0.7933533402912322 -0.6087614290087245 -1.635833732625568e-14
  outer loop
    vertex 23.781883267714342 6.465782017309462 -0.10365253524183404
    vertex 21.75609498339497 3.8257233251799705 1.8963474647582046
    vertex 21.756094983394927 3.8257233251799594 -0.10365253524178258
  endloop
endfacet
facet normal 0.7933533402912322 -0.6087614290087245 -1.635833732625568e-14
  outer loop
    vertex 21.75609498339497 3.8257233251799705 1.8963474647582046
    vertex 23.781883267714342 6.465782017309462 -0.10365253524183404
    vertex 23.781883267714385 6.465782017309457 1.8963474647581666
  endloop
endfacet
facet normal 0.7933533402912386 0.6087614290087161 -1.6449465364026678e-14
  outer loop
    vertex 21.756094983395027 21.853171709438946 -0.10365253524179774
    vertex 23.781883267714456 19.21311301730944 1.8963474647581564
    vertex 23.781883267714413 19.21311301730944 -0.10365253524182205
  endloop
endfacet
facet normal 0.7933533402912386 0.6087614290087161 -1.6449465364026678e-14
  outer loop
    vertex 23.781883267714456 19.21311301730944 1.8963474647581564
    vertex 21.756094983395027 21.853171709438946 -0.10365253524179774
    vertex 21.75609498339507 21.853171709438953 1.8963474647582155
  endloop
endfacet
facet normal 0.6087614290087251 0.7933533402912317 -1.273499896551468e-14
  outer loop
    vertex 19.11603629126555 23.87895999375835 -0.10365253524175368
    vertex 21.75609498339507 21.853171709438953 1.8963474647582155
    vertex 21.756094983395027 21.853171709438946 -0.10365253524179774
  endloop
endfacet
facet normal 0.6087614290087251 0.7933533402912317 -1.273499896551468e-14
  outer loop
    vertex 21.75609498339507 21.853171709438953 1.8963474647582155
    vertex 19.11603629126555 23.87895999375835 -0.10365253524175368
    vertex 19.11603629126559 23.878959993758365 1.896347464758267
  endloop
endfacet
facet normal 0.38268343236509544 0.9238795325112844 -7.517595312991671e-15
  outer loop
    vertex 16.041622828291317 25.152423746464738 -0.10365253524167718
    vertex 19.11603629126559 23.878959993758365 1.896347464758267
    vertex 19.11603629126555 23.87895999375835 -0.10365253524175368
  endloop
endfacet
facet normal 0.38268343236509544 0.9238795325112844 -7.517595312991671e-15
  outer loop
    vertex 19.11603629126559 23.878959993758365 1.896347464758267
    vertex 16.041622828291317 25.152423746464738 -0.10365253524167718
    vertex 16.041622828291356 25.152423746464738 1.8963474647583216
  endloop
endfacet
facet normal 0.13052619222005715 0.9914448613738098 -3.092093799471978e-15
  outer loop
    vertex 12.742370791265557 25.586778517309497 -0.10365253524160245
    vertex 16.041622828291356 25.152423746464738 1.8963474647583216
    vertex 16.041622828291317 25.152423746464738 -0.10365253524167718
  endloop
endfacet
facet normal 0.13052619222005715 0.9914448613738098 -3.092093799471978e-15
  outer loop
    vertex 16.041622828291356 25.152423746464738 1.8963474647583216
    vertex 12.742370791265557 25.586778517309497 -0.10365253524160245
    vertex 12.742370791265598 25.586778517309504 1.8963474647583918
  endloop
endfacet
facet normal -0.130526192220046 0.9914448613738112 2.414337998460733e-15
  outer loop
    vertex 9.443118754239794 25.152423746464777 -0.10365253524154218
    vertex 12.742370791265598 25.586778517309504 1.8963474647583918
    vertex 12.742370791265557 25.586778517309497 -0.10365253524160245
  endloop
endfacet
facet normal -0.130526192220046 0.9914448613738112 2.414337998460733e-15
  outer loop
    vertex 12.742370791265598 25.586778517309504 1.8963474647583918
    vertex 9.443118754239794 25.152423746464777 -0.10365253524154218
    vertex 9.443118754239835 25.152423746464773 1.896347464758458
  endloop
endfacet
facet normal 0.38268343236508495 -0.9238795325112888 -8.342578296061854e-15
  outer loop
    vertex 19.11603629126547 1.7999350408605825 1.896347464758255
    vertex 16.041622828291178 0.5264712881542262 -0.10365253524168212
    vertex 19.116036291265427 1.799935040860577 -0.10365253524173253
  endloop
endfacet
facet normal 0.38268343236508495 -0.9238795325112888 -8.342578296061854e-15
  outer loop
    vertex 16.041622828291178 0.5264712881542262 -0.10365253524168212
    vertex 19.11603629126547 1.7999350408605825 1.896347464758255
    vertex 16.04162282829122 0.52647128815426 1.8963474647583187
  endloop
endfacet
facet normal -0.6087614290087164 0.7933533402912383 1.245642022952496e-14
  outer loop
    vertex 3.7286465991360465 21.85317170943905 -0.10365253524142867
    vertex 6.36870529126559 23.87895999375843 1.8963474647585201
    vertex 6.368705291265549 23.87895999375843 -0.10365253524148542
  endloop
endfacet
facet normal -0.6087614290087164 0.7933533402912383 1.245642022952496e-14
  outer loop
    vertex 6.36870529126559 23.87895999375843 1.8963474647585201
    vertex 3.7286465991360465 21.85317170943905 -0.10365253524142867
    vertex 3.728646599136088 21.85317170943905 1.8963474647585827
  endloop
endfacet
facet normal -0.3826834323650847 0.9238795325112888 8.106655903329003e-15
  outer loop
    vertex 6.368705291265549 23.87895999375843 -0.10365253524148542
    vertex 9.443118754239835 25.152423746464773 1.896347464758458
    vertex 9.443118754239794 25.152423746464777 -0.10365253524154218
  endloop
endfacet
facet normal -0.3826834323650847 0.9238795325112888 8.106655903329003e-15
  outer loop
    vertex 9.443118754239835 25.152423746464773 1.896347464758458
    vertex 6.368705291265549 23.87895999375843 -0.10365253524148542
    vertex 6.36870529126559 23.87895999375843 1.8963474647585201
  endloop
endfacet
facet normal 1.1689665530081083e-14 -0.6703897740216115 0.742009131269456
  outer loop
    vertex 58.781883267714385 13.008031738110011 1.438213679550968
    vertex 23.781883267714406 13.515109061093483 1.8963474647581717
    vertex 23.781883267714377 13.008031738110203 1.4382136795516856
  endloop
endfacet
facet normal 1.1689665530081083e-14 -0.6703897740216115 0.742009131269456
  outer loop
    vertex 23.781883267714406 13.515109061093483 1.8963474647581717
    vertex 58.781883267714385 13.008031738110011 1.438213679550968
    vertex 58.781883267714385 13.515109061093293 1.8963474647574492
  endloop
endfacet
facet normal 1.0 6.147463080383035e-15 -7.97854508892852e-15
  outer loop
    vertex 23.781883267714342 6.465782017309462 -0.10365253524183404
    vertex 23.78188326771434 9.4202111385933 1.879109634957163
    vertex 23.781883267714385 6.465782017309457 1.8963474647581666
  endloop
endfacet
facet normal 1.0 6.147463080383035e-15 -7.97854508892852e-15
  outer loop
    vertex 23.78188326771434 9.4202111385933 1.879109634957163
    vertex 23.781883267714342 6.465782017309462 -0.10365253524183404
    vertex 23.78188326771435 9.420211138593313 -0.10365253524184496
  endloop
endfacet
facet normal 2.0526920519219306e-14 -2.4286128663675216e-16 1.0
  outer loop
    vertex 58.78188326771433 9.420211138593109 1.879109634956444
    vertex 23.781883267714345 10.206112217504375 1.8791096349571694
    vertex 23.78188326771434 9.4202111385933 1.879109634957163
  endloop
endfacet
facet normal 2.0526920519219306e-14 -2.4286128663675216e-16 1.0
  outer loop
    vertex 23.781883267714345 10.206112217504375 1.8791096349571694
    vertex 58.78188326771433 9.420211138593109 1.879109634956444
    vertex 58.781883267714335 10.206112217504193 1.8791096349564524
  endloop
endfacet
facet normal 5.343408769794352e-15 1.0 2.4286128663664245e-16
  outer loop
    vertex 23.781883267714342 10.206112217504385 1.8096356349571487
    vertex 58.781883267714335 10.206112217504193 1.8791096349564524
    vertex 58.781883267714335 10.206112217504199 1.809635634956431
  endloop
endfacet
facet normal 5.343408769794352e-15 1.0 2.4286128663664245e-16
  outer loop
    vertex 58.781883267714335 10.206112217504193 1.8791096349564524
    vertex 23.781883267714342 10.206112217504385 1.8096356349571487
    vertex 23.781883267714345 10.206112217504375 1.8791096349571694
  endloop
endfacet
facet normal 1.0 -1.3512344139494839e-14 -2.5556424500879246e-14
  outer loop
    vertex 23.781883267714363 14.604512683696907 0.919116235210545
    vertex 23.781883267714374 14.405645181807099 1.9016253590235144
    vertex 23.781883267714374 14.405645181807074 1.0910409821780238
  endloop
endfacet
facet normal 1.0 -1.3512344139494839e-14 -2.5556424500879246e-14
  outer loop
    vertex 23.781883267714374 14.405645181807099 1.9016253590235144
    vertex 23.781883267714363 14.604512683696907 0.919116235210545
    vertex 23.781883267714456 19.21311301730944 1.8963474647581564
  endloop
endfacet
facet normal 1.0 -1.3512344139494839e-14 -2.5556424500879246e-14
  outer loop
    vertex 23.781883267714456 19.21311301730944 1.8963474647581564
    vertex 23.781883267714363 14.604512683696907 0.919116235210545
    vertex 23.78188326771438 17.94208356089204 0.9191162352105533
  endloop
endfacet
facet normal 1.0 -1.3512344139494839e-14 -2.5556424500879246e-14
  outer loop
    vertex 23.781883267714456 19.21311301730944 1.8963474647581564
    vertex 23.78188326771438 17.94208356089204 0.9191162352105533
    vertex 23.781883267714363 17.94208356089204 -0.09740295110239698
  endloop
endfacet
facet normal 1.0 -1.3512344139494839e-14 -2.5556424500879246e-14
  outer loop
    vertex 23.781883267714456 19.21311301730944 1.8963474647581564
    vertex 23.781883267714363 17.94208356089204 -0.09740295110239698
    vertex 23.781883267714413 19.21311301730944 -0.10365253524182205
  endloop
endfacet
facet normal 1.9732740658250228e-14 0.5908887823244818 0.8067530272165646
  outer loop
    vertex 58.781883267714335 10.206112217504199 1.809635634956431
    vertex 23.78188326771436 10.290135092746393 1.7480948997330907
    vertex 23.781883267714342 10.206112217504385 1.8096356349571487
  endloop
endfacet
facet normal 1.9732740658250228e-14 0.5908887823244818 0.8067530272165646
  outer loop
    vertex 23.78188326771436 10.290135092746393 1.7480948997330907
    vertex 58.781883267714335 10.206112217504199 1.809635634956431
    vertex 58.78188326771435 10.290135092746207 1.7480948997323766
  endloop
endfacet
facet normal 5.366143567475983e-15 1.0 2.4286128663664196e-16
  outer loop
    vertex 23.781883267714356 10.290135092746427 1.134362363634106
    vertex 58.78188326771435 10.290135092746207 1.7480948997323766
    vertex 58.78188326771436 10.290135092746235 1.1343623636333904
  endloop
endfacet
facet normal 5.366143567475983e-15 1.0 2.4286128663664196e-16
  outer loop
    vertex 58.78188326771435 10.290135092746207 1.7480948997323766
    vertex 23.781883267714356 10.290135092746427 1.134362363634106
    vertex 23.78188326771436 10.290135092746393 1.7480948997330907
  endloop
endfacet
facet normal 2.0529140965268555e-14 -2.4286128663675216e-16 1.0
  outer loop
    vertex 58.78188326771436 10.290135092746235 1.1343623636333904
    vertex 23.781883267714363 11.085405602469365 1.134362363634112
    vertex 23.781883267714356 10.290135092746427 1.134362363634106
  endloop
endfacet
facet normal 2.0529140965268555e-14 -2.4286128663675216e-16 1.0
  outer loop
    vertex 23.781883267714363 11.085405602469365 1.134362363634112
    vertex 58.78188326771436 10.290135092746235 1.1343623636333904
    vertex 58.78188326771436 11.085405602469184 1.1343623636333966
  endloop
endfacet
facet normal 2.0529140965268555e-14 -2.4286128663675216e-16 1.0
  outer loop
    vertex 58.781883267714385 12.46354667881275 1.43821367955097
    vertex 23.781883267714377 13.008031738110203 1.4382136795516856
    vertex 23.781883267714374 12.463546678812934 1.4382136795516884
  endloop
endfacet
facet normal 2.0529140965268555e-14 -2.4286128663675216e-16 1.0
  outer loop
    vertex 23.781883267714377 13.008031738110203 1.4382136795516856
    vertex 58.781883267714385 12.46354667881275 1.43821367955097
    vertex 58.781883267714385 13.008031738110011 1.438213679550968
  endloop
endfacet
facet normal 5.343408769794352e-15 1.0 2.4286128663664245e-16
  outer loop
    vertex 23.781883267714374 14.405645181807074 1.0910409821780238
    vertex 58.78188326771437 14.40564518180691 1.901625359022796
    vertex 58.78188326771437 14.405645181806888 1.091040982177303
  endloop
endfacet
facet normal 5.343408769794352e-15 1.0 2.4286128663664245e-16
  outer loop
    vertex 58.78188326771437 14.40564518180691 1.901625359022796
    vertex 23.781883267714374 14.405645181807074 1.0910409821780238
    vertex 23.781883267714374 14.405645181807099 1.9016253590235144
  endloop
endfacet
facet normal 1.9023199607524397e-14 0.6540022658468438 0.7564925883755863
  outer loop
    vertex 23.781883267714374 14.405645181807074 1.0910409821780238
    vertex 58.78188326771436 14.604512683696724 0.9191162352098248
    vertex 23.781883267714363 14.604512683696907 0.919116235210545
  endloop
endfacet
facet normal 1.9023199607524397e-14 0.6540022658468438 0.7564925883755863
  outer loop
    vertex 58.78188326771436 14.604512683696724 0.9191162352098248
    vertex 23.781883267714374 14.405645181807074 1.0910409821780238
    vertex 58.78188326771437 14.405645181806888 1.091040982177303
  endloop
endfacet
facet normal -1.6812520695708584e-14 -0.7874138839833772 -0.6164246712374618
  outer loop
    vertex 58.78188326771435 12.12078158537976 1.2765233066299637
    vertex 23.78188326771434 12.452888642495124 0.8522935183965666
    vertex 58.781883267714335 12.452888642494937 0.8522935183958433
  endloop
endfacet
facet normal -1.6812520695708584e-14 -0.7874138839833772 -0.6164246712374618
  outer loop
    vertex 23.78188326771434 12.452888642495124 0.8522935183965666
    vertex 58.78188326771435 12.12078158537976 1.2765233066299637
    vertex 23.781883267714345 12.12078158537994 1.276523306630681
  endloop
endfacet
facet normal -1.0 3.971353459208247e-15 1.3848348916297396e-14
  outer loop
    vertex 23.781883267714345 10.206112217504375 1.8791096349571694
    vertex 23.78188326771435 9.420211138593313 -0.10365253524184496
    vertex 23.78188326771434 9.4202111385933 1.879109634957163
  endloop
endfacet
facet normal -1.0 3.971353459208247e-15 1.3848348916297396e-14
  outer loop
    vertex 23.78188326771435 9.420211138593313 -0.10365253524184496
    vertex 23.781883267714345 10.206112217504375 1.8791096349571694
    vertex 23.781883267714342 10.206112217504385 1.8096356349571487
  endloop
endfacet
facet normal -1.0 3.971353459208247e-15 1.3848348916297396e-14
  outer loop
    vertex 23.78188326771435 9.420211138593313 -0.10365253524184496
    vertex 23.781883267714342 10.206112217504385 1.8096356349571487
    vertex 23.781883267714356 10.290135092746427 1.134362363634106
  endloop
endfacet
facet normal -1.0 3.971353459208247e-15 1.3848348916297396e-14
  outer loop
    vertex 23.78188326771435 9.420211138593313 -0.10365253524184496
    vertex 23.781883267714356 10.290135092746427 1.134362363634106
    vertex 23.78188326771436 11.339737710625938 -0.10365253524183933
  endloop
endfacet
facet normal -1.0 3.971353459208247e-15 1.3848348916297396e-14
  outer loop
    vertex 23.781883267714356 10.290135092746427 1.134362363634106
    vertex 23.781883267714342 10.206112217504385 1.8096356349571487
    vertex 23.78188326771436 10.290135092746393 1.7480948997330907
  endloop
endfacet
facet normal -1.0 3.971353459208247e-15 1.3848348916297396e-14
  outer loop
    vertex 23.78188326771436 11.339737710625938 -0.10365253524183933
    vertex 23.781883267714356 10.290135092746427 1.134362363634106
    vertex 23.781883267714363 11.085405602469365 1.134362363634112
  endloop
endfacet
facet normal -1.0 3.971353459208247e-15 1.3848348916297396e-14
  outer loop
    vertex 23.78188326771436 11.339737710625938 -0.10365253524183933
    vertex 23.781883267714363 11.085405602469365 1.134362363634112
    vertex 23.781883267714388 11.184334634198994 1.8963474647581517
  endloop
endfacet
facet normal -1.0 3.971353459208247e-15 1.3848348916297396e-14
  outer loop
    vertex 23.78188326771436 11.339737710625938 -0.10365253524183933
    vertex 23.781883267714388 11.184334634198994 1.8963474647581517
    vertex 23.781883267714353 11.460548243673225 1.0254706914509122
  endloop
endfacet
facet normal -1.0 3.971353459208247e-15 1.3848348916297396e-14
  outer loop
    vertex 23.781883267714353 11.460548243673225 1.0254706914509122
    vertex 23.781883267714388 11.184334634198994 1.8963474647581517
    vertex 23.781883267714395 12.196983383692134 1.8963474647581644
  endloop
endfacet
facet normal -1.0 3.971353459208247e-15 1.3848348916297396e-14
  outer loop
    vertex 23.781883267714353 11.460548243673225 1.0254706914509122
    vertex 23.781883267714395 12.196983383692134 1.8963474647581644
    vertex 23.781883267714345 11.695469402461368 1.2765233066306823
  endloop
endfacet
facet normal -1.0 3.971353459208247e-15 1.3848348916297396e-14
  outer loop
    vertex 23.781883267714345 11.695469402461368 1.2765233066306823
    vertex 23.781883267714395 12.196983383692134 1.8963474647581644
    vertex 23.781883267714345 12.12078158537994 1.276523306630681
  endloop
endfacet
facet normal -1.0 3.971353459208247e-15 1.3848348916297396e-14
  outer loop
    vertex 23.781883267714345 12.12078158537994 1.276523306630681
    vertex 23.781883267714395 12.196983383692134 1.8963474647581644
    vertex 23.78188326771434 12.452888642495124 0.8522935183965666
  endloop
endfacet
facet normal -1.0 3.971353459208247e-15 1.3848348916297396e-14
  outer loop
    vertex 23.78188326771434 12.452888642495124 0.8522935183965666
    vertex 23.781883267714395 12.196983383692134 1.8963474647581644
    vertex 23.781883267714374 12.463546678812934 1.4382136795516884
  endloop
endfacet
facet normal -1.0 3.971353459208247e-15 1.3848348916297396e-14
  outer loop
    vertex 23.78188326771434 12.452888642495124 0.8522935183965666
    vertex 23.781883267714374 12.463546678812934 1.4382136795516884
    vertex 23.78188326771435 13.899983456945996 0.8522935183965534
  endloop
endfacet
facet normal -1.0 3.971353459208247e-15 1.3848348916297396e-14
  outer loop
    vertex 23.78188326771435 13.899983456945996 0.8522935183965534
    vertex 23.781883267714374 12.463546678812934 1.4382136795516884
    vertex 23.781883267714377 13.008031738110203 1.4382136795516856
  endloop
endfacet
facet normal -1.0 3.971353459208247e-15 1.3848348916297396e-14
  outer loop
    vertex 23.78188326771435 13.899983456945996 0.8522935183965534
    vertex 23.781883267714377 13.008031738110203 1.4382136795516856
    vertex 23.781883267714406 13.515109061093483 1.8963474647581717
  endloop
endfacet
facet normal -1.0 3.971353459208247e-15 1.3848348916297396e-14
  outer loop
    vertex 23.78188326771435 13.899983456945996 0.8522935183965534
    vertex 23.781883267714406 13.515109061093483 1.8963474647581717
    vertex 23.781883267714374 14.405645181807099 1.9016253590235144
  endloop
endfacet
facet normal -1.0 3.971353459208247e-15 1.3848348916297396e-14
  outer loop
    vertex 23.78188326771435 13.899983456945996 0.8522935183965534
    vertex 23.781883267714374 14.405645181807099 1.9016253590235144
    vertex 23.781883267714374 14.405645181807074 1.0910409821780238
  endloop
endfacet
facet normal -1.0 3.971353459208247e-15 1.3848348916297396e-14
  outer loop
    vertex 23.781883267714374 14.405645181807074 1.0910409821780238
    vertex 23.781883267714342 14.517907415460947 -0.06124995110240056
    vertex 23.78188326771435 13.899983456945996 0.8522935183965534
  endloop
endfacet
facet normal -1.0 3.971353459208247e-15 1.3848348916297396e-14
  outer loop
    vertex 23.781883267714342 14.517907415460947 -0.06124995110240056
    vertex 23.781883267714374 14.405645181807074 1.0910409821780238
    vertex 23.781883267714363 14.604512683696907 0.919116235210545
  endloop
endfacet
facet normal -1.0 3.971353459208247e-15 1.3848348916297396e-14
  outer loop
    vertex 23.781883267714342 14.517907415460947 -0.06124995110240056
    vertex 23.781883267714363 17.94208356089204 -0.09740295110239698
    vertex 23.781883267714342 14.517907415460945 -0.09740295110239734
  endloop
endfacet
facet normal -1.0 3.971353459208247e-15 1.3848348916297396e-14
  outer loop
    vertex 23.781883267714363 17.94208356089204 -0.09740295110239698
    vertex 23.781883267714342 14.517907415460947 -0.06124995110240056
    vertex 23.781883267714363 14.604512683696907 0.919116235210545
  endloop
endfacet
facet normal -1.0 3.971353459208247e-15 1.3848348916297396e-14
  outer loop
    vertex 23.781883267714363 17.94208356089204 -0.09740295110239698
    vertex 23.781883267714363 14.604512683696907 0.919116235210545
    vertex 23.78188326771438 17.94208356089204 0.9191162352105533
  endloop
endfacet
endsolid Key_Blank_L
