solid No_Bat_Remake3
facet normal -1.0 -3.417509444945923e-15 1.2155900337443942e-15
  outer loop
    vertex 33.34969498813337 1.6503050118675082 4.639666999999998
    vertex 33.34969498813337 1.1265766097778848e-12 0.0
    vertex 33.34969498813337 8.826495090374916e-13 4.639667000000015
  endloop
endfacet
facet normal -1.0 -3.417509444945923e-15 1.2155900337443942e-15
  outer loop
    vertex 33.34969498813337 1.1265766097778848e-12 0.0
    vertex 33.34969498813337 1.6503050118675082 4.639666999999998
    vertex 33.34969498813336 1.6503050118690339 0.0
  endloop
endfacet
facet normal 0.0 0.0 -1.0
  outer loop
    vertex 1.650305011867265 1.6503050118690339 0.0
    vertex 12.500000000000002 1.1265766097778848e-12 0.0
    vertex 1.6503050118667397 1.1265766097778848e-12 0.0
  endloop
endfacet
facet normal 0.0 0.0 -1.0
  outer loop
    vertex 12.500000000000002 1.1265766097778848e-12 0.0
    vertex 1.650305011867265 1.6503050118690339 0.0
    vertex 19.53818901186725 1.6503050118690339 0.0
  endloop
endfacet
facet normal 0.0 0.0 -1.0
  outer loop
    vertex 12.500000000000002 1.1265766097778848e-12 0.0
    vertex 19.53818901186725 1.6503050118690339 0.0
    vertex 22.5 1.1265766097778848e-12 0.0
  endloop
endfacet
facet normal 0.0 0.0 -1.0
  outer loop
    vertex 22.5 1.1265766097778848e-12 0.0
    vertex 19.53818901186725 1.6503050118690339 0.0
    vertex 33.34969498813336 1.6503050118690339 0.0
  endloop
endfacet
facet normal 0.0 0.0 -1.0
  outer loop
    vertex 22.5 1.1265766097778848e-12 0.0
    vertex 33.34969498813336 1.6503050118690339 0.0
    vertex 33.34969498813337 1.1265766097778848e-12 0.0
  endloop
endfacet
facet normal -1.0449876153834325e-14 -1.0 -2.96561658935502e-14
  outer loop
    vertex 33.34969498813337 8.826495090374916e-13 4.639667000000015
    vertex 22.5 1.1265766097778848e-12 0.0
    vertex 33.34969498813337 1.1265766097778848e-12 0.0
  endloop
endfacet
facet normal -1.0449876153834325e-14 -1.0 -2.96561658935502e-14
  outer loop
    vertex 22.5 1.1265766097778848e-12 0.0
    vertex 33.34969498813337 8.826495090374916e-13 4.639667000000015
    vertex 22.5 1.1279865930191586e-12 2.497296999999995
  endloop
endfacet
facet normal -1.0449876153834325e-14 -1.0 -2.96561658935502e-14
  outer loop
    vertex 22.5 1.1279865930191586e-12 2.497296999999995
    vertex 33.34969498813337 8.826495090374916e-13 4.639667000000015
    vertex 22.5 1.094146995228584e-12 4.639666999999999
  endloop
endfacet
facet normal 1.0 4.870706194160221e-14 1.2889882494888188e-13
  outer loop
    vertex 1.6503050118667397 1.1265766097778848e-12 0.0
    vertex 1.6503050118660694 1.6503050118666396 4.639666999999853
    vertex 1.6503050118667404 0.0 4.639666999999937
  endloop
endfacet
facet normal 1.0 4.870706194160221e-14 1.2889882494888188e-13
  outer loop
    vertex 1.6503050118660694 1.6503050118666396 4.639666999999853
    vertex 1.6503050118667397 1.1265766097778848e-12 0.0
    vertex 1.650305011867265 1.6503050118690339 0.0
  endloop
endfacet
facet normal -3.619305667533718e-16 1.0468958015360678e-16 -1.0
  outer loop
    vertex 22.5 42.10697749599839 2.4972969999999974
    vertex 12.500000000000002 39.21395499199564 2.4972970000000063
    vertex 12.500000000000002 42.106977495998386 2.497297000000002
  endloop
endfacet
facet normal -3.619305667533718e-16 1.0468958015360678e-16 -1.0
  outer loop
    vertex 12.500000000000002 39.21395499199564 2.4972970000000063
    vertex 22.5 42.10697749599839 2.4972969999999974
    vertex 12.500000000000002 1.6503050118677478 2.497296999999995
  endloop
endfacet
facet normal -3.619305667533718e-16 1.0468958015360678e-16 -1.0
  outer loop
    vertex 12.500000000000002 1.6503050118677478 2.497296999999995
    vertex 22.5 42.10697749599839 2.4972969999999974
    vertex 19.53818901186725 1.6503050118690339 2.4972969999999988
  endloop
endfacet
facet normal -3.619305667533718e-16 1.0468958015360678e-16 -1.0
  outer loop
    vertex 19.53818901186725 1.6503050118690339 2.4972969999999988
    vertex 22.5 42.10697749599839 2.4972969999999974
    vertex 22.5 1.6503050118677478 2.497296999999995
  endloop
endfacet
facet normal -3.619305667533718e-16 1.0468958015360678e-16 -1.0
  outer loop
    vertex 22.5 1.6503050118677478 2.497296999999995
    vertex 22.5 42.10697749599839 2.4972969999999974
    vertex 22.5 39.213954991995664 2.4972969999999988
  endloop
endfacet
facet normal 1.0 -4.41028626751269e-31 -1.5795403123911993e-14
  outer loop
    vertex 12.500000000000002 1.1279865930191586e-12 2.497296999999995
    vertex 12.500000000000036 1.650305011867573 4.639666999999959
    vertex 12.500000000000036 9.53148671101189e-13 4.639666999999959
  endloop
endfacet
facet normal 1.0 -4.41028626751269e-31 -1.5795403123911993e-14
  outer loop
    vertex 12.500000000000036 1.650305011867573 4.639666999999959
    vertex 12.500000000000002 1.1279865930191586e-12 2.497296999999995
    vertex 12.500000000000002 1.6503050118677478 2.497296999999995
  endloop
endfacet
facet normal 0.0 -1.0 5.646037460798421e-16
  outer loop
    vertex 22.5 1.1279865930191586e-12 2.497296999999995
    vertex 12.500000000000002 1.1265766097778848e-12 0.0
    vertex 22.5 1.1265766097778848e-12 0.0
  endloop
endfacet
facet normal 0.0 -1.0 5.646037460798421e-16
  outer loop
    vertex 12.500000000000002 1.1265766097778848e-12 0.0
    vertex 22.5 1.1279865930191586e-12 2.497296999999995
    vertex 12.500000000000002 1.1279865930191586e-12 2.497296999999995
  endloop
endfacet
facet normal -4.660612685110352e-17 -6.927943587986147e-16 1.0
  outer loop
    vertex 22.5 1.1279865930191586e-12 2.497296999999995
    vertex 12.500000000000002 1.6503050118677478 2.497296999999995
    vertex 12.500000000000002 1.1279865930191586e-12 2.497296999999995
  endloop
endfacet
facet normal -4.660612685110352e-17 -6.927943587986147e-16 1.0
  outer loop
    vertex 12.500000000000002 1.6503050118677478 2.497296999999995
    vertex 22.5 1.1279865930191586e-12 2.497296999999995
    vertex 19.53818901186725 1.6503050118690339 2.4972969999999988
  endloop
endfacet
facet normal -4.660612685110352e-17 -6.927943587986147e-16 1.0
  outer loop
    vertex 19.53818901186725 1.6503050118690339 2.4972969999999988
    vertex 22.5 1.1279865930191586e-12 2.497296999999995
    vertex 22.5 1.6503050118677478 2.497296999999995
  endloop
endfacet
facet normal 4.405500836376668e-15 -1.2494634622204413e-15 -1.0
  outer loop
    vertex 1.650305011866622 39.21395499199564 4.639666999999853
    vertex 12.500000000000036 1.650305011867573 4.639666999999959
    vertex 1.6503050118660694 1.6503050118666396 4.639666999999853
  endloop
endfacet
facet normal 4.405500836376668e-15 -1.2494634622204413e-15 -1.0
  outer loop
    vertex 12.500000000000036 1.650305011867573 4.639666999999959
    vertex 1.650305011866622 39.21395499199564 4.639666999999853
    vertex 12.500000000000002 39.21395499199564 4.639666999999839
  endloop
endfacet
facet normal -1.0 -4.504301074107e-16 7.897701561956464e-15
  outer loop
    vertex 12.500000000000002 39.21395499199564 4.639666999999839
    vertex 12.500000000000002 1.6503050118677478 2.497296999999995
    vertex 12.500000000000036 1.650305011867573 4.639666999999959
  endloop
endfacet
facet normal -1.0 -4.504301074107e-16 7.897701561956464e-15
  outer loop
    vertex 12.500000000000002 1.6503050118677478 2.497296999999995
    vertex 12.500000000000002 39.21395499199564 4.639666999999839
    vertex 12.500000000000002 39.21395499199564 2.4972970000000063
  endloop
endfacet
facet normal 3.2091600497907703e-15 -1.279526077819125e-15 -1.0
  outer loop
    vertex 33.34969498813336 39.21395499199564 4.639666999999958
    vertex 22.5 1.650305011867717 4.639666999999999
    vertex 22.5 39.21395499199564 4.639666999999916
  endloop
endfacet
facet normal 3.2091600497907703e-15 -1.279526077819125e-15 -1.0
  outer loop
    vertex 22.5 1.650305011867717 4.639666999999999
    vertex 33.34969498813336 39.21395499199564 4.639666999999958
    vertex 33.34969498813336 38.842774011869025 4.639666999999998
  endloop
endfacet
facet normal 3.2091600497907703e-15 -1.279526077819125e-15 -1.0
  outer loop
    vertex 22.5 1.650305011867717 4.639666999999999
    vertex 33.34969498813336 38.842774011869025 4.639666999999998
    vertex 33.34969498813337 1.6503050118675082 4.639666999999998
  endloop
endfacet
facet normal 1.0 0.0 0.0
  outer loop
    vertex 22.5 1.6503050118677478 2.497296999999995
    vertex 22.5 39.21395499199564 4.639666999999916
    vertex 22.5 1.650305011867717 4.639666999999999
  endloop
endfacet
facet normal 1.0 0.0 0.0
  outer loop
    vertex 22.5 39.21395499199564 4.639666999999916
    vertex 22.5 1.6503050118677478 2.497296999999995
    vertex 22.5 39.213954991995664 2.4972969999999988
  endloop
endfacet
facet normal 1.0 0.0 0.0
  outer loop
    vertex 1.650305011866622 45.00000000000113 2.4972969999999988
    vertex 1.6503050118665334 42.106977495998386 16.800616999999832
    vertex 1.650305011866622 42.106977495998386 2.4972970000000094
  endloop
endfacet
facet normal 1.0 0.0 0.0
  outer loop
    vertex 1.6503050118665334 42.106977495998386 16.800616999999832
    vertex 1.650305011866622 45.00000000000113 2.4972969999999988
    vertex 1.6503050118665334 45.00000000000113 16.80061699999982
  endloop
endfacet
facet normal -0.0 1.0 -0.0
  outer loop
    vertex 1.650305011866622 42.106977495998386 2.4972970000000094
    vertex 12.499999999999934 42.106977495998386 16.80061699999982
    vertex 12.500000000000002 42.106977495998386 2.497297000000002
  endloop
endfacet
facet normal -0.0 1.0 -0.0
  outer loop
    vertex 12.499999999999934 42.106977495998386 16.80061699999982
    vertex 1.650305011866622 42.106977495998386 2.4972970000000094
    vertex 1.6503050118665334 42.106977495998386 16.800616999999832
  endloop
endfacet
facet normal 0.0 -1.0 0.0
  outer loop
    vertex 12.500000000000002 39.21395499199564 4.639666999999839
    vertex 1.650305011866622 39.21395499199564 2.4972970000000205
    vertex 12.500000000000002 39.21395499199564 2.4972970000000063
  endloop
endfacet
facet normal 0.0 -1.0 0.0
  outer loop
    vertex 1.650305011866622 39.21395499199564 2.4972970000000205
    vertex 12.500000000000002 39.21395499199564 4.639666999999839
    vertex 1.650305011866622 39.21395499199564 4.639666999999853
  endloop
endfacet
facet normal 0.0 0.0 -1.0
  outer loop
    vertex 33.34969498813336 45.00000000000113 0.0
    vertex 1.650305011867265 1.6503050118690339 0.0
    vertex 1.650305011866622 45.00000000000113 0.0
  endloop
endfacet
facet normal 0.0 0.0 -1.0
  outer loop
    vertex 1.650305011867265 1.6503050118690339 0.0
    vertex 33.34969498813336 45.00000000000113 0.0
    vertex 19.53818901186725 1.6503050118690339 0.0
  endloop
endfacet
facet normal 0.0 0.0 -1.0
  outer loop
    vertex 19.53818901186725 1.6503050118690339 0.0
    vertex 33.34969498813336 45.00000000000113 0.0
    vertex 33.34969498813336 1.6503050118690339 0.0
  endloop
endfacet
facet normal 0.0 0.0 -1.0
  outer loop
    vertex 33.34969498813336 1.6503050118690339 0.0
    vertex 33.34969498813336 45.00000000000113 0.0
    vertex 33.34969498813336 38.842774011869025 0.0
  endloop
endfacet
facet normal -1.0396482060120898e-15 1.0 -5.265134374637337e-15
  outer loop
    vertex 22.49999999999994 42.10697749599841 16.80061699999995
    vertex 33.34969498813337 42.10697749599841 2.4972970000000614
    vertex 22.5 42.10697749599839 2.4972969999999974
  endloop
endfacet
facet normal -1.0396482060120898e-15 1.0 -5.265134374637337e-15
  outer loop
    vertex 33.34969498813337 42.10697749599841 2.4972970000000614
    vertex 22.49999999999994 42.10697749599841 16.80061699999995
    vertex 33.34969498813339 42.106977495998414 16.800617000000017
  endloop
endfacet
facet normal -5.977977184571921e-15 2.563132083709333e-14 1.0
  outer loop
    vertex 1.6503050118667404 0.0 4.639666999999937
    vertex 12.500000000000036 1.650305011867573 4.639666999999959
    vertex 1.6503050118660694 1.6503050118666396 4.639666999999853
  endloop
endfacet
facet normal -5.977977184571921e-15 2.563132083709333e-14 1.0
  outer loop
    vertex 12.500000000000036 1.650305011867573 4.639666999999959
    vertex 1.6503050118667404 0.0 4.639666999999937
    vertex 12.500000000000036 9.53148671101189e-13 4.639666999999959
  endloop
endfacet
facet normal -6.497801287574781e-16 5.126264167418901e-15 1.0
  outer loop
    vertex 33.34969498813337 8.826495090374916e-13 4.639667000000015
    vertex 22.5 1.650305011867717 4.639666999999999
    vertex 22.5 1.094146995228584e-12 4.639666999999999
  endloop
endfacet
facet normal -6.497801287574781e-16 5.126264167418901e-15 1.0
  outer loop
    vertex 22.5 1.650305011867717 4.639666999999999
    vertex 33.34969498813337 8.826495090374916e-13 4.639667000000015
    vertex 33.34969498813337 1.6503050118675082 4.639666999999998
  endloop
endfacet
facet normal -1.0 0.0 0.0
  outer loop
    vertex 22.5 1.650305011867717 4.639666999999999
    vertex 22.5 1.1279865930191586e-12 2.497296999999995
    vertex 22.5 1.094146995228584e-12 4.639666999999999
  endloop
endfacet
facet normal -1.0 0.0 0.0
  outer loop
    vertex 22.5 1.1279865930191586e-12 2.497296999999995
    vertex 22.5 1.650305011867717 4.639666999999999
    vertex 22.5 1.6503050118677478 2.497296999999995
  endloop
endfacet
facet normal 4.8895954689007685e-15 3.3506945660970397e-15 -1.0
  outer loop
    vertex 33.34969498813337 42.10697749599841 2.4972970000000614
    vertex 22.5 39.213954991995664 2.4972969999999988
    vertex 22.5 42.10697749599839 2.4972969999999974
  endloop
endfacet
facet normal 4.8895954689007685e-15 3.3506945660970397e-15 -1.0
  outer loop
    vertex 22.5 39.213954991995664 2.4972969999999988
    vertex 33.34969498813337 42.10697749599841 2.4972970000000614
    vertex 33.34969498813337 39.213954991995664 2.497297000000041
  endloop
endfacet
facet normal 4.07266762357351e-29 -1.0 -1.0530268749274893e-14
  outer loop
    vertex 33.34969498813337 39.213954991995664 2.497297000000041
    vertex 22.5 39.21395499199564 4.639666999999916
    vertex 22.5 39.213954991995664 2.4972969999999988
  endloop
endfacet
facet normal 4.07266762357351e-29 -1.0 -1.0530268749274893e-14
  outer loop
    vertex 22.5 39.21395499199564 4.639666999999916
    vertex 33.34969498813337 39.213954991995664 2.497297000000041
    vertex 33.34969498813336 39.21395499199564 4.639666999999958
  endloop
endfacet
facet normal -1.0071591995742442e-15 -2.680555652877621e-15 -1.0
  outer loop
    vertex 12.500000000000002 42.106977495998386 2.497297000000002
    vertex 1.650305011866622 39.21395499199564 2.4972970000000205
    vertex 1.650305011866622 42.106977495998386 2.4972970000000094
  endloop
endfacet
facet normal -1.0071591995742442e-15 -2.680555652877621e-15 -1.0
  outer loop
    vertex 1.650305011866622 39.21395499199564 2.4972970000000205
    vertex 12.500000000000002 42.106977495998386 2.497297000000002
    vertex 12.500000000000002 39.21395499199564 2.4972970000000063
  endloop
endfacet
facet normal -4.219841584284864e-14 1.0 3.8239919394230874e-13
  outer loop
    vertex 19.53818901186725 1.6503050118690339 2.4972969999999988
    vertex 19.53818901186725 1.6503050118690339 0.0
    vertex 12.500000000000002 1.6503050118677478 2.497296999999995
  endloop
endfacet
facet normal -4.219841584284864e-14 1.0 3.8239919394230874e-13
  outer loop
    vertex 1.6503050118660694 1.6503050118666396 4.639666999999853
    vertex 19.53818901186725 1.6503050118690339 0.0
    vertex 1.650305011867265 1.6503050118690339 0.0
  endloop
endfacet
facet normal -4.219841584284864e-14 1.0 3.8239919394230874e-13
  outer loop
    vertex 19.53818901186725 1.6503050118690339 0.0
    vertex 1.6503050118660694 1.6503050118666396 4.639666999999853
    vertex 12.500000000000002 1.6503050118677478 2.497296999999995
  endloop
endfacet
facet normal -4.219841584284864e-14 1.0 3.8239919394230874e-13
  outer loop
    vertex 12.500000000000002 1.6503050118677478 2.497296999999995
    vertex 1.6503050118660694 1.6503050118666396 4.639666999999853
    vertex 12.500000000000036 1.650305011867573 4.639666999999959
  endloop
endfacet
facet normal -4.712925236787776e-16 1.0 -1.7720391937580174e-15
  outer loop
    vertex 1.650305011866622 45.00000000000113 2.4972969999999988
    vertex 33.34969498813336 45.00000000000113 0.0
    vertex 1.650305011866622 45.00000000000113 0.0
  endloop
endfacet
facet normal -4.712925236787776e-16 1.0 -1.7720391937580174e-15
  outer loop
    vertex 33.34969498813336 45.00000000000113 0.0
    vertex 1.650305011866622 45.00000000000113 2.4972969999999988
    vertex 33.34969498813339 45.000000000001165 16.800617000000035
  endloop
endfacet
facet normal -4.712925236787776e-16 1.0 -1.7720391937580174e-15
  outer loop
    vertex 33.34969498813339 45.000000000001165 16.800617000000035
    vertex 1.650305011866622 45.00000000000113 2.4972969999999988
    vertex 1.6503050118665334 45.00000000000113 16.80061699999982
  endloop
endfacet
facet normal 1.0 1.7655919161100975e-15 1.0449577970977654e-13
  outer loop
    vertex 1.650305011866622 45.00000000000113 0.0
    vertex 1.650305011866622 39.21395499199564 2.4972970000000205
    vertex 1.650305011867265 1.6503050118690339 0.0
  endloop
endfacet
facet normal 1.0 1.7655919161100975e-15 1.0449577970977654e-13
  outer loop
    vertex 1.650305011866622 39.21395499199564 2.4972970000000205
    vertex 1.650305011866622 45.00000000000113 0.0
    vertex 1.650305011866622 42.106977495998386 2.4972970000000094
  endloop
endfacet
facet normal 1.0 1.7655919161100975e-15 1.0449577970977654e-13
  outer loop
    vertex 1.650305011866622 42.106977495998386 2.4972970000000094
    vertex 1.650305011866622 45.00000000000113 0.0
    vertex 1.650305011866622 45.00000000000113 2.4972969999999988
  endloop
endfacet
facet normal 1.0 1.7655919161100975e-15 1.0449577970977654e-13
  outer loop
    vertex 1.650305011867265 1.6503050118690339 0.0
    vertex 1.650305011866622 39.21395499199564 4.639666999999853
    vertex 1.6503050118660694 1.6503050118666396 4.639666999999853
  endloop
endfacet
facet normal 1.0 1.7655919161100975e-15 1.0449577970977654e-13
  outer loop
    vertex 1.650305011866622 39.21395499199564 4.639666999999853
    vertex 1.650305011867265 1.6503050118690339 0.0
    vertex 1.650305011866622 39.21395499199564 2.4972970000000205
  endloop
endfacet
facet normal 1.9257811872805548e-14 1.0 3.0015755301308107e-13
  outer loop
    vertex 19.53818901186725 1.6503050118690339 2.4972969999999988
    vertex 33.34969498813336 1.6503050118690339 0.0
    vertex 19.53818901186725 1.6503050118690339 0.0
  endloop
endfacet
facet normal 1.9257811872805548e-14 1.0 3.0015755301308107e-13
  outer loop
    vertex 33.34969498813336 1.6503050118690339 0.0
    vertex 19.53818901186725 1.6503050118690339 2.4972969999999988
    vertex 22.5 1.6503050118677478 2.497296999999995
  endloop
endfacet
facet normal 1.9257811872805548e-14 1.0 3.0015755301308107e-13
  outer loop
    vertex 22.5 1.6503050118677478 2.497296999999995
    vertex 33.34969498813337 1.6503050118675082 4.639666999999998
    vertex 33.34969498813336 1.6503050118690339 0.0
  endloop
endfacet
facet normal 1.9257811872805548e-14 1.0 3.0015755301308107e-13
  outer loop
    vertex 33.34969498813337 1.6503050118675082 4.639666999999998
    vertex 22.5 1.6503050118677478 2.497296999999995
    vertex 22.5 1.650305011867717 4.639666999999999
  endloop
endfacet
facet normal -1.0 -1.3808612905114755e-16 8.103933558300185e-16
  outer loop
    vertex 33.34969498813336 38.842774011869025 4.639666999999998
    vertex 33.34969498813336 1.6503050118690339 0.0
    vertex 33.34969498813337 1.6503050118675082 4.639666999999998
  endloop
endfacet
facet normal -1.0 -1.3808612905114755e-16 8.103933558300185e-16
  outer loop
    vertex 33.34969498813336 1.6503050118690339 0.0
    vertex 33.34969498813336 38.842774011869025 4.639666999999998
    vertex 33.34969498813336 38.842774011869025 0.0
  endloop
endfacet
facet normal -1.0 3.057295520772518e-15 3.9096519988441756e-15
  outer loop
    vertex 33.34969498813336 39.21395499199564 4.639666999999958
    vertex 33.34969498813336 38.842774011869025 0.0
    vertex 33.34969498813336 38.842774011869025 4.639666999999998
  endloop
endfacet
facet normal -1.0 3.057295520772518e-15 3.9096519988441756e-15
  outer loop
    vertex 33.34969498813336 38.842774011869025 0.0
    vertex 33.34969498813336 39.21395499199564 4.639666999999958
    vertex 33.34969498813337 39.213954991995664 2.497297000000041
  endloop
endfacet
facet normal -1.0 3.057295520772518e-15 3.9096519988441756e-15
  outer loop
    vertex 33.34969498813336 38.842774011869025 0.0
    vertex 33.34969498813337 39.213954991995664 2.497297000000041
    vertex 33.34969498813336 45.00000000000113 0.0
  endloop
endfacet
facet normal -1.0 3.057295520772518e-15 3.9096519988441756e-15
  outer loop
    vertex 33.34969498813336 45.00000000000113 0.0
    vertex 33.34969498813337 39.213954991995664 2.497297000000041
    vertex 33.34969498813337 42.10697749599841 2.4972970000000614
  endloop
endfacet
facet normal -1.0 3.057295520772518e-15 3.9096519988441756e-15
  outer loop
    vertex 33.34969498813336 45.00000000000113 0.0
    vertex 33.34969498813337 42.10697749599841 2.4972970000000614
    vertex 33.34969498813339 42.106977495998414 16.800617000000017
  endloop
endfacet
facet normal -1.0 3.057295520772518e-15 3.9096519988441756e-15
  outer loop
    vertex 33.34969498813336 45.00000000000113 0.0
    vertex 33.34969498813339 42.106977495998414 16.800617000000017
    vertex 33.34969498813339 45.000000000001165 16.800617000000035
  endloop
endfacet
facet normal 4.739300441398442e-14 -1.0 -1.39476388990077e-13
  outer loop
    vertex 12.500000000000002 1.1279865930191586e-12 2.497296999999995
    vertex 1.6503050118667397 1.1265766097778848e-12 0.0
    vertex 12.500000000000002 1.1265766097778848e-12 0.0
  endloop
endfacet
facet normal 4.739300441398442e-14 -1.0 -1.39476388990077e-13
  outer loop
    vertex 1.6503050118667397 1.1265766097778848e-12 0.0
    vertex 12.500000000000002 1.1279865930191586e-12 2.497296999999995
    vertex 1.6503050118667404 0.0 4.639666999999937
  endloop
endfacet
facet normal 4.739300441398442e-14 -1.0 -1.39476388990077e-13
  outer loop
    vertex 1.6503050118667404 0.0 4.639666999999937
    vertex 12.500000000000002 1.1279865930191586e-12 2.497296999999995
    vertex 12.500000000000036 9.53148671101189e-13 4.639666999999959
  endloop
endfacet
facet normal -1.6919798895287236e-15 1.0 -2.632567187318847e-15
  outer loop
    vertex 12.500000000000002 42.106977495998386 2.497297000000002
    vertex 22.49999999999994 42.10697749599841 16.80061699999995
    vertex 22.5 42.10697749599839 2.4972969999999974
  endloop
endfacet
facet normal -1.6919798895287236e-15 1.0 -2.632567187318847e-15
  outer loop
    vertex 22.49999999999994 42.10697749599841 16.80061699999995
    vertex 12.500000000000002 42.106977495998386 2.497297000000002
    vertex 12.499999999999934 42.106977495998386 16.80061699999982
  endloop
endfacet
facet normal 6.93754820198583e-15 -9.17639138949899e-16 -1.0
  outer loop
    vertex 33.34969498813339 45.000000000001165 16.800617000000035
    vertex 1.6503050118665334 42.106977495998386 16.800616999999832
    vertex 1.6503050118665334 45.00000000000113 16.80061699999982
  endloop
endfacet
facet normal 6.93754820198583e-15 -9.17639138949899e-16 -1.0
  outer loop
    vertex 1.6503050118665334 42.106977495998386 16.800616999999832
    vertex 33.34969498813339 45.000000000001165 16.800617000000035
    vertex 12.499999999999934 42.106977495998386 16.80061699999982
  endloop
endfacet
facet normal 6.93754820198583e-15 -9.17639138949899e-16 -1.0
  outer loop
    vertex 12.499999999999934 42.106977495998386 16.80061699999982
    vertex 33.34969498813339 45.000000000001165 16.800617000000035
    vertex 22.49999999999994 42.10697749599841 16.80061699999995
  endloop
endfacet
facet normal 6.93754820198583e-15 -9.17639138949899e-16 -1.0
  outer loop
    vertex 22.49999999999994 42.10697749599841 16.80061699999995
    vertex 33.34969498813339 45.000000000001165 16.800617000000035
    vertex 33.34969498813339 42.106977495998414 16.800617000000017
  endloop
endfacet
endsolid No_Bat_Remake3
